<?xml version="1.0" encoding="UTF-8" standalone="no"?>
<!DOCTYPE svg PUBLIC "-//W3C//DTD SVG 1.1//EN"
 "http://www.w3.org/Graphics/SVG/1.1/DTD/svg11.dtd">
<!-- Generated by graphviz version 2.40.1 (20161225.0304)
 -->
<!-- Title: dependencies Pages: 1 -->
<svg width="2863pt" height="284pt"
 viewBox="0.00 0.00 2863.00 284.00" xmlns="http://www.w3.org/2000/svg" xmlns:xlink="http://www.w3.org/1999/xlink">
<g id="graph0" class="graph" transform="scale(1 1) rotate(0) translate(4 280)">
<title>dependencies</title>
<polygon fill="#ffffff" stroke="transparent" points="-4,4 -4,-280 2859,-280 2859,4 -4,4"/>
<text text-anchor="start" x="1406.5091" y="-42.4" font-family="sans-serif" font-weight="bold" font-size="14.00" fill="#000000">Legend</text>
<polygon fill="#ffffb3" stroke="transparent" points="1193.5,-10 1193.5,-30 1213.5,-30 1213.5,-10 1193.5,-10"/>
<text text-anchor="start" x="1217.129" y="-15.4" font-family="sans-serif" font-size="14.00" fill="#000000"> &#160;Declarations</text>
<polygon fill="#8dd3c7" stroke="transparent" points="1306.5,-10 1306.5,-30 1326.5,-30 1326.5,-10 1306.5,-10"/>
<text text-anchor="start" x="1330.2251" y="-15.4" font-family="sans-serif" font-size="14.00" fill="#000000"> &#160;Module</text>
<polygon fill="#80b1d3" stroke="transparent" points="1392.5,-10 1392.5,-30 1412.5,-30 1412.5,-10 1392.5,-10"/>
<text text-anchor="start" x="1416.2812" y="-15.4" font-family="sans-serif" font-size="14.00" fill="#000000"> &#160;Bootstrap</text>
<polygon fill="#fdb462" stroke="transparent" points="1489.5,-10 1489.5,-30 1509.5,-30 1509.5,-10 1489.5,-10"/>
<text text-anchor="start" x="1513.1732" y="-15.4" font-family="sans-serif" font-size="14.00" fill="#000000"> &#160;Providers</text>
<polygon fill="#fb8072" stroke="transparent" points="1585.5,-10 1585.5,-30 1605.5,-30 1605.5,-10 1585.5,-10"/>
<text text-anchor="start" x="1609.2258" y="-15.4" font-family="sans-serif" font-size="14.00" fill="#000000"> &#160;Exports</text>
<g id="clust1" class="cluster">
<title>cluster_FwModule</title>
<polygon fill="none" stroke="#000000" stroke-dasharray="1,5" points="8,-70 8,-268 2847,-268 2847,-70 8,-70"/>
</g>
<g id="clust2" class="cluster">
<title>cluster_FwModule_declarations</title>
<polygon fill="none" stroke="#000000" points="557,-78 557,-130 2839,-130 2839,-78 557,-78"/>
</g>
<g id="clust19" class="cluster">
<title>cluster_FwModule_exports</title>
<polygon fill="none" stroke="#000000" points="1202,-208 1202,-260 1969,-260 1969,-208 1202,-208"/>
</g>
<g id="clust21" class="cluster">
<title>cluster_FwModule_providers</title>
<polygon fill="none" stroke="#000000" points="16,-78 16,-130 549,-130 549,-78 16,-78"/>
</g>
<!-- FrameworkBodyComponent -->
<g id="node1" class="node">
<title>FrameworkBodyComponent</title>
<polygon fill="#ffffb3" stroke="#000000" points="2831.1993,-122 2654.8007,-122 2654.8007,-86 2831.1993,-86 2831.1993,-122"/>
<text text-anchor="middle" x="2743" y="-99.8" font-family="Times,serif" font-size="14.00" fill="#000000">FrameworkBodyComponent</text>
</g>
<!-- FwModule -->
<g id="node16" class="node">
<title>FwModule</title>
<polygon fill="#8dd3c7" stroke="#000000" points="1559.9403,-187 1556.9403,-191 1535.9403,-191 1532.9403,-187 1482.0597,-187 1482.0597,-151 1559.9403,-151 1559.9403,-187"/>
<text text-anchor="middle" x="1521" y="-164.8" font-family="Times,serif" font-size="14.00" fill="#000000">FwModule</text>
</g>
<!-- FrameworkBodyComponent&#45;&gt;FwModule -->
<g id="edge1" class="edge">
<title>FrameworkBodyComponent&#45;&gt;FwModule</title>
<path fill="none" stroke="#000000" d="M2743,-122.2921C2743,-144.2057 2743,-178 2743,-178 2743,-178 1569.9315,-178 1569.9315,-178"/>
<polygon fill="#000000" stroke="#000000" points="1569.9316,-174.5001 1559.9315,-178 1569.9315,-181.5001 1569.9316,-174.5001"/>
</g>
<!-- ContentComponent -->
<g id="node2" class="node">
<title>ContentComponent</title>
<polygon fill="#ffffb3" stroke="#000000" points="2636.6652,-122 2511.3348,-122 2511.3348,-86 2636.6652,-86 2636.6652,-122"/>
<text text-anchor="middle" x="2574" y="-99.8" font-family="Times,serif" font-size="14.00" fill="#000000">ContentComponent</text>
</g>
<!-- ContentComponent&#45;&gt;FwModule -->
<g id="edge2" class="edge">
<title>ContentComponent&#45;&gt;FwModule</title>
<path fill="none" stroke="#000000" d="M2574,-122.0267C2574,-142.7672 2574,-174 2574,-174 2574,-174 1569.7257,-174 1569.7257,-174"/>
<polygon fill="#000000" stroke="#000000" points="1569.7257,-170.5001 1559.7257,-174 1569.7256,-177.5001 1569.7257,-170.5001"/>
</g>
<!-- TitleBarComponent -->
<g id="node3" class="node">
<title>TitleBarComponent</title>
<polygon fill="#ffffb3" stroke="#000000" points="2492.9832,-122 2365.0168,-122 2365.0168,-86 2492.9832,-86 2492.9832,-122"/>
<text text-anchor="middle" x="2429" y="-99.8" font-family="Times,serif" font-size="14.00" fill="#000000">TitleBarComponent</text>
</g>
<!-- TitleBarComponent&#45;&gt;FwModule -->
<g id="edge3" class="edge">
<title>TitleBarComponent&#45;&gt;FwModule</title>
<path fill="none" stroke="#000000" d="M2429,-122.308C2429,-142.1455 2429,-171 2429,-171 2429,-171 1569.7252,-171 1569.7252,-171"/>
<polygon fill="#000000" stroke="#000000" points="1569.7252,-167.5001 1559.7252,-171 1569.7251,-174.5001 1569.7252,-167.5001"/>
</g>
<!-- TopBarComponent -->
<g id="node4" class="node">
<title>TopBarComponent</title>
<polygon fill="#ffffb3" stroke="#000000" points="2347.0968,-122 2222.9032,-122 2222.9032,-86 2347.0968,-86 2347.0968,-122"/>
<text text-anchor="middle" x="2285" y="-99.8" font-family="Times,serif" font-size="14.00" fill="#000000">TopBarComponent</text>
</g>
<!-- TopBarComponent&#45;&gt;FwModule -->
<g id="edge4" class="edge">
<title>TopBarComponent&#45;&gt;FwModule</title>
<path fill="none" stroke="#000000" d="M2285,-122.1686C2285,-141.0898 2285,-168 2285,-168 2285,-168 1569.9372,-168 1569.9372,-168"/>
<polygon fill="#000000" stroke="#000000" points="1569.9373,-164.5001 1559.9372,-168 1569.9372,-171.5001 1569.9373,-164.5001"/>
</g>
<!-- StatusBarComponent -->
<g id="node5" class="node">
<title>StatusBarComponent</title>
<polygon fill="#ffffb3" stroke="#000000" points="2204.7674,-122 2069.2326,-122 2069.2326,-86 2204.7674,-86 2204.7674,-122"/>
<text text-anchor="middle" x="2137" y="-99.8" font-family="Times,serif" font-size="14.00" fill="#000000">StatusBarComponent</text>
</g>
<!-- StatusBarComponent&#45;&gt;FwModule -->
<g id="edge5" class="edge">
<title>StatusBarComponent&#45;&gt;FwModule</title>
<path fill="none" stroke="#000000" d="M2137,-122.302C2137,-140.2699 2137,-165 2137,-165 2137,-165 1570.0009,-165 1570.0009,-165"/>
<polygon fill="#000000" stroke="#000000" points="1570.0009,-161.5001 1560.0009,-165 1570.0008,-168.5001 1570.0009,-161.5001"/>
</g>
<!-- ScreenLarge -->
<g id="node6" class="node">
<title>ScreenLarge</title>
<polygon fill="#ffffb3" stroke="#000000" points="2051.2298,-122 1964.7702,-122 1964.7702,-86 2051.2298,-86 2051.2298,-122"/>
<text text-anchor="middle" x="2008" y="-99.8" font-family="Times,serif" font-size="14.00" fill="#000000">ScreenLarge</text>
</g>
<!-- ScreenLarge&#45;&gt;FwModule -->
<g id="edge6" class="edge">
<title>ScreenLarge&#45;&gt;FwModule</title>
<path fill="none" stroke="#000000" d="M2008,-122.0352C2008,-138.7344 2008,-161 2008,-161 2008,-161 1570.03,-161 1570.03,-161"/>
<polygon fill="#000000" stroke="#000000" points="1570.0301,-157.5001 1560.03,-161 1570.03,-164.5001 1570.0301,-157.5001"/>
</g>
<!-- ScreenBelowLarge -->
<g id="node7" class="node">
<title>ScreenBelowLarge</title>
<polygon fill="#ffffb3" stroke="#000000" points="1946.7781,-122 1823.2219,-122 1823.2219,-86 1946.7781,-86 1946.7781,-122"/>
<text text-anchor="middle" x="1885" y="-99.8" font-family="Times,serif" font-size="14.00" fill="#000000">ScreenBelowLarge</text>
</g>
<!-- ScreenBelowLarge&#45;&gt;FwModule -->
<g id="edge7" class="edge">
<title>ScreenBelowLarge&#45;&gt;FwModule</title>
<path fill="none" stroke="#000000" d="M1885,-122.2819C1885,-137.9478 1885,-158 1885,-158 1885,-158 1569.9544,-158 1569.9544,-158"/>
<polygon fill="#000000" stroke="#000000" points="1569.9544,-154.5001 1559.9544,-158 1569.9543,-161.5001 1569.9544,-154.5001"/>
</g>
<!-- MenuComponent -->
<g id="node8" class="node">
<title>MenuComponent</title>
<polygon fill="#ffffb3" stroke="#000000" points="1804.9916,-122 1691.0084,-122 1691.0084,-86 1804.9916,-86 1804.9916,-122"/>
<text text-anchor="middle" x="1748" y="-99.8" font-family="Times,serif" font-size="14.00" fill="#000000">MenuComponent</text>
</g>
<!-- MenuComponent&#45;&gt;FwModule -->
<g id="edge8" class="edge">
<title>MenuComponent&#45;&gt;FwModule</title>
<path fill="none" stroke="#000000" d="M1727.1229,-122.1243C1727.1229,-136.7832 1727.1229,-155 1727.1229,-155 1727.1229,-155 1569.7701,-155 1569.7701,-155"/>
<polygon fill="#000000" stroke="#000000" points="1569.7702,-151.5001 1559.7701,-155 1569.7701,-158.5001 1569.7702,-151.5001"/>
</g>
<!-- MenuItemComponent -->
<g id="node9" class="node">
<title>MenuItemComponent</title>
<polygon fill="#ffffb3" stroke="#000000" points="1672.6484,-122 1533.3516,-122 1533.3516,-86 1672.6484,-86 1672.6484,-122"/>
<text text-anchor="middle" x="1603" y="-99.8" font-family="Times,serif" font-size="14.00" fill="#000000">MenuItemComponent</text>
</g>
<!-- MenuItemComponent&#45;&gt;FwModule -->
<g id="edge9" class="edge">
<title>MenuItemComponent&#45;&gt;FwModule</title>
<path fill="none" stroke="#000000" d="M1546.4477,-122.1061C1546.4477,-122.1061 1546.4477,-140.991 1546.4477,-140.991"/>
<polygon fill="#000000" stroke="#000000" points="1542.9478,-140.9909 1546.4477,-150.991 1549.9478,-140.991 1542.9478,-140.9909"/>
</g>
<!-- PopupMenuComponent -->
<g id="node10" class="node">
<title>PopupMenuComponent</title>
<polygon fill="#ffffb3" stroke="#000000" points="1514.7744,-122 1365.2256,-122 1365.2256,-86 1514.7744,-86 1514.7744,-122"/>
<text text-anchor="middle" x="1440" y="-99.8" font-family="Times,serif" font-size="14.00" fill="#000000">PopupMenuComponent</text>
</g>
<!-- PopupMenuComponent&#45;&gt;FwModule -->
<g id="edge10" class="edge">
<title>PopupMenuComponent&#45;&gt;FwModule</title>
<path fill="none" stroke="#000000" d="M1498.5838,-122.1061C1498.5838,-122.1061 1498.5838,-140.991 1498.5838,-140.991"/>
<polygon fill="#000000" stroke="#000000" points="1495.0839,-140.9909 1498.5838,-150.991 1502.0839,-140.991 1495.0839,-140.9909"/>
</g>
<!-- SignInComponent -->
<g id="node11" class="node">
<title>SignInComponent</title>
<polygon fill="#ffffb3" stroke="#000000" points="1347.1667,-122 1228.8333,-122 1228.8333,-86 1347.1667,-86 1347.1667,-122"/>
<text text-anchor="middle" x="1288" y="-99.8" font-family="Times,serif" font-size="14.00" fill="#000000">SignInComponent</text>
</g>
<!-- SignInComponent&#45;&gt;FwModule -->
<g id="edge11" class="edge">
<title>SignInComponent&#45;&gt;FwModule</title>
<path fill="none" stroke="#000000" d="M1341.861,-122.1243C1341.861,-136.7832 1341.861,-155 1341.861,-155 1341.861,-155 1472.1295,-155 1472.1295,-155"/>
<polygon fill="#000000" stroke="#000000" points="1472.1295,-158.5001 1482.1295,-155 1472.1295,-151.5001 1472.1295,-158.5001"/>
</g>
<!-- RegisterUserComponent -->
<g id="node12" class="node">
<title>RegisterUserComponent</title>
<polygon fill="#ffffb3" stroke="#000000" points="1210.4115,-122 1055.5885,-122 1055.5885,-86 1210.4115,-86 1210.4115,-122"/>
<text text-anchor="middle" x="1133" y="-99.8" font-family="Times,serif" font-size="14.00" fill="#000000">RegisterUserComponent</text>
</g>
<!-- RegisterUserComponent&#45;&gt;FwModule -->
<g id="edge12" class="edge">
<title>RegisterUserComponent&#45;&gt;FwModule</title>
<path fill="none" stroke="#000000" d="M1132.7028,-122.2819C1132.7028,-137.9478 1132.7028,-158 1132.7028,-158 1132.7028,-158 1471.9907,-158 1471.9907,-158"/>
<polygon fill="#000000" stroke="#000000" points="1471.9908,-161.5001 1481.9907,-158 1471.9907,-154.5001 1471.9908,-161.5001"/>
</g>
<!-- DynamicFormComponent -->
<g id="node13" class="node">
<title>DynamicFormComponent</title>
<polygon fill="#ffffb3" stroke="#000000" points="1037.4832,-122 874.5168,-122 874.5168,-86 1037.4832,-86 1037.4832,-122"/>
<text text-anchor="middle" x="956" y="-99.8" font-family="Times,serif" font-size="14.00" fill="#000000">DynamicFormComponent</text>
</g>
<!-- DynamicFormComponent&#45;&gt;FwModule -->
<g id="edge13" class="edge">
<title>DynamicFormComponent&#45;&gt;FwModule</title>
<path fill="none" stroke="#000000" d="M956,-122.0352C956,-138.7344 956,-161 956,-161 956,-161 1472.1653,-161 1472.1653,-161"/>
<polygon fill="#000000" stroke="#000000" points="1472.1653,-164.5001 1482.1653,-161 1472.1652,-157.5001 1472.1653,-164.5001"/>
</g>
<!-- DynamicFieldComponent -->
<g id="node14" class="node">
<title>DynamicFieldComponent</title>
<polygon fill="#ffffb3" stroke="#000000" points="856.9284,-122 695.0716,-122 695.0716,-86 856.9284,-86 856.9284,-122"/>
<text text-anchor="middle" x="776" y="-99.8" font-family="Times,serif" font-size="14.00" fill="#000000">DynamicFieldComponent</text>
</g>
<!-- DynamicFieldComponent&#45;&gt;FwModule -->
<g id="edge14" class="edge">
<title>DynamicFieldComponent&#45;&gt;FwModule</title>
<path fill="none" stroke="#000000" d="M776,-122.302C776,-140.2699 776,-165 776,-165 776,-165 1472.2548,-165 1472.2548,-165"/>
<polygon fill="#000000" stroke="#000000" points="1472.2548,-168.5001 1482.2548,-165 1472.2548,-161.5001 1472.2548,-168.5001"/>
</g>
<!-- PanelComponent -->
<g id="node15" class="node">
<title>PanelComponent</title>
<polygon fill="#ffffb3" stroke="#000000" points="677.4356,-122 564.5644,-122 564.5644,-86 677.4356,-86 677.4356,-122"/>
<text text-anchor="middle" x="621" y="-99.8" font-family="Times,serif" font-size="14.00" fill="#000000">PanelComponent</text>
</g>
<!-- PanelComponent&#45;&gt;FwModule -->
<g id="edge15" class="edge">
<title>PanelComponent&#45;&gt;FwModule</title>
<path fill="none" stroke="#000000" d="M621,-122.1686C621,-141.0898 621,-168 621,-168 621,-168 1472.0393,-168 1472.0393,-168"/>
<polygon fill="#000000" stroke="#000000" points="1472.0393,-171.5001 1482.0393,-168 1472.0392,-164.5001 1472.0393,-171.5001"/>
</g>
<!-- FrameworkBodyComponent  -->
<g id="node17" class="node">
<title>FrameworkBodyComponent </title>
<polygon fill="#fb8072" stroke="#000000" points="1960.6995,-252 1781.3005,-252 1781.3005,-216 1960.6995,-216 1960.6995,-252"/>
<text text-anchor="middle" x="1871" y="-229.8" font-family="Times,serif" font-size="14.00" fill="#000000">FrameworkBodyComponent </text>
</g>
<!-- FwModule&#45;&gt;FrameworkBodyComponent  -->
<g id="edge16" class="edge">
<title>FwModule&#45;&gt;FrameworkBodyComponent </title>
<path fill="none" stroke="#000000" stroke-dasharray="5,2" d="M1559.9814,-181C1635.2121,-181 1793.0731,-181 1793.0731,-181 1793.0731,-181 1793.0731,-205.7604 1793.0731,-205.7604"/>
<polygon fill="#000000" stroke="#000000" points="1789.5732,-205.7604 1793.0731,-215.7604 1796.5732,-205.7604 1789.5732,-205.7604"/>
</g>
<!-- DynamicFormComponent  -->
<g id="node18" class="node">
<title>DynamicFormComponent </title>
<polygon fill="#fb8072" stroke="#000000" points="1763.4839,-252 1596.5161,-252 1596.5161,-216 1763.4839,-216 1763.4839,-252"/>
<text text-anchor="middle" x="1680" y="-229.8" font-family="Times,serif" font-size="14.00" fill="#000000">DynamicFormComponent </text>
</g>
<!-- FwModule&#45;&gt;DynamicFormComponent  -->
<g id="edge17" class="edge">
<title>FwModule&#45;&gt;DynamicFormComponent </title>
<path fill="none" stroke="#000000" stroke-dasharray="5,2" d="M1559.8422,-184C1592.8066,-184 1634.7912,-184 1634.7912,-184 1634.7912,-184 1634.7912,-205.9489 1634.7912,-205.9489"/>
<polygon fill="#000000" stroke="#000000" points="1631.2913,-205.9488 1634.7912,-215.9489 1638.2913,-205.9489 1631.2913,-205.9488"/>
</g>
<!-- PanelComponent  -->
<g id="node19" class="node">
<title>PanelComponent </title>
<polygon fill="#fb8072" stroke="#000000" points="1578.9348,-252 1463.0652,-252 1463.0652,-216 1578.9348,-216 1578.9348,-252"/>
<text text-anchor="middle" x="1521" y="-229.8" font-family="Times,serif" font-size="14.00" fill="#000000">PanelComponent </text>
</g>
<!-- FwModule&#45;&gt;PanelComponent  -->
<g id="edge18" class="edge">
<title>FwModule&#45;&gt;PanelComponent </title>
<path fill="none" stroke="#000000" stroke-dasharray="5,2" d="M1521,-187.1061C1521,-187.1061 1521,-205.991 1521,-205.991"/>
<polygon fill="#000000" stroke="#000000" points="1517.5001,-205.9909 1521,-215.991 1524.5001,-205.991 1517.5001,-205.9909"/>
</g>
<!-- ScreenLarge  -->
<g id="node20" class="node">
<title>ScreenLarge </title>
<polygon fill="#fb8072" stroke="#000000" points="1445.2297,-252 1354.7703,-252 1354.7703,-216 1445.2297,-216 1445.2297,-252"/>
<text text-anchor="middle" x="1400" y="-229.8" font-family="Times,serif" font-size="14.00" fill="#000000">ScreenLarge </text>
</g>
<!-- FwModule&#45;&gt;ScreenLarge  -->
<g id="edge19" class="edge">
<title>FwModule&#45;&gt;ScreenLarge </title>
<path fill="none" stroke="#000000" stroke-dasharray="5,2" d="M1482.0892,-184C1448.423,-184 1405.1138,-184 1405.1138,-184 1405.1138,-184 1405.1138,-205.9489 1405.1138,-205.9489"/>
<polygon fill="#000000" stroke="#000000" points="1401.6139,-205.9488 1405.1138,-215.9489 1408.6139,-205.9489 1401.6139,-205.9488"/>
</g>
<!-- ScreenBelowLarge  -->
<g id="node21" class="node">
<title>ScreenBelowLarge </title>
<polygon fill="#fb8072" stroke="#000000" points="1336.278,-252 1209.722,-252 1209.722,-216 1336.278,-216 1336.278,-252"/>
<text text-anchor="middle" x="1273" y="-229.8" font-family="Times,serif" font-size="14.00" fill="#000000">ScreenBelowLarge </text>
</g>
<!-- FwModule&#45;&gt;ScreenBelowLarge  -->
<g id="edge20" class="edge">
<title>FwModule&#45;&gt;ScreenBelowLarge </title>
<path fill="none" stroke="#000000" stroke-dasharray="5,2" d="M1482.1546,-181C1414.5807,-181 1282.5279,-181 1282.5279,-181 1282.5279,-181 1282.5279,-205.7604 1282.5279,-205.7604"/>
<polygon fill="#000000" stroke="#000000" points="1279.028,-205.7604 1282.5279,-215.7604 1286.028,-205.7604 1279.028,-205.7604"/>
</g>
<!-- FrameworkConfigService -->
<g id="node22" class="node">
<title>FrameworkConfigService</title>
<ellipse fill="#fdb462" stroke="#000000" cx="430" cy="-104" rx="111.1557" ry="18"/>
<text text-anchor="middle" x="430" y="-99.8" font-family="Times,serif" font-size="14.00" fill="#000000">FrameworkConfigService</text>
</g>
<!-- FrameworkConfigService&#45;&gt;FwModule -->
<g id="edge21" class="edge">
<title>FrameworkConfigService&#45;&gt;FwModule</title>
<path fill="none" stroke="#000000" d="M430,-122.308C430,-142.1455 430,-171 430,-171 430,-171 1472.1707,-171 1472.1707,-171"/>
<polygon fill="#000000" stroke="#000000" points="1472.1708,-174.5001 1482.1707,-171 1472.1707,-167.5001 1472.1708,-174.5001"/>
</g>
<!-- ScreenService -->
<g id="node23" class="node">
<title>ScreenService</title>
<ellipse fill="#fdb462" stroke="#000000" cx="234" cy="-104" rx="66.0281" ry="18"/>
<text text-anchor="middle" x="234" y="-99.8" font-family="Times,serif" font-size="14.00" fill="#000000">ScreenService</text>
</g>
<!-- ScreenService&#45;&gt;FwModule -->
<g id="edge22" class="edge">
<title>ScreenService&#45;&gt;FwModule</title>
<path fill="none" stroke="#000000" d="M234,-122.0267C234,-142.7672 234,-174 234,-174 234,-174 1472.132,-174 1472.132,-174"/>
<polygon fill="#000000" stroke="#000000" points="1472.132,-177.5001 1482.132,-174 1472.132,-170.5001 1472.132,-177.5001"/>
</g>
<!-- MenuService -->
<g id="node24" class="node">
<title>MenuService</title>
<ellipse fill="#fdb462" stroke="#000000" cx="87" cy="-104" rx="62.5392" ry="18"/>
<text text-anchor="middle" x="87" y="-99.8" font-family="Times,serif" font-size="14.00" fill="#000000">MenuService</text>
</g>
<!-- MenuService&#45;&gt;FwModule -->
<g id="edge23" class="edge">
<title>MenuService&#45;&gt;FwModule</title>
<path fill="none" stroke="#000000" d="M87,-122.2921C87,-144.2057 87,-178 87,-178 87,-178 1472.2729,-178 1472.2729,-178"/>
<polygon fill="#000000" stroke="#000000" points="1472.273,-181.5001 1482.2729,-178 1472.2729,-174.5001 1472.273,-181.5001"/>
</g>
</g>
</svg>
