<?xml version="1.0" encoding="UTF-8" standalone="no"?>
<!DOCTYPE svg PUBLIC "-//W3C//DTD SVG 1.1//EN"
 "http://www.w3.org/Graphics/SVG/1.1/DTD/svg11.dtd">
<!-- Generated by graphviz version 2.40.1 (20161225.0304)
 -->
<!-- Title: dependencies Pages: 1 -->
<svg width="2502pt" height="284pt"
 viewBox="0.00 0.00 2502.00 284.00" xmlns="http://www.w3.org/2000/svg" xmlns:xlink="http://www.w3.org/1999/xlink">
<g id="graph0" class="graph" transform="scale(1 1) rotate(0) translate(4 280)">
<title>dependencies</title>
<polygon fill="#ffffff" stroke="transparent" points="-4,4 -4,-280 2498,-280 2498,4 -4,4"/>
<text text-anchor="start" x="1226.0091" y="-42.4" font-family="sans-serif" font-weight="bold" font-size="14.00" fill="#000000">Legend</text>
<polygon fill="#ffffb3" stroke="transparent" points="1013,-10 1013,-30 1033,-30 1033,-10 1013,-10"/>
<text text-anchor="start" x="1036.629" y="-15.4" font-family="sans-serif" font-size="14.00" fill="#000000"> &#160;Declarations</text>
<polygon fill="#8dd3c7" stroke="transparent" points="1126,-10 1126,-30 1146,-30 1146,-10 1126,-10"/>
<text text-anchor="start" x="1149.7251" y="-15.4" font-family="sans-serif" font-size="14.00" fill="#000000"> &#160;Module</text>
<polygon fill="#80b1d3" stroke="transparent" points="1212,-10 1212,-30 1232,-30 1232,-10 1212,-10"/>
<text text-anchor="start" x="1235.7812" y="-15.4" font-family="sans-serif" font-size="14.00" fill="#000000"> &#160;Bootstrap</text>
<polygon fill="#fdb462" stroke="transparent" points="1309,-10 1309,-30 1329,-30 1329,-10 1309,-10"/>
<text text-anchor="start" x="1332.6732" y="-15.4" font-family="sans-serif" font-size="14.00" fill="#000000"> &#160;Providers</text>
<polygon fill="#fb8072" stroke="transparent" points="1405,-10 1405,-30 1425,-30 1425,-10 1405,-10"/>
<text text-anchor="start" x="1428.7258" y="-15.4" font-family="sans-serif" font-size="14.00" fill="#000000"> &#160;Exports</text>
<g id="clust1" class="cluster">
<title>cluster_FwModule</title>
<polygon fill="none" stroke="#000000" stroke-dasharray="1,5" points="8,-70 8,-268 2486,-268 2486,-70 8,-70"/>
</g>
<g id="clust2" class="cluster">
<title>cluster_FwModule_declarations</title>
<polygon fill="none" stroke="#000000" points="557,-78 557,-130 2478,-130 2478,-78 557,-78"/>
</g>
<g id="clust17" class="cluster">
<title>cluster_FwModule_exports</title>
<polygon fill="none" stroke="#000000" points="1056,-208 1056,-260 1639,-260 1639,-208 1056,-208"/>
</g>
<g id="clust19" class="cluster">
<title>cluster_FwModule_providers</title>
<polygon fill="none" stroke="#000000" points="16,-78 16,-130 549,-130 549,-78 16,-78"/>
</g>
<!-- FrameworkBodyComponent -->
<g id="node1" class="node">
<title>FrameworkBodyComponent</title>
<polygon fill="#ffffb3" stroke="#000000" points="2470.1993,-122 2293.8007,-122 2293.8007,-86 2470.1993,-86 2470.1993,-122"/>
<text text-anchor="middle" x="2382" y="-99.8" font-family="Times,serif" font-size="14.00" fill="#000000">FrameworkBodyComponent</text>
</g>
<!-- FwModule -->
<g id="node14" class="node">
<title>FwModule</title>
<polygon fill="#8dd3c7" stroke="#000000" points="1352.9403,-187 1349.9403,-191 1328.9403,-191 1325.9403,-187 1275.0597,-187 1275.0597,-151 1352.9403,-151 1352.9403,-187"/>
<text text-anchor="middle" x="1314" y="-164.8" font-family="Times,serif" font-size="14.00" fill="#000000">FwModule</text>
</g>
<!-- FrameworkBodyComponent&#45;&gt;FwModule -->
<g id="edge1" class="edge">
<title>FrameworkBodyComponent&#45;&gt;FwModule</title>
<path fill="none" stroke="#000000" d="M2382,-122.1554C2382,-144.3519 2382,-179 2382,-179 2382,-179 1362.9589,-179 1362.9589,-179"/>
<polygon fill="#000000" stroke="#000000" points="1362.9589,-175.5001 1352.9589,-179 1362.9588,-182.5001 1362.9589,-175.5001"/>
</g>
<!-- ContentComponent -->
<g id="node2" class="node">
<title>ContentComponent</title>
<polygon fill="#ffffb3" stroke="#000000" points="2275.6652,-122 2150.3348,-122 2150.3348,-86 2275.6652,-86 2275.6652,-122"/>
<text text-anchor="middle" x="2213" y="-99.8" font-family="Times,serif" font-size="14.00" fill="#000000">ContentComponent</text>
</g>
<!-- ContentComponent&#45;&gt;FwModule -->
<g id="edge2" class="edge">
<title>ContentComponent&#45;&gt;FwModule</title>
<path fill="none" stroke="#000000" d="M2213,-122.2843C2213,-143.3211 2213,-175 2213,-175 2213,-175 1362.9175,-175 1362.9175,-175"/>
<polygon fill="#000000" stroke="#000000" points="1362.9175,-171.5001 1352.9175,-175 1362.9174,-178.5001 1362.9175,-171.5001"/>
</g>
<!-- TitleBarComponent -->
<g id="node3" class="node">
<title>TitleBarComponent</title>
<polygon fill="#ffffb3" stroke="#000000" points="2131.9832,-122 2004.0168,-122 2004.0168,-86 2131.9832,-86 2131.9832,-122"/>
<text text-anchor="middle" x="2068" y="-99.8" font-family="Times,serif" font-size="14.00" fill="#000000">TitleBarComponent</text>
</g>
<!-- TitleBarComponent&#45;&gt;FwModule -->
<g id="edge3" class="edge">
<title>TitleBarComponent&#45;&gt;FwModule</title>
<path fill="none" stroke="#000000" d="M2068,-122.308C2068,-142.1455 2068,-171 2068,-171 2068,-171 1362.9506,-171 1362.9506,-171"/>
<polygon fill="#000000" stroke="#000000" points="1362.9506,-167.5001 1352.9506,-171 1362.9505,-174.5001 1362.9506,-167.5001"/>
</g>
<!-- TopBarComponent -->
<g id="node4" class="node">
<title>TopBarComponent</title>
<polygon fill="#ffffb3" stroke="#000000" points="1986.0968,-122 1861.9032,-122 1861.9032,-86 1986.0968,-86 1986.0968,-122"/>
<text text-anchor="middle" x="1924" y="-99.8" font-family="Times,serif" font-size="14.00" fill="#000000">TopBarComponent</text>
</g>
<!-- TopBarComponent&#45;&gt;FwModule -->
<g id="edge4" class="edge">
<title>TopBarComponent&#45;&gt;FwModule</title>
<path fill="none" stroke="#000000" d="M1924,-122.2222C1924,-140.8285 1924,-167 1924,-167 1924,-167 1363.0862,-167 1363.0862,-167"/>
<polygon fill="#000000" stroke="#000000" points="1363.0862,-163.5001 1353.0862,-167 1363.0862,-170.5001 1363.0862,-163.5001"/>
</g>
<!-- StatusBarComponent -->
<g id="node5" class="node">
<title>StatusBarComponent</title>
<polygon fill="#ffffb3" stroke="#000000" points="1843.7674,-122 1708.2326,-122 1708.2326,-86 1843.7674,-86 1843.7674,-122"/>
<text text-anchor="middle" x="1776" y="-99.8" font-family="Times,serif" font-size="14.00" fill="#000000">StatusBarComponent</text>
</g>
<!-- StatusBarComponent&#45;&gt;FwModule -->
<g id="edge5" class="edge">
<title>StatusBarComponent&#45;&gt;FwModule</title>
<path fill="none" stroke="#000000" d="M1776,-122.0225C1776,-139.3734 1776,-163 1776,-163 1776,-163 1362.9917,-163 1362.9917,-163"/>
<polygon fill="#000000" stroke="#000000" points="1362.9917,-159.5001 1352.9917,-163 1362.9917,-166.5001 1362.9917,-159.5001"/>
</g>
<!-- ScreenLarge -->
<g id="node6" class="node">
<title>ScreenLarge</title>
<polygon fill="#ffffb3" stroke="#000000" points="1690.2298,-122 1603.7702,-122 1603.7702,-86 1690.2298,-86 1690.2298,-122"/>
<text text-anchor="middle" x="1647" y="-99.8" font-family="Times,serif" font-size="14.00" fill="#000000">ScreenLarge</text>
</g>
<!-- ScreenLarge&#45;&gt;FwModule -->
<g id="edge6" class="edge">
<title>ScreenLarge&#45;&gt;FwModule</title>
<path fill="none" stroke="#000000" d="M1617.2425,-122.0091C1617.2425,-138.0494 1617.2425,-159 1617.2425,-159 1617.2425,-159 1363.0228,-159 1363.0228,-159"/>
<polygon fill="#000000" stroke="#000000" points="1363.0229,-155.5001 1353.0228,-159 1363.0228,-162.5001 1363.0229,-155.5001"/>
</g>
<!-- ScreenBelowLarge -->
<g id="node7" class="node">
<title>ScreenBelowLarge</title>
<polygon fill="#ffffb3" stroke="#000000" points="1585.7781,-122 1462.2219,-122 1462.2219,-86 1585.7781,-86 1585.7781,-122"/>
<text text-anchor="middle" x="1524" y="-99.8" font-family="Times,serif" font-size="14.00" fill="#000000">ScreenBelowLarge</text>
</g>
<!-- ScreenBelowLarge&#45;&gt;FwModule -->
<g id="edge7" class="edge">
<title>ScreenBelowLarge&#45;&gt;FwModule</title>
<path fill="none" stroke="#000000" d="M1524,-122.1243C1524,-136.7832 1524,-155 1524,-155 1524,-155 1363.0072,-155 1363.0072,-155"/>
<polygon fill="#000000" stroke="#000000" points="1363.0073,-151.5001 1353.0072,-155 1363.0072,-158.5001 1363.0073,-151.5001"/>
</g>
<!-- MenuComponent -->
<g id="node8" class="node">
<title>MenuComponent</title>
<polygon fill="#ffffb3" stroke="#000000" points="1443.9916,-122 1330.0084,-122 1330.0084,-86 1443.9916,-86 1443.9916,-122"/>
<text text-anchor="middle" x="1387" y="-99.8" font-family="Times,serif" font-size="14.00" fill="#000000">MenuComponent</text>
</g>
<!-- MenuComponent&#45;&gt;FwModule -->
<g id="edge8" class="edge">
<title>MenuComponent&#45;&gt;FwModule</title>
<path fill="none" stroke="#000000" d="M1341.3619,-122.1061C1341.3619,-122.1061 1341.3619,-140.991 1341.3619,-140.991"/>
<polygon fill="#000000" stroke="#000000" points="1337.8619,-140.9909 1341.3619,-150.991 1344.8619,-140.991 1337.8619,-140.9909"/>
</g>
<!-- MenuItemComponent -->
<g id="node9" class="node">
<title>MenuItemComponent</title>
<polygon fill="#ffffb3" stroke="#000000" points="1311.6484,-122 1172.3516,-122 1172.3516,-86 1311.6484,-86 1311.6484,-122"/>
<text text-anchor="middle" x="1242" y="-99.8" font-family="Times,serif" font-size="14.00" fill="#000000">MenuItemComponent</text>
</g>
<!-- MenuItemComponent&#45;&gt;FwModule -->
<g id="edge9" class="edge">
<title>MenuItemComponent&#45;&gt;FwModule</title>
<path fill="none" stroke="#000000" d="M1293.5523,-122.1061C1293.5523,-122.1061 1293.5523,-140.991 1293.5523,-140.991"/>
<polygon fill="#000000" stroke="#000000" points="1290.0523,-140.9909 1293.5523,-150.991 1297.0523,-140.991 1290.0523,-140.9909"/>
</g>
<!-- PopupMenuComponent -->
<g id="node10" class="node">
<title>PopupMenuComponent</title>
<polygon fill="#ffffb3" stroke="#000000" points="1153.7744,-122 1004.2256,-122 1004.2256,-86 1153.7744,-86 1153.7744,-122"/>
<text text-anchor="middle" x="1079" y="-99.8" font-family="Times,serif" font-size="14.00" fill="#000000">PopupMenuComponent</text>
</g>
<!-- PopupMenuComponent&#45;&gt;FwModule -->
<g id="edge10" class="edge">
<title>PopupMenuComponent&#45;&gt;FwModule</title>
<path fill="none" stroke="#000000" d="M1108.7491,-122.1243C1108.7491,-136.7832 1108.7491,-155 1108.7491,-155 1108.7491,-155 1264.9108,-155 1264.9108,-155"/>
<polygon fill="#000000" stroke="#000000" points="1264.9108,-158.5001 1274.9108,-155 1264.9107,-151.5001 1264.9108,-158.5001"/>
</g>
<!-- SignInComponent -->
<g id="node11" class="node">
<title>SignInComponent</title>
<polygon fill="#ffffb3" stroke="#000000" points="986.1667,-122 867.8333,-122 867.8333,-86 986.1667,-86 986.1667,-122"/>
<text text-anchor="middle" x="927" y="-99.8" font-family="Times,serif" font-size="14.00" fill="#000000">SignInComponent</text>
</g>
<!-- SignInComponent&#45;&gt;FwModule -->
<g id="edge11" class="edge">
<title>SignInComponent&#45;&gt;FwModule</title>
<path fill="none" stroke="#000000" d="M927,-122.0091C927,-138.0494 927,-159 927,-159 927,-159 1265.1211,-159 1265.1211,-159"/>
<polygon fill="#000000" stroke="#000000" points="1265.1211,-162.5001 1275.1211,-159 1265.121,-155.5001 1265.1211,-162.5001"/>
</g>
<!-- RegisterUserComponent -->
<g id="node12" class="node">
<title>RegisterUserComponent</title>
<polygon fill="#ffffb3" stroke="#000000" points="849.4115,-122 694.5885,-122 694.5885,-86 849.4115,-86 849.4115,-122"/>
<text text-anchor="middle" x="772" y="-99.8" font-family="Times,serif" font-size="14.00" fill="#000000">RegisterUserComponent</text>
</g>
<!-- RegisterUserComponent&#45;&gt;FwModule -->
<g id="edge12" class="edge">
<title>RegisterUserComponent&#45;&gt;FwModule</title>
<path fill="none" stroke="#000000" d="M772,-122.0225C772,-139.3734 772,-163 772,-163 772,-163 1265.0207,-163 1265.0207,-163"/>
<polygon fill="#000000" stroke="#000000" points="1265.0207,-166.5001 1275.0207,-163 1265.0207,-159.5001 1265.0207,-166.5001"/>
</g>
<!-- PanelComponent -->
<g id="node13" class="node">
<title>PanelComponent</title>
<polygon fill="#ffffb3" stroke="#000000" points="677.4356,-122 564.5644,-122 564.5644,-86 677.4356,-86 677.4356,-122"/>
<text text-anchor="middle" x="621" y="-99.8" font-family="Times,serif" font-size="14.00" fill="#000000">PanelComponent</text>
</g>
<!-- PanelComponent&#45;&gt;FwModule -->
<g id="edge13" class="edge">
<title>PanelComponent&#45;&gt;FwModule</title>
<path fill="none" stroke="#000000" d="M621,-122.2222C621,-140.8285 621,-167 621,-167 621,-167 1265.2564,-167 1265.2564,-167"/>
<polygon fill="#000000" stroke="#000000" points="1265.2564,-170.5001 1275.2564,-167 1265.2563,-163.5001 1265.2564,-170.5001"/>
</g>
<!-- FrameworkBodyComponent  -->
<g id="node15" class="node">
<title>FrameworkBodyComponent </title>
<polygon fill="#fb8072" stroke="#000000" points="1630.6995,-252 1451.3005,-252 1451.3005,-216 1630.6995,-216 1630.6995,-252"/>
<text text-anchor="middle" x="1541" y="-229.8" font-family="Times,serif" font-size="14.00" fill="#000000">FrameworkBodyComponent </text>
</g>
<!-- FwModule&#45;&gt;FrameworkBodyComponent  -->
<g id="edge14" class="edge">
<title>FwModule&#45;&gt;FrameworkBodyComponent </title>
<path fill="none" stroke="#000000" stroke-dasharray="5,2" d="M1353.0086,-183C1395.276,-183 1456.7558,-183 1456.7558,-183 1456.7558,-183 1456.7558,-205.8757 1456.7558,-205.8757"/>
<polygon fill="#000000" stroke="#000000" points="1453.2558,-205.8757 1456.7558,-215.8757 1460.2558,-205.8757 1453.2558,-205.8757"/>
</g>
<!-- PanelComponent  -->
<g id="node16" class="node">
<title>PanelComponent </title>
<polygon fill="#fb8072" stroke="#000000" points="1432.9348,-252 1317.0652,-252 1317.0652,-216 1432.9348,-216 1432.9348,-252"/>
<text text-anchor="middle" x="1375" y="-229.8" font-family="Times,serif" font-size="14.00" fill="#000000">PanelComponent </text>
</g>
<!-- FwModule&#45;&gt;PanelComponent  -->
<g id="edge15" class="edge">
<title>FwModule&#45;&gt;PanelComponent </title>
<path fill="none" stroke="#000000" stroke-dasharray="5,2" d="M1334.876,-187.1061C1334.876,-187.1061 1334.876,-205.991 1334.876,-205.991"/>
<polygon fill="#000000" stroke="#000000" points="1331.3761,-205.9909 1334.876,-215.991 1338.3761,-205.991 1331.3761,-205.9909"/>
</g>
<!-- ScreenLarge  -->
<g id="node17" class="node">
<title>ScreenLarge </title>
<polygon fill="#fb8072" stroke="#000000" points="1299.2297,-252 1208.7703,-252 1208.7703,-216 1299.2297,-216 1299.2297,-252"/>
<text text-anchor="middle" x="1254" y="-229.8" font-family="Times,serif" font-size="14.00" fill="#000000">ScreenLarge </text>
</g>
<!-- FwModule&#45;&gt;ScreenLarge  -->
<g id="edge16" class="edge">
<title>FwModule&#45;&gt;ScreenLarge </title>
<path fill="none" stroke="#000000" stroke-dasharray="5,2" d="M1287.1976,-187.1061C1287.1976,-187.1061 1287.1976,-205.991 1287.1976,-205.991"/>
<polygon fill="#000000" stroke="#000000" points="1283.6977,-205.9909 1287.1976,-215.991 1290.6977,-205.991 1283.6977,-205.9909"/>
</g>
<!-- ScreenBelowLarge  -->
<g id="node18" class="node">
<title>ScreenBelowLarge </title>
<polygon fill="#fb8072" stroke="#000000" points="1190.278,-252 1063.722,-252 1063.722,-216 1190.278,-216 1190.278,-252"/>
<text text-anchor="middle" x="1127" y="-229.8" font-family="Times,serif" font-size="14.00" fill="#000000">ScreenBelowLarge </text>
</g>
<!-- FwModule&#45;&gt;ScreenBelowLarge  -->
<g id="edge17" class="edge">
<title>FwModule&#45;&gt;ScreenBelowLarge </title>
<path fill="none" stroke="#000000" stroke-dasharray="5,2" d="M1275.2558,-183C1236.0824,-183 1181.2825,-183 1181.2825,-183 1181.2825,-183 1181.2825,-205.8757 1181.2825,-205.8757"/>
<polygon fill="#000000" stroke="#000000" points="1177.7825,-205.8757 1181.2825,-215.8757 1184.7825,-205.8757 1177.7825,-205.8757"/>
</g>
<!-- FrameworkConfigService -->
<g id="node19" class="node">
<title>FrameworkConfigService</title>
<ellipse fill="#fdb462" stroke="#000000" cx="430" cy="-104" rx="111.1557" ry="18"/>
<text text-anchor="middle" x="430" y="-99.8" font-family="Times,serif" font-size="14.00" fill="#000000">FrameworkConfigService</text>
</g>
<!-- FrameworkConfigService&#45;&gt;FwModule -->
<g id="edge18" class="edge">
<title>FrameworkConfigService&#45;&gt;FwModule</title>
<path fill="none" stroke="#000000" d="M430,-122.308C430,-142.1455 430,-171 430,-171 430,-171 1265.1616,-171 1265.1616,-171"/>
<polygon fill="#000000" stroke="#000000" points="1265.1616,-174.5001 1275.1616,-171 1265.1615,-167.5001 1265.1616,-174.5001"/>
</g>
<!-- ScreenService -->
<g id="node20" class="node">
<title>ScreenService</title>
<ellipse fill="#fdb462" stroke="#000000" cx="234" cy="-104" rx="66.0281" ry="18"/>
<text text-anchor="middle" x="234" y="-99.8" font-family="Times,serif" font-size="14.00" fill="#000000">ScreenService</text>
</g>
<!-- ScreenService&#45;&gt;FwModule -->
<g id="edge19" class="edge">
<title>ScreenService&#45;&gt;FwModule</title>
<path fill="none" stroke="#000000" d="M234,-122.2843C234,-143.3211 234,-175 234,-175 234,-175 1265.2438,-175 1265.2438,-175"/>
<polygon fill="#000000" stroke="#000000" points="1265.2438,-178.5001 1275.2438,-175 1265.2438,-171.5001 1265.2438,-178.5001"/>
</g>
<!-- MenuService -->
<g id="node21" class="node">
<title>MenuService</title>
<ellipse fill="#fdb462" stroke="#000000" cx="87" cy="-104" rx="62.5392" ry="18"/>
<text text-anchor="middle" x="87" y="-99.8" font-family="Times,serif" font-size="14.00" fill="#000000">MenuService</text>
</g>
<!-- MenuService&#45;&gt;FwModule -->
<g id="edge20" class="edge">
<title>MenuService&#45;&gt;FwModule</title>
<path fill="none" stroke="#000000" d="M87,-122.1554C87,-144.3519 87,-179 87,-179 87,-179 1265.2518,-179 1265.2518,-179"/>
<polygon fill="#000000" stroke="#000000" points="1265.2518,-182.5001 1275.2518,-179 1265.2518,-175.5001 1265.2518,-182.5001"/>
</g>
</g>
</svg>
