<?xml version="1.0" encoding="UTF-8" standalone="no"?>
<!DOCTYPE svg PUBLIC "-//W3C//DTD SVG 1.1//EN"
 "http://www.w3.org/Graphics/SVG/1.1/DTD/svg11.dtd">
<!-- Generated by graphviz version 2.40.1 (20161225.0304)
 -->
<!-- Title: dependencies Pages: 1 -->
<svg width="1248pt" height="211pt"
 viewBox="0.00 0.00 1248.00 211.00" xmlns="http://www.w3.org/2000/svg" xmlns:xlink="http://www.w3.org/1999/xlink">
<g id="graph0" class="graph" transform="scale(1 1) rotate(0) translate(4 207)">
<title>dependencies</title>
<polygon fill="#ffffff" stroke="transparent" points="-4,4 -4,-207 1244,-207 1244,4 -4,4"/>
<text text-anchor="start" x="599.0091" y="-42.4" font-family="sans-serif" font-weight="bold" font-size="14.00" fill="#000000">Legend</text>
<polygon fill="#ffffb3" stroke="transparent" points="386,-10 386,-30 406,-30 406,-10 386,-10"/>
<text text-anchor="start" x="409.629" y="-15.4" font-family="sans-serif" font-size="14.00" fill="#000000"> &#160;Declarations</text>
<polygon fill="#8dd3c7" stroke="transparent" points="499,-10 499,-30 519,-30 519,-10 499,-10"/>
<text text-anchor="start" x="522.7251" y="-15.4" font-family="sans-serif" font-size="14.00" fill="#000000"> &#160;Module</text>
<polygon fill="#80b1d3" stroke="transparent" points="585,-10 585,-30 605,-30 605,-10 585,-10"/>
<text text-anchor="start" x="608.7812" y="-15.4" font-family="sans-serif" font-size="14.00" fill="#000000"> &#160;Bootstrap</text>
<polygon fill="#fdb462" stroke="transparent" points="682,-10 682,-30 702,-30 702,-10 682,-10"/>
<text text-anchor="start" x="705.6732" y="-15.4" font-family="sans-serif" font-size="14.00" fill="#000000"> &#160;Providers</text>
<polygon fill="#fb8072" stroke="transparent" points="778,-10 778,-30 798,-30 798,-10 778,-10"/>
<text text-anchor="start" x="801.7258" y="-15.4" font-family="sans-serif" font-size="14.00" fill="#000000"> &#160;Exports</text>
<g id="clust1" class="cluster">
<title>cluster_WorkflowModule</title>
<polygon fill="none" stroke="#000000" stroke-dasharray="1,5" points="8,-70 8,-195 1232,-195 1232,-70 8,-70"/>
</g>
<g id="clust2" class="cluster">
<title>cluster_WorkflowModule_declarations</title>
<polygon fill="none" stroke="#000000" points="844,-78 844,-130 1224,-130 1224,-78 844,-78"/>
</g>
<g id="clust5" class="cluster">
<title>cluster_WorkflowModule_imports</title>
<polygon fill="none" stroke="#000000" points="610,-78 610,-130 836,-130 836,-78 610,-78"/>
</g>
<g id="clust8" class="cluster">
<title>cluster_WorkflowModule_providers</title>
<polygon fill="none" stroke="#000000" points="16,-78 16,-130 602,-130 602,-78 16,-78"/>
</g>
<!-- WorkflowMaintComponent -->
<g id="node1" class="node">
<title>WorkflowMaintComponent</title>
<polygon fill="#ffffb3" stroke="#000000" points="1216.3061,-122 1043.6939,-122 1043.6939,-86 1216.3061,-86 1216.3061,-122"/>
<text text-anchor="middle" x="1130" y="-99.8" font-family="Times,serif" font-size="14.00" fill="#000000">WorkflowMaintComponent</text>
</g>
<!-- WorkflowModule -->
<g id="node3" class="node">
<title>WorkflowModule</title>
<polygon fill="#8dd3c7" stroke="#000000" points="723.5828,-187 720.5828,-191 699.5828,-191 696.5828,-187 606.4172,-187 606.4172,-151 723.5828,-151 723.5828,-187"/>
<text text-anchor="middle" x="665" y="-164.8" font-family="Times,serif" font-size="14.00" fill="#000000">WorkflowModule</text>
</g>
<!-- WorkflowMaintComponent&#45;&gt;WorkflowModule -->
<g id="edge1" class="edge">
<title>WorkflowMaintComponent&#45;&gt;WorkflowModule</title>
<path fill="none" stroke="#000000" d="M1130,-122.2843C1130,-143.3211 1130,-175 1130,-175 1130,-175 733.8926,-175 733.8926,-175"/>
<polygon fill="#000000" stroke="#000000" points="733.8926,-171.5001 723.8926,-175 733.8925,-178.5001 733.8926,-171.5001"/>
</g>
<!-- WorkflowDetailComponent -->
<g id="node2" class="node">
<title>WorkflowDetailComponent</title>
<polygon fill="#ffffb3" stroke="#000000" points="1025.573,-122 852.427,-122 852.427,-86 1025.573,-86 1025.573,-122"/>
<text text-anchor="middle" x="939" y="-99.8" font-family="Times,serif" font-size="14.00" fill="#000000">WorkflowDetailComponent</text>
</g>
<!-- WorkflowDetailComponent&#45;&gt;WorkflowModule -->
<g id="edge2" class="edge">
<title>WorkflowDetailComponent&#45;&gt;WorkflowModule</title>
<path fill="none" stroke="#000000" d="M939,-122.0225C939,-139.3734 939,-163 939,-163 939,-163 733.7799,-163 733.7799,-163"/>
<polygon fill="#000000" stroke="#000000" points="733.7799,-159.5001 723.7799,-163 733.7798,-166.5001 733.7799,-159.5001"/>
</g>
<!-- SharedModule -->
<g id="node4" class="node">
<title>SharedModule</title>
<polygon fill="#8dd3c7" stroke="#000000" points="828.4231,-122 825.4231,-126 804.4231,-126 801.4231,-122 729.5769,-122 729.5769,-86 828.4231,-86 828.4231,-122"/>
<text text-anchor="middle" x="779" y="-99.8" font-family="Times,serif" font-size="14.00" fill="#000000">SharedModule</text>
</g>
<!-- SharedModule&#45;&gt;WorkflowModule -->
<g id="edge3" class="edge">
<title>SharedModule&#45;&gt;WorkflowModule</title>
<path fill="none" stroke="#000000" d="M729.6861,-104C722.7393,-104 717.9068,-104 717.9068,-104 717.9068,-104 717.9068,-140.8939 717.9068,-140.8939"/>
<polygon fill="#000000" stroke="#000000" points="714.4068,-140.8938 717.9068,-150.8939 721.4068,-140.8939 714.4068,-140.8938"/>
</g>
<!-- EditorModule -->
<g id="node5" class="node">
<title>EditorModule</title>
<polygon fill="#8dd3c7" stroke="#000000" points="712.0453,-122 709.0453,-126 688.0453,-126 685.0453,-122 617.9547,-122 617.9547,-86 712.0453,-86 712.0453,-122"/>
<text text-anchor="middle" x="665" y="-99.8" font-family="Times,serif" font-size="14.00" fill="#000000">EditorModule</text>
</g>
<!-- EditorModule&#45;&gt;WorkflowModule -->
<g id="edge4" class="edge">
<title>EditorModule&#45;&gt;WorkflowModule</title>
<path fill="none" stroke="#000000" d="M665,-122.1061C665,-122.1061 665,-140.991 665,-140.991"/>
<polygon fill="#000000" stroke="#000000" points="661.5001,-140.9909 665,-150.991 668.5001,-140.991 661.5001,-140.9909"/>
</g>
<!-- WorkflowEntryService -->
<g id="node6" class="node">
<title>WorkflowEntryService</title>
<ellipse fill="#fdb462" stroke="#000000" cx="493" cy="-104" rx="101.264" ry="18"/>
<text text-anchor="middle" x="493" y="-99.8" font-family="Times,serif" font-size="14.00" fill="#000000">WorkflowEntryService</text>
</g>
<!-- WorkflowEntryService&#45;&gt;WorkflowModule -->
<g id="edge5" class="edge">
<title>WorkflowEntryService&#45;&gt;WorkflowModule</title>
<path fill="none" stroke="#000000" d="M594.2638,-104C604.9947,-104 612.0933,-104 612.0933,-104 612.0933,-104 612.0933,-140.8939 612.0933,-140.8939"/>
<polygon fill="#000000" stroke="#000000" points="608.5933,-140.8938 612.0933,-150.8939 615.5933,-140.8939 608.5933,-140.8938"/>
</g>
<!-- CloudMessagingService -->
<g id="node7" class="node">
<title>CloudMessagingService</title>
<ellipse fill="#fdb462" stroke="#000000" cx="268" cy="-104" rx="105.3779" ry="18"/>
<text text-anchor="middle" x="268" y="-99.8" font-family="Times,serif" font-size="14.00" fill="#000000">CloudMessagingService</text>
</g>
<!-- CloudMessagingService&#45;&gt;WorkflowModule -->
<g id="edge6" class="edge">
<title>CloudMessagingService&#45;&gt;WorkflowModule</title>
<path fill="none" stroke="#000000" d="M268,-122.0225C268,-139.3734 268,-163 268,-163 268,-163 596.4213,-163 596.4213,-163"/>
<polygon fill="#000000" stroke="#000000" points="596.4213,-166.5001 606.4213,-163 596.4212,-159.5001 596.4213,-166.5001"/>
</g>
<!-- OccoService -->
<g id="node8" class="node">
<title>OccoService</title>
<ellipse fill="#fdb462" stroke="#000000" cx="84" cy="-104" rx="60.2306" ry="18"/>
<text text-anchor="middle" x="84" y="-99.8" font-family="Times,serif" font-size="14.00" fill="#000000">OccoService</text>
</g>
<!-- OccoService&#45;&gt;WorkflowModule -->
<g id="edge7" class="edge">
<title>OccoService&#45;&gt;WorkflowModule</title>
<path fill="none" stroke="#000000" d="M84,-122.2843C84,-143.3211 84,-175 84,-175 84,-175 596.3626,-175 596.3626,-175"/>
<polygon fill="#000000" stroke="#000000" points="596.3626,-178.5001 606.3626,-175 596.3625,-171.5001 596.3626,-178.5001"/>
</g>
</g>
</svg>
