<?xml version="1.0" encoding="UTF-8" standalone="no"?>
<!DOCTYPE svg PUBLIC "-//W3C//DTD SVG 1.1//EN"
 "http://www.w3.org/Graphics/SVG/1.1/DTD/svg11.dtd">
<!-- Generated by graphviz version 2.40.1 (20161225.0304)
 -->
<!-- Title: dependencies Pages: 1 -->
<svg width="2567pt" height="276pt"
 viewBox="0.00 0.00 2567.00 276.00" xmlns="http://www.w3.org/2000/svg" xmlns:xlink="http://www.w3.org/1999/xlink">
<g id="graph0" class="graph" transform="scale(1 1) rotate(0) translate(4 272)">
<title>dependencies</title>
<polygon fill="#ffffff" stroke="transparent" points="-4,4 -4,-272 2563,-272 2563,4 -4,4"/>
<text text-anchor="start" x="1258.5091" y="-42.4" font-family="sans-serif" font-weight="bold" font-size="14.00" fill="#000000">Legend</text>
<polygon fill="#ffffb3" stroke="transparent" points="1045.5,-10 1045.5,-30 1065.5,-30 1065.5,-10 1045.5,-10"/>
<text text-anchor="start" x="1069.129" y="-15.4" font-family="sans-serif" font-size="14.00" fill="#000000"> &#160;Declarations</text>
<polygon fill="#8dd3c7" stroke="transparent" points="1158.5,-10 1158.5,-30 1178.5,-30 1178.5,-10 1158.5,-10"/>
<text text-anchor="start" x="1182.2251" y="-15.4" font-family="sans-serif" font-size="14.00" fill="#000000"> &#160;Module</text>
<polygon fill="#80b1d3" stroke="transparent" points="1244.5,-10 1244.5,-30 1264.5,-30 1264.5,-10 1244.5,-10"/>
<text text-anchor="start" x="1268.2812" y="-15.4" font-family="sans-serif" font-size="14.00" fill="#000000"> &#160;Bootstrap</text>
<polygon fill="#fdb462" stroke="transparent" points="1341.5,-10 1341.5,-30 1361.5,-30 1361.5,-10 1341.5,-10"/>
<text text-anchor="start" x="1365.1732" y="-15.4" font-family="sans-serif" font-size="14.00" fill="#000000"> &#160;Providers</text>
<polygon fill="#fb8072" stroke="transparent" points="1437.5,-10 1437.5,-30 1457.5,-30 1457.5,-10 1437.5,-10"/>
<text text-anchor="start" x="1461.2258" y="-15.4" font-family="sans-serif" font-size="14.00" fill="#000000"> &#160;Exports</text>
<g id="clust1" class="cluster">
<title>cluster_WorkflowModule</title>
<polygon fill="none" stroke="#000000" stroke-dasharray="1,5" points="8,-70 8,-260 2551,-260 2551,-70 8,-70"/>
</g>
<g id="clust2" class="cluster">
<title>cluster_WorkflowModule_declarations</title>
<polygon fill="none" stroke="#000000" points="1015,-143 1015,-195 2531,-195 2531,-143 1015,-143"/>
</g>
<g id="clust7" class="cluster">
<title>cluster_WorkflowModule_DeploymentManagerComponent_providers</title>
<polygon fill="none" stroke="#000000" points="1929,-78 1929,-130 2121,-130 2121,-78 1929,-78"/>
</g>
<g id="clust10" class="cluster">
<title>cluster_WorkflowModule_imports</title>
<polygon fill="none" stroke="#000000" points="781,-143 781,-195 1007,-195 1007,-143 781,-143"/>
</g>
<g id="clust13" class="cluster">
<title>cluster_WorkflowModule_providers</title>
<polygon fill="none" stroke="#000000" points="16,-143 16,-195 773,-195 773,-143 16,-143"/>
</g>
<!-- WorkflowMaintComponent -->
<g id="node1" class="node">
<title>WorkflowMaintComponent</title>
<polygon fill="#ffffb3" stroke="#000000" points="2523.3061,-187 2350.6939,-187 2350.6939,-151 2523.3061,-151 2523.3061,-187"/>
<text text-anchor="middle" x="2437" y="-164.8" font-family="Times,serif" font-size="14.00" fill="#000000">WorkflowMaintComponent</text>
</g>
<!-- WorkflowModule -->
<g id="node8" class="node">
<title>WorkflowModule</title>
<polygon fill="#8dd3c7" stroke="#000000" points="1299.5828,-252 1296.5828,-256 1275.5828,-256 1272.5828,-252 1182.4172,-252 1182.4172,-216 1299.5828,-216 1299.5828,-252"/>
<text text-anchor="middle" x="1241" y="-229.8" font-family="Times,serif" font-size="14.00" fill="#000000">WorkflowModule</text>
</g>
<!-- WorkflowMaintComponent&#45;&gt;WorkflowModule -->
<g id="edge1" class="edge">
<title>WorkflowMaintComponent&#45;&gt;WorkflowModule</title>
<path fill="none" stroke="#000000" d="M2437,-187.0908C2437,-210.1328 2437,-247 2437,-247 2437,-247 1309.9019,-247 1309.9019,-247"/>
<polygon fill="#000000" stroke="#000000" points="1309.9019,-243.5001 1299.9019,-247 1309.9018,-250.5001 1309.9019,-243.5001"/>
</g>
<!-- WorkflowDetailComponent -->
<g id="node2" class="node">
<title>WorkflowDetailComponent</title>
<polygon fill="#ffffb3" stroke="#000000" points="2332.573,-187 2159.427,-187 2159.427,-151 2332.573,-151 2332.573,-187"/>
<text text-anchor="middle" x="2246" y="-164.8" font-family="Times,serif" font-size="14.00" fill="#000000">WorkflowDetailComponent</text>
</g>
<!-- WorkflowDetailComponent&#45;&gt;WorkflowModule -->
<g id="edge2" class="edge">
<title>WorkflowDetailComponent&#45;&gt;WorkflowModule</title>
<path fill="none" stroke="#000000" d="M2246,-187.0449C2246,-208.6623 2246,-242 2246,-242 2246,-242 1309.7457,-242 1309.7457,-242"/>
<polygon fill="#000000" stroke="#000000" points="1309.7457,-238.5001 1299.7457,-242 1309.7456,-245.5001 1309.7457,-238.5001"/>
</g>
<!-- WorkflowManagerComponent -->
<g id="node3" class="node">
<title>WorkflowManagerComponent</title>
<polygon fill="#ffffb3" stroke="#000000" points="2141.1148,-187 1952.8852,-187 1952.8852,-151 2141.1148,-151 2141.1148,-187"/>
<text text-anchor="middle" x="2047" y="-164.8" font-family="Times,serif" font-size="14.00" fill="#000000">WorkflowManagerComponent</text>
</g>
<!-- WorkflowManagerComponent&#45;&gt;WorkflowModule -->
<g id="edge3" class="edge">
<title>WorkflowManagerComponent&#45;&gt;WorkflowModule</title>
<path fill="none" stroke="#000000" d="M2047,-187.2228C2047,-207.3652 2047,-237 2047,-237 2047,-237 1309.6148,-237 1309.6148,-237"/>
<polygon fill="#000000" stroke="#000000" points="1309.6148,-233.5001 1299.6148,-237 1309.6147,-240.5001 1309.6148,-233.5001"/>
</g>
<!-- BuildContextPropertiesComponent -->
<g id="node4" class="node">
<title>BuildContextPropertiesComponent</title>
<polygon fill="#ffffb3" stroke="#000000" points="1934.5419,-187 1721.4581,-187 1721.4581,-151 1934.5419,-151 1934.5419,-187"/>
<text text-anchor="middle" x="1828" y="-164.8" font-family="Times,serif" font-size="14.00" fill="#000000">BuildContextPropertiesComponent</text>
</g>
<!-- BuildContextPropertiesComponent&#45;&gt;WorkflowModule -->
<g id="edge4" class="edge">
<title>BuildContextPropertiesComponent&#45;&gt;WorkflowModule</title>
<path fill="none" stroke="#000000" d="M1828,-187.0336C1828,-204.0597 1828,-227 1828,-227 1828,-227 1309.7004,-227 1309.7004,-227"/>
<polygon fill="#000000" stroke="#000000" points="1309.7004,-223.5001 1299.7004,-227 1309.7003,-230.5001 1309.7004,-223.5001"/>
</g>
<!-- DeploymentManagerComponent -->
<g id="node5" class="node">
<title>DeploymentManagerComponent</title>
<polygon fill="#ffffb3" stroke="#000000" points="1703.2892,-187 1502.7108,-187 1502.7108,-151 1703.2892,-151 1703.2892,-187"/>
<text text-anchor="middle" x="1603" y="-164.8" font-family="Times,serif" font-size="14.00" fill="#000000">DeploymentManagerComponent</text>
</g>
<!-- DeploymentManagerComponent&#45;&gt;WorkflowModule -->
<g id="edge5" class="edge">
<title>DeploymentManagerComponent&#45;&gt;WorkflowModule</title>
<path fill="none" stroke="#000000" d="M1603,-187.2396C1603,-202.5706 1603,-222 1603,-222 1603,-222 1309.5639,-222 1309.5639,-222"/>
<polygon fill="#000000" stroke="#000000" points="1309.5639,-218.5001 1299.5639,-222 1309.5639,-225.5001 1309.5639,-218.5001"/>
</g>
<!-- ExperimentContextPropertiesComponent -->
<g id="node6" class="node">
<title>ExperimentContextPropertiesComponent</title>
<polygon fill="#ffffb3" stroke="#000000" points="1484.7379,-187 1237.2621,-187 1237.2621,-151 1484.7379,-151 1484.7379,-187"/>
<text text-anchor="middle" x="1361" y="-164.8" font-family="Times,serif" font-size="14.00" fill="#000000">ExperimentContextPropertiesComponent</text>
</g>
<!-- ExperimentContextPropertiesComponent&#45;&gt;WorkflowModule -->
<g id="edge7" class="edge">
<title>ExperimentContextPropertiesComponent&#45;&gt;WorkflowModule</title>
<path fill="none" stroke="#000000" d="M1268.3363,-187.1061C1268.3363,-187.1061 1268.3363,-205.991 1268.3363,-205.991"/>
<polygon fill="#000000" stroke="#000000" points="1264.8363,-205.9909 1268.3363,-215.991 1271.8363,-205.991 1264.8363,-205.9909"/>
</g>
<!-- ExperimentManagerComponent -->
<g id="node7" class="node">
<title>ExperimentManagerComponent</title>
<polygon fill="#ffffb3" stroke="#000000" points="1219.396,-187 1022.604,-187 1022.604,-151 1219.396,-151 1219.396,-187"/>
<text text-anchor="middle" x="1121" y="-164.8" font-family="Times,serif" font-size="14.00" fill="#000000">ExperimentManagerComponent</text>
</g>
<!-- ExperimentManagerComponent&#45;&gt;WorkflowModule -->
<g id="edge8" class="edge">
<title>ExperimentManagerComponent&#45;&gt;WorkflowModule</title>
<path fill="none" stroke="#000000" d="M1200.8282,-187.1061C1200.8282,-187.1061 1200.8282,-205.991 1200.8282,-205.991"/>
<polygon fill="#000000" stroke="#000000" points="1197.3283,-205.9909 1200.8282,-215.991 1204.3283,-205.991 1197.3283,-205.9909"/>
</g>
<!-- DeploymentService -->
<g id="node9" class="node">
<title>DeploymentService</title>
<ellipse fill="#fdb462" stroke="#000000" cx="2025" cy="-104" rx="87.9607" ry="18"/>
<text text-anchor="middle" x="2025" y="-99.8" font-family="Times,serif" font-size="14.00" fill="#000000">DeploymentService</text>
</g>
<!-- DeploymentService&#45;&gt;DeploymentManagerComponent -->
<g id="edge6" class="edge">
<title>DeploymentService&#45;&gt;DeploymentManagerComponent</title>
<path fill="none" stroke="#000000" d="M1937.0486,-104C1813.3726,-104 1603,-104 1603,-104 1603,-104 1603,-140.8939 1603,-140.8939"/>
<polygon fill="#000000" stroke="#000000" points="1599.5001,-140.8938 1603,-150.8939 1606.5001,-140.8939 1599.5001,-140.8938"/>
</g>
<!-- DeploymentService&#45;&gt;WorkflowModule -->
<g id="edge15" class="edge">
<title>DeploymentService&#45;&gt;WorkflowModule</title>
<path fill="none" stroke="#000000" d="M1944.9814,-111.6237C1944.9814,-139.1797 1944.9814,-232 1944.9814,-232 1944.9814,-232 1309.8102,-232 1309.8102,-232"/>
<polygon fill="#000000" stroke="#000000" points="1309.8102,-228.5001 1299.8102,-232 1309.8102,-235.5001 1309.8102,-228.5001"/>
</g>
<!-- SharedModule -->
<g id="node10" class="node">
<title>SharedModule</title>
<polygon fill="#8dd3c7" stroke="#000000" points="999.4231,-187 996.4231,-191 975.4231,-191 972.4231,-187 900.5769,-187 900.5769,-151 999.4231,-151 999.4231,-187"/>
<text text-anchor="middle" x="950" y="-164.8" font-family="Times,serif" font-size="14.00" fill="#000000">SharedModule</text>
</g>
<!-- SharedModule&#45;&gt;WorkflowModule -->
<g id="edge9" class="edge">
<title>SharedModule&#45;&gt;WorkflowModule</title>
<path fill="none" stroke="#000000" d="M950,-187.2396C950,-202.5706 950,-222 950,-222 950,-222 1172.1118,-222 1172.1118,-222"/>
<polygon fill="#000000" stroke="#000000" points="1172.1118,-225.5001 1182.1118,-222 1172.1118,-218.5001 1172.1118,-225.5001"/>
</g>
<!-- EditorModule -->
<g id="node11" class="node">
<title>EditorModule</title>
<polygon fill="#8dd3c7" stroke="#000000" points="883.0453,-187 880.0453,-191 859.0453,-191 856.0453,-187 788.9547,-187 788.9547,-151 883.0453,-151 883.0453,-187"/>
<text text-anchor="middle" x="836" y="-164.8" font-family="Times,serif" font-size="14.00" fill="#000000">EditorModule</text>
</g>
<!-- EditorModule&#45;&gt;WorkflowModule -->
<g id="edge10" class="edge">
<title>EditorModule&#45;&gt;WorkflowModule</title>
<path fill="none" stroke="#000000" d="M836,-187.0336C836,-204.0597 836,-227 836,-227 836,-227 1172.1095,-227 1172.1095,-227"/>
<polygon fill="#000000" stroke="#000000" points="1172.1096,-230.5001 1182.1095,-227 1172.1095,-223.5001 1172.1096,-230.5001"/>
</g>
<!-- WorkflowEntryService -->
<g id="node12" class="node">
<title>WorkflowEntryService</title>
<ellipse fill="#fdb462" stroke="#000000" cx="664" cy="-169" rx="101.264" ry="18"/>
<text text-anchor="middle" x="664" y="-164.8" font-family="Times,serif" font-size="14.00" fill="#000000">WorkflowEntryService</text>
</g>
<!-- WorkflowEntryService&#45;&gt;WorkflowModule -->
<g id="edge11" class="edge">
<title>WorkflowEntryService&#45;&gt;WorkflowModule</title>
<path fill="none" stroke="#000000" d="M664,-187.2222C664,-205.8285 664,-232 664,-232 664,-232 1172.2309,-232 1172.2309,-232"/>
<polygon fill="#000000" stroke="#000000" points="1172.2309,-235.5001 1182.2309,-232 1172.2309,-228.5001 1172.2309,-235.5001"/>
</g>
<!-- CloudMessagingService -->
<g id="node13" class="node">
<title>CloudMessagingService</title>
<ellipse fill="#fdb462" stroke="#000000" cx="439" cy="-169" rx="105.3779" ry="18"/>
<text text-anchor="middle" x="439" y="-164.8" font-family="Times,serif" font-size="14.00" fill="#000000">CloudMessagingService</text>
</g>
<!-- CloudMessagingService&#45;&gt;WorkflowModule -->
<g id="edge12" class="edge">
<title>CloudMessagingService&#45;&gt;WorkflowModule</title>
<path fill="none" stroke="#000000" d="M439,-187.2228C439,-207.3652 439,-237 439,-237 439,-237 1172.352,-237 1172.352,-237"/>
<polygon fill="#000000" stroke="#000000" points="1172.352,-240.5001 1182.352,-237 1172.3519,-233.5001 1172.352,-240.5001"/>
</g>
<!-- OccoService -->
<g id="node14" class="node">
<title>OccoService</title>
<ellipse fill="#fdb462" stroke="#000000" cx="255" cy="-169" rx="60.2306" ry="18"/>
<text text-anchor="middle" x="255" y="-164.8" font-family="Times,serif" font-size="14.00" fill="#000000">OccoService</text>
</g>
<!-- OccoService&#45;&gt;WorkflowModule -->
<g id="edge13" class="edge">
<title>OccoService&#45;&gt;WorkflowModule</title>
<path fill="none" stroke="#000000" d="M255,-187.0449C255,-208.6623 255,-242 255,-242 255,-242 1172.274,-242 1172.274,-242"/>
<polygon fill="#000000" stroke="#000000" points="1172.2741,-245.5001 1182.274,-242 1172.274,-238.5001 1172.2741,-245.5001"/>
</g>
<!-- TemplateService -->
<g id="node15" class="node">
<title>TemplateService</title>
<ellipse fill="#fdb462" stroke="#000000" cx="100" cy="-169" rx="76.4188" ry="18"/>
<text text-anchor="middle" x="100" y="-164.8" font-family="Times,serif" font-size="14.00" fill="#000000">TemplateService</text>
</g>
<!-- TemplateService&#45;&gt;WorkflowModule -->
<g id="edge14" class="edge">
<title>TemplateService&#45;&gt;WorkflowModule</title>
<path fill="none" stroke="#000000" d="M100,-187.0908C100,-210.1328 100,-247 100,-247 100,-247 1172.4539,-247 1172.4539,-247"/>
<polygon fill="#000000" stroke="#000000" points="1172.4539,-250.5001 1182.4539,-247 1172.4538,-243.5001 1172.4539,-250.5001"/>
</g>
</g>
</svg>
