<?xml version="1.0" encoding="UTF-8" standalone="no"?>
<!DOCTYPE svg PUBLIC "-//W3C//DTD SVG 1.1//EN"
 "http://www.w3.org/Graphics/SVG/1.1/DTD/svg11.dtd">
<!-- Generated by graphviz version 2.40.1 (20161225.0304)
 -->
<!-- Title: dependencies Pages: 1 -->
<svg width="3628pt" height="284pt"
 viewBox="0.00 0.00 3628.00 284.00" xmlns="http://www.w3.org/2000/svg" xmlns:xlink="http://www.w3.org/1999/xlink">
<g id="graph0" class="graph" transform="scale(1 1) rotate(0) translate(4 280)">
<title>dependencies</title>
<polygon fill="#ffffff" stroke="transparent" points="-4,4 -4,-280 3624,-280 3624,4 -4,4"/>
<text text-anchor="start" x="1789.0091" y="-42.4" font-family="sans-serif" font-weight="bold" font-size="14.00" fill="#000000">Legend</text>
<polygon fill="#ffffb3" stroke="transparent" points="1576,-10 1576,-30 1596,-30 1596,-10 1576,-10"/>
<text text-anchor="start" x="1599.629" y="-15.4" font-family="sans-serif" font-size="14.00" fill="#000000"> &#160;Declarations</text>
<polygon fill="#8dd3c7" stroke="transparent" points="1689,-10 1689,-30 1709,-30 1709,-10 1689,-10"/>
<text text-anchor="start" x="1712.7251" y="-15.4" font-family="sans-serif" font-size="14.00" fill="#000000"> &#160;Module</text>
<polygon fill="#80b1d3" stroke="transparent" points="1775,-10 1775,-30 1795,-30 1795,-10 1775,-10"/>
<text text-anchor="start" x="1798.7812" y="-15.4" font-family="sans-serif" font-size="14.00" fill="#000000"> &#160;Bootstrap</text>
<polygon fill="#fdb462" stroke="transparent" points="1872,-10 1872,-30 1892,-30 1892,-10 1872,-10"/>
<text text-anchor="start" x="1895.6732" y="-15.4" font-family="sans-serif" font-size="14.00" fill="#000000"> &#160;Providers</text>
<polygon fill="#fb8072" stroke="transparent" points="1968,-10 1968,-30 1988,-30 1988,-10 1968,-10"/>
<text text-anchor="start" x="1991.7258" y="-15.4" font-family="sans-serif" font-size="14.00" fill="#000000"> &#160;Exports</text>
<g id="clust1" class="cluster">
<title>cluster_AppModule</title>
<polygon fill="none" stroke="#000000" stroke-dasharray="1,5" points="8,-70 8,-268 3612,-268 3612,-70 8,-70"/>
</g>
<g id="clust2" class="cluster">
<title>cluster_AppModule_declarations</title>
<polygon fill="none" stroke="#000000" points="1706,-78 1706,-130 3604,-130 3604,-78 1706,-78"/>
</g>
<g id="clust14" class="cluster">
<title>cluster_AppModule_imports</title>
<polygon fill="none" stroke="#000000" points="1492,-78 1492,-130 1698,-130 1698,-78 1492,-78"/>
</g>
<g id="clust16" class="cluster">
<title>cluster_AppModule_bootstrap</title>
<polygon fill="none" stroke="#000000" points="1725,-208 1725,-260 1849,-260 1849,-208 1725,-208"/>
</g>
<g id="clust17" class="cluster">
<title>cluster_AppModule_providers</title>
<polygon fill="none" stroke="#000000" points="16,-78 16,-130 1484,-130 1484,-78 16,-78"/>
</g>
<!-- AppComponent -->
<g id="node1" class="node">
<title>AppComponent</title>
<polygon fill="#ffffb3" stroke="#000000" points="3595.9399,-122 3490.0601,-122 3490.0601,-86 3595.9399,-86 3595.9399,-122"/>
<text text-anchor="middle" x="3543" y="-99.8" font-family="Times,serif" font-size="14.00" fill="#000000">AppComponent</text>
</g>
<!-- AppModule -->
<g id="node12" class="node">
<title>AppModule</title>
<polygon fill="#8dd3c7" stroke="#000000" points="1828.6571,-187 1825.6571,-191 1804.6571,-191 1801.6571,-187 1745.3429,-187 1745.3429,-151 1828.6571,-151 1828.6571,-187"/>
<text text-anchor="middle" x="1787" y="-164.8" font-family="Times,serif" font-size="14.00" fill="#000000">AppModule</text>
</g>
<!-- AppComponent&#45;&gt;AppModule -->
<g id="edge1" class="edge">
<title>AppComponent&#45;&gt;AppModule</title>
<path fill="none" stroke="#000000" d="M3543,-122.1532C3543,-145.7566 3543,-184 3543,-184 3543,-184 1838.675,-184 1838.675,-184"/>
<polygon fill="#000000" stroke="#000000" points="1838.675,-180.5001 1828.675,-184 1838.675,-187.5001 1838.675,-180.5001"/>
</g>
<!-- DashboardComponent -->
<g id="node2" class="node">
<title>DashboardComponent</title>
<polygon fill="#ffffb3" stroke="#000000" points="3471.9734,-122 3330.0266,-122 3330.0266,-86 3471.9734,-86 3471.9734,-122"/>
<text text-anchor="middle" x="3401" y="-99.8" font-family="Times,serif" font-size="14.00" fill="#000000">DashboardComponent</text>
</g>
<!-- DashboardComponent&#45;&gt;AppModule -->
<g id="edge2" class="edge">
<title>DashboardComponent&#45;&gt;AppModule</title>
<path fill="none" stroke="#000000" d="M3401,-122.2479C3401,-145.0179 3401,-181 3401,-181 3401,-181 1838.9289,-181 1838.9289,-181"/>
<polygon fill="#000000" stroke="#000000" points="1838.929,-177.5001 1828.9289,-181 1838.9289,-184.5001 1838.929,-177.5001"/>
</g>
<!-- CountryDetailComponent -->
<g id="node3" class="node">
<title>CountryDetailComponent</title>
<polygon fill="#ffffb3" stroke="#000000" points="3311.9284,-122 3150.0716,-122 3150.0716,-86 3311.9284,-86 3311.9284,-122"/>
<text text-anchor="middle" x="3231" y="-99.8" font-family="Times,serif" font-size="14.00" fill="#000000">CountryDetailComponent</text>
</g>
<!-- CountryDetailComponent&#45;&gt;AppModule -->
<g id="edge3" class="edge">
<title>CountryDetailComponent&#45;&gt;AppModule</title>
<path fill="none" stroke="#000000" d="M3231,-122.2921C3231,-144.2057 3231,-178 3231,-178 3231,-178 1838.6588,-178 1838.6588,-178"/>
<polygon fill="#000000" stroke="#000000" points="1838.6589,-174.5001 1828.6588,-178 1838.6588,-181.5001 1838.6589,-174.5001"/>
</g>
<!-- CountryListComponent -->
<g id="node4" class="node">
<title>CountryListComponent</title>
<polygon fill="#ffffb3" stroke="#000000" points="3132.4986,-122 2983.5014,-122 2983.5014,-86 3132.4986,-86 3132.4986,-122"/>
<text text-anchor="middle" x="3058" y="-99.8" font-family="Times,serif" font-size="14.00" fill="#000000">CountryListComponent</text>
</g>
<!-- CountryListComponent&#45;&gt;AppModule -->
<g id="edge4" class="edge">
<title>CountryListComponent&#45;&gt;AppModule</title>
<path fill="none" stroke="#000000" d="M3058,-122.0267C3058,-142.7672 3058,-174 3058,-174 3058,-174 1838.9264,-174 1838.9264,-174"/>
<polygon fill="#000000" stroke="#000000" points="1838.9265,-170.5001 1828.9264,-174 1838.9264,-177.5001 1838.9265,-170.5001"/>
</g>
<!-- CountryMaintComponent -->
<g id="node5" class="node">
<title>CountryMaintComponent</title>
<polygon fill="#ffffb3" stroke="#000000" points="2965.161,-122 2804.839,-122 2804.839,-86 2965.161,-86 2965.161,-122"/>
<text text-anchor="middle" x="2885" y="-99.8" font-family="Times,serif" font-size="14.00" fill="#000000">CountryMaintComponent</text>
</g>
<!-- CountryMaintComponent&#45;&gt;AppModule -->
<g id="edge5" class="edge">
<title>CountryMaintComponent&#45;&gt;AppModule</title>
<path fill="none" stroke="#000000" d="M2885,-122.308C2885,-142.1455 2885,-171 2885,-171 2885,-171 1838.7021,-171 1838.7021,-171"/>
<polygon fill="#000000" stroke="#000000" points="1838.7022,-167.5001 1828.7021,-171 1838.7021,-174.5001 1838.7022,-167.5001"/>
</g>
<!-- AuthenticatedUserComponent -->
<g id="node6" class="node">
<title>AuthenticatedUserComponent</title>
<polygon fill="#ffffb3" stroke="#000000" points="2787.2864,-122 2600.7136,-122 2600.7136,-86 2787.2864,-86 2787.2864,-122"/>
<text text-anchor="middle" x="2694" y="-99.8" font-family="Times,serif" font-size="14.00" fill="#000000">AuthenticatedUserComponent</text>
</g>
<!-- AuthenticatedUserComponent&#45;&gt;AppModule -->
<g id="edge6" class="edge">
<title>AuthenticatedUserComponent&#45;&gt;AppModule</title>
<path fill="none" stroke="#000000" d="M2694,-122.1686C2694,-141.0898 2694,-168 2694,-168 2694,-168 1838.9274,-168 1838.9274,-168"/>
<polygon fill="#000000" stroke="#000000" points="1838.9275,-164.5001 1828.9274,-168 1838.9274,-171.5001 1838.9275,-164.5001"/>
</g>
<!-- CountryPanelComponent -->
<g id="node7" class="node">
<title>CountryPanelComponent</title>
<polygon fill="#ffffb3" stroke="#000000" points="2583.3229,-122 2424.6771,-122 2424.6771,-86 2583.3229,-86 2583.3229,-122"/>
<text text-anchor="middle" x="2504" y="-99.8" font-family="Times,serif" font-size="14.00" fill="#000000">CountryPanelComponent</text>
</g>
<!-- CountryPanelComponent&#45;&gt;AppModule -->
<g id="edge7" class="edge">
<title>CountryPanelComponent&#45;&gt;AppModule</title>
<path fill="none" stroke="#000000" d="M2504,-122.302C2504,-140.2699 2504,-165 2504,-165 2504,-165 1838.9111,-165 1838.9111,-165"/>
<polygon fill="#000000" stroke="#000000" points="1838.9111,-161.5001 1828.9111,-165 1838.911,-168.5001 1838.9111,-161.5001"/>
</g>
<!-- ImagePanelComponent -->
<g id="node8" class="node">
<title>ImagePanelComponent</title>
<polygon fill="#ffffb3" stroke="#000000" points="2406.9158,-122 2259.0842,-122 2259.0842,-86 2406.9158,-86 2406.9158,-122"/>
<text text-anchor="middle" x="2333" y="-99.8" font-family="Times,serif" font-size="14.00" fill="#000000">ImagePanelComponent</text>
</g>
<!-- ImagePanelComponent&#45;&gt;AppModule -->
<g id="edge8" class="edge">
<title>ImagePanelComponent&#45;&gt;AppModule</title>
<path fill="none" stroke="#000000" d="M2333,-122.0352C2333,-138.7344 2333,-161 2333,-161 2333,-161 1838.9371,-161 1838.9371,-161"/>
<polygon fill="#000000" stroke="#000000" points="1838.9371,-157.5001 1828.9371,-161 1838.9371,-164.5001 1838.9371,-157.5001"/>
</g>
<!-- WorkflowMaintComponent -->
<g id="node9" class="node">
<title>WorkflowMaintComponent</title>
<polygon fill="#ffffb3" stroke="#000000" points="2241.3061,-122 2068.6939,-122 2068.6939,-86 2241.3061,-86 2241.3061,-122"/>
<text text-anchor="middle" x="2155" y="-99.8" font-family="Times,serif" font-size="14.00" fill="#000000">WorkflowMaintComponent</text>
</g>
<!-- WorkflowMaintComponent&#45;&gt;AppModule -->
<g id="edge9" class="edge">
<title>WorkflowMaintComponent&#45;&gt;AppModule</title>
<path fill="none" stroke="#000000" d="M2155,-122.2819C2155,-137.9478 2155,-158 2155,-158 2155,-158 1838.856,-158 1838.856,-158"/>
<polygon fill="#000000" stroke="#000000" points="1838.856,-154.5001 1828.856,-158 1838.856,-161.5001 1838.856,-154.5001"/>
</g>
<!-- WorkflowDetailComponent -->
<g id="node10" class="node">
<title>WorkflowDetailComponent</title>
<polygon fill="#ffffb3" stroke="#000000" points="2050.573,-122 1877.427,-122 1877.427,-86 2050.573,-86 2050.573,-122"/>
<text text-anchor="middle" x="1964" y="-99.8" font-family="Times,serif" font-size="14.00" fill="#000000">WorkflowDetailComponent</text>
</g>
<!-- WorkflowDetailComponent&#45;&gt;AppModule -->
<g id="edge10" class="edge">
<title>WorkflowDetailComponent&#45;&gt;AppModule</title>
<path fill="none" stroke="#000000" d="M1964,-122.1243C1964,-136.7832 1964,-155 1964,-155 1964,-155 1838.9465,-155 1838.9465,-155"/>
<polygon fill="#000000" stroke="#000000" points="1838.9466,-151.5001 1828.9465,-155 1838.9465,-158.5001 1838.9466,-151.5001"/>
</g>
<!-- ConnectionComponent -->
<g id="node11" class="node">
<title>ConnectionComponent</title>
<polygon fill="#ffffb3" stroke="#000000" points="1859.8794,-122 1714.1206,-122 1714.1206,-86 1859.8794,-86 1859.8794,-122"/>
<text text-anchor="middle" x="1787" y="-99.8" font-family="Times,serif" font-size="14.00" fill="#000000">ConnectionComponent</text>
</g>
<!-- ConnectionComponent&#45;&gt;AppModule -->
<g id="edge11" class="edge">
<title>ConnectionComponent&#45;&gt;AppModule</title>
<path fill="none" stroke="#000000" d="M1787,-122.1061C1787,-122.1061 1787,-140.991 1787,-140.991"/>
<polygon fill="#000000" stroke="#000000" points="1783.5001,-140.9909 1787,-150.991 1790.5001,-140.991 1783.5001,-140.9909"/>
</g>
<!-- AppComponent  -->
<g id="node15" class="node">
<title>AppComponent </title>
<polygon fill="#80b1d3" stroke="#000000" points="1841.439,-252 1732.561,-252 1732.561,-216 1841.439,-216 1841.439,-252"/>
<text text-anchor="middle" x="1787" y="-229.8" font-family="Times,serif" font-size="14.00" fill="#000000">AppComponent </text>
</g>
<!-- AppModule&#45;&gt;AppComponent  -->
<g id="edge14" class="edge">
<title>AppModule&#45;&gt;AppComponent </title>
<path fill="none" stroke="#000000" stroke-dasharray="1,5" d="M1787,-187.1061C1787,-187.1061 1787,-205.991 1787,-205.991"/>
<polygon fill="#000000" stroke="#000000" points="1783.5001,-205.9909 1787,-215.991 1790.5001,-205.991 1783.5001,-205.9909"/>
</g>
<!-- FwModule -->
<g id="node13" class="node">
<title>FwModule</title>
<polygon fill="#8dd3c7" stroke="#000000" points="1689.9403,-122 1686.9403,-126 1665.9403,-126 1662.9403,-122 1612.0597,-122 1612.0597,-86 1689.9403,-86 1689.9403,-122"/>
<text text-anchor="middle" x="1651" y="-99.8" font-family="Times,serif" font-size="14.00" fill="#000000">FwModule</text>
</g>
<!-- FwModule&#45;&gt;AppModule -->
<g id="edge12" class="edge">
<title>FwModule&#45;&gt;AppModule</title>
<path fill="none" stroke="#000000" d="M1651,-122.1243C1651,-136.7832 1651,-155 1651,-155 1651,-155 1735.0858,-155 1735.0858,-155"/>
<polygon fill="#000000" stroke="#000000" points="1735.0858,-158.5001 1745.0858,-155 1735.0858,-151.5001 1735.0858,-158.5001"/>
</g>
<!-- EditorModule -->
<g id="node14" class="node">
<title>EditorModule</title>
<polygon fill="#8dd3c7" stroke="#000000" points="1594.0453,-122 1591.0453,-126 1570.0453,-126 1567.0453,-122 1499.9547,-122 1499.9547,-86 1594.0453,-86 1594.0453,-122"/>
<text text-anchor="middle" x="1547" y="-99.8" font-family="Times,serif" font-size="14.00" fill="#000000">EditorModule</text>
</g>
<!-- EditorModule&#45;&gt;AppModule -->
<g id="edge13" class="edge">
<title>EditorModule&#45;&gt;AppModule</title>
<path fill="none" stroke="#000000" d="M1547,-122.2819C1547,-137.9478 1547,-158 1547,-158 1547,-158 1735.1952,-158 1735.1952,-158"/>
<polygon fill="#000000" stroke="#000000" points="1735.1952,-161.5001 1745.1952,-158 1735.1952,-154.5001 1735.1952,-161.5001"/>
</g>
<!-- UserService -->
<g id="node16" class="node">
<title>UserService</title>
<ellipse fill="#fdb462" stroke="#000000" cx="1418" cy="-104" rx="58.4415" ry="18"/>
<text text-anchor="middle" x="1418" y="-99.8" font-family="Times,serif" font-size="14.00" fill="#000000">UserService</text>
</g>
<!-- UserService&#45;&gt;AppModule -->
<g id="edge15" class="edge">
<title>UserService&#45;&gt;AppModule</title>
<path fill="none" stroke="#000000" d="M1418,-122.0352C1418,-138.7344 1418,-161 1418,-161 1418,-161 1735.0303,-161 1735.0303,-161"/>
<polygon fill="#000000" stroke="#000000" points="1735.0303,-164.5001 1745.0303,-161 1735.0302,-157.5001 1735.0303,-164.5001"/>
</g>
<!-- AuthGuard -->
<g id="node17" class="node">
<title>AuthGuard</title>
<ellipse fill="#fdb462" stroke="#000000" cx="1287" cy="-104" rx="54.4566" ry="18"/>
<text text-anchor="middle" x="1287" y="-99.8" font-family="Times,serif" font-size="14.00" fill="#000000">AuthGuard</text>
</g>
<!-- AuthGuard&#45;&gt;AppModule -->
<g id="edge16" class="edge">
<title>AuthGuard&#45;&gt;AppModule</title>
<path fill="none" stroke="#000000" d="M1287,-122.302C1287,-140.2699 1287,-165 1287,-165 1287,-165 1735.2303,-165 1735.2303,-165"/>
<polygon fill="#000000" stroke="#000000" points="1735.2303,-168.5001 1745.2303,-165 1735.2302,-161.5001 1735.2303,-168.5001"/>
</g>
<!-- AppDataService -->
<g id="node18" class="node">
<title>AppDataService</title>
<ellipse fill="#fdb462" stroke="#000000" cx="1140" cy="-104" rx="74.6976" ry="18"/>
<text text-anchor="middle" x="1140" y="-99.8" font-family="Times,serif" font-size="14.00" fill="#000000">AppDataService</text>
</g>
<!-- AppDataService&#45;&gt;AppModule -->
<g id="edge17" class="edge">
<title>AppDataService&#45;&gt;AppModule</title>
<path fill="none" stroke="#000000" d="M1140,-122.1686C1140,-141.0898 1140,-168 1140,-168 1140,-168 1735.047,-168 1735.047,-168"/>
<polygon fill="#000000" stroke="#000000" points="1735.0471,-171.5001 1745.047,-168 1735.047,-164.5001 1735.0471,-171.5001"/>
</g>
<!-- WorkflowEntryService -->
<g id="node19" class="node">
<title>WorkflowEntryService</title>
<ellipse fill="#fdb462" stroke="#000000" cx="946" cy="-104" rx="101.264" ry="18"/>
<text text-anchor="middle" x="946" y="-99.8" font-family="Times,serif" font-size="14.00" fill="#000000">WorkflowEntryService</text>
</g>
<!-- WorkflowEntryService&#45;&gt;AppModule -->
<g id="edge18" class="edge">
<title>WorkflowEntryService&#45;&gt;AppModule</title>
<path fill="none" stroke="#000000" d="M946,-122.308C946,-142.1455 946,-171 946,-171 946,-171 1735.2947,-171 1735.2947,-171"/>
<polygon fill="#000000" stroke="#000000" points="1735.2947,-174.5001 1745.2947,-171 1735.2946,-167.5001 1735.2947,-174.5001"/>
</g>
<!-- OccoService -->
<g id="node20" class="node">
<title>OccoService</title>
<ellipse fill="#fdb462" stroke="#000000" cx="767" cy="-104" rx="60.2306" ry="18"/>
<text text-anchor="middle" x="767" y="-99.8" font-family="Times,serif" font-size="14.00" fill="#000000">OccoService</text>
</g>
<!-- OccoService&#45;&gt;AppModule -->
<g id="edge19" class="edge">
<title>OccoService&#45;&gt;AppModule</title>
<path fill="none" stroke="#000000" d="M767,-122.0267C767,-142.7672 767,-174 767,-174 767,-174 1735.1132,-174 1735.1132,-174"/>
<polygon fill="#000000" stroke="#000000" points="1735.1132,-177.5001 1745.1132,-174 1735.1132,-170.5001 1735.1132,-177.5001"/>
</g>
<!-- WorkflowDetailResolver -->
<g id="node21" class="node">
<title>WorkflowDetailResolver</title>
<ellipse fill="#fdb462" stroke="#000000" cx="580" cy="-104" rx="108.7845" ry="18"/>
<text text-anchor="middle" x="580" y="-99.8" font-family="Times,serif" font-size="14.00" fill="#000000">WorkflowDetailResolver</text>
</g>
<!-- WorkflowDetailResolver&#45;&gt;AppModule -->
<g id="edge20" class="edge">
<title>WorkflowDetailResolver&#45;&gt;AppModule</title>
<path fill="none" stroke="#000000" d="M580,-122.2921C580,-144.2057 580,-178 580,-178 580,-178 1735.1018,-178 1735.1018,-178"/>
<polygon fill="#000000" stroke="#000000" points="1735.1018,-181.5001 1745.1018,-178 1735.1018,-174.5001 1735.1018,-181.5001"/>
</g>
<!-- WorkflowDetailDeactivateGuard -->
<g id="node22" class="node">
<title>WorkflowDetailDeactivateGuard</title>
<ellipse fill="#fdb462" stroke="#000000" cx="314" cy="-104" rx="139.9638" ry="18"/>
<text text-anchor="middle" x="314" y="-99.8" font-family="Times,serif" font-size="14.00" fill="#000000">WorkflowDetailDeactivateGuard</text>
</g>
<!-- WorkflowDetailDeactivateGuard&#45;&gt;AppModule -->
<g id="edge21" class="edge">
<title>WorkflowDetailDeactivateGuard&#45;&gt;AppModule</title>
<path fill="none" stroke="#000000" d="M314,-122.2479C314,-145.0179 314,-181 314,-181 314,-181 1735.2887,-181 1735.2887,-181"/>
<polygon fill="#000000" stroke="#000000" points="1735.2888,-184.5001 1745.2887,-181 1735.2887,-177.5001 1735.2888,-184.5001"/>
</g>
<!-- DialogService -->
<g id="node23" class="node">
<title>DialogService</title>
<ellipse fill="#fdb462" stroke="#000000" cx="90" cy="-104" rx="66.0492" ry="18"/>
<text text-anchor="middle" x="90" y="-99.8" font-family="Times,serif" font-size="14.00" fill="#000000">DialogService</text>
</g>
<!-- DialogService&#45;&gt;AppModule -->
<g id="edge22" class="edge">
<title>DialogService&#45;&gt;AppModule</title>
<path fill="none" stroke="#000000" d="M90,-122.1532C90,-145.7566 90,-184 90,-184 90,-184 1735.0515,-184 1735.0515,-184"/>
<polygon fill="#000000" stroke="#000000" points="1735.0515,-187.5001 1745.0515,-184 1735.0514,-180.5001 1735.0515,-187.5001"/>
</g>
</g>
</svg>
