<?xml version="1.0" encoding="UTF-8" standalone="no"?>
<!DOCTYPE svg PUBLIC "-//W3C//DTD SVG 1.1//EN"
 "http://www.w3.org/Graphics/SVG/1.1/DTD/svg11.dtd">
<!-- Generated by graphviz version 2.40.1 (20161225.0304)
 -->
<!-- Title: dependencies Pages: 1 -->
<svg width="816pt" height="284pt"
 viewBox="0.00 0.00 816.00 284.00" xmlns="http://www.w3.org/2000/svg" xmlns:xlink="http://www.w3.org/1999/xlink">
<g id="graph0" class="graph" transform="scale(1 1) rotate(0) translate(4 280)">
<title>dependencies</title>
<polygon fill="#ffffff" stroke="transparent" points="-4,4 -4,-280 812,-280 812,4 -4,4"/>
<text text-anchor="start" x="383.0091" y="-42.4" font-family="sans-serif" font-weight="bold" font-size="14.00" fill="#000000">Legend</text>
<polygon fill="#ffffb3" stroke="transparent" points="170,-10 170,-30 190,-30 190,-10 170,-10"/>
<text text-anchor="start" x="193.629" y="-15.4" font-family="sans-serif" font-size="14.00" fill="#000000"> &#160;Declarations</text>
<polygon fill="#8dd3c7" stroke="transparent" points="283,-10 283,-30 303,-30 303,-10 283,-10"/>
<text text-anchor="start" x="306.7251" y="-15.4" font-family="sans-serif" font-size="14.00" fill="#000000"> &#160;Module</text>
<polygon fill="#80b1d3" stroke="transparent" points="369,-10 369,-30 389,-30 389,-10 369,-10"/>
<text text-anchor="start" x="392.7812" y="-15.4" font-family="sans-serif" font-size="14.00" fill="#000000"> &#160;Bootstrap</text>
<polygon fill="#fdb462" stroke="transparent" points="466,-10 466,-30 486,-30 486,-10 466,-10"/>
<text text-anchor="start" x="489.6732" y="-15.4" font-family="sans-serif" font-size="14.00" fill="#000000"> &#160;Providers</text>
<polygon fill="#fb8072" stroke="transparent" points="562,-10 562,-30 582,-30 582,-10 562,-10"/>
<text text-anchor="start" x="585.7258" y="-15.4" font-family="sans-serif" font-size="14.00" fill="#000000"> &#160;Exports</text>
<g id="clust1" class="cluster">
<title>cluster_AppModule</title>
<polygon fill="none" stroke="#000000" stroke-dasharray="1,5" points="8,-70 8,-268 800,-268 800,-70 8,-70"/>
</g>
<g id="clust2" class="cluster">
<title>cluster_AppModule_declarations</title>
<polygon fill="none" stroke="#000000" points="670,-78 670,-130 792,-130 792,-78 670,-78"/>
</g>
<g id="clust4" class="cluster">
<title>cluster_AppModule_imports</title>
<polygon fill="none" stroke="#000000" points="16,-78 16,-130 662,-130 662,-78 16,-78"/>
</g>
<g id="clust6" class="cluster">
<title>cluster_AppModule_bootstrap</title>
<polygon fill="none" stroke="#000000" points="369,-208 369,-260 493,-260 493,-208 369,-208"/>
</g>
<!-- AppComponent -->
<g id="node1" class="node">
<title>AppComponent</title>
<polygon fill="#ffffb3" stroke="#000000" points="783.9399,-122 678.0601,-122 678.0601,-86 783.9399,-86 783.9399,-122"/>
<text text-anchor="middle" x="731" y="-99.8" font-family="Times,serif" font-size="14.00" fill="#000000">AppComponent</text>
</g>
<!-- AppModule -->
<g id="node2" class="node">
<title>AppModule</title>
<polygon fill="#8dd3c7" stroke="#000000" points="472.6571,-187 469.6571,-191 448.6571,-191 445.6571,-187 389.3429,-187 389.3429,-151 472.6571,-151 472.6571,-187"/>
<text text-anchor="middle" x="431" y="-164.8" font-family="Times,serif" font-size="14.00" fill="#000000">AppModule</text>
</g>
<!-- AppComponent&#45;&gt;AppModule -->
<g id="edge1" class="edge">
<title>AppComponent&#45;&gt;AppModule</title>
<path fill="none" stroke="#000000" d="M731,-122.2843C731,-143.3211 731,-175 731,-175 731,-175 482.7137,-175 482.7137,-175"/>
<polygon fill="#000000" stroke="#000000" points="482.7137,-171.5001 472.7137,-175 482.7137,-178.5001 482.7137,-171.5001"/>
</g>
<!-- AppComponent  -->
<g id="node8" class="node">
<title>AppComponent </title>
<polygon fill="#80b1d3" stroke="#000000" points="485.439,-252 376.561,-252 376.561,-216 485.439,-216 485.439,-252"/>
<text text-anchor="middle" x="431" y="-229.8" font-family="Times,serif" font-size="14.00" fill="#000000">AppComponent </text>
</g>
<!-- AppModule&#45;&gt;AppComponent  -->
<g id="edge7" class="edge">
<title>AppModule&#45;&gt;AppComponent </title>
<path fill="none" stroke="#000000" stroke-dasharray="1,5" d="M431,-187.1061C431,-187.1061 431,-205.991 431,-205.991"/>
<polygon fill="#000000" stroke="#000000" points="427.5001,-205.9909 431,-215.991 434.5001,-205.991 427.5001,-205.9909"/>
</g>
<!-- FwModule -->
<g id="node3" class="node">
<title>FwModule</title>
<polygon fill="#8dd3c7" stroke="#000000" points="653.9403,-122 650.9403,-126 629.9403,-126 626.9403,-122 576.0597,-122 576.0597,-86 653.9403,-86 653.9403,-122"/>
<text text-anchor="middle" x="615" y="-99.8" font-family="Times,serif" font-size="14.00" fill="#000000">FwModule</text>
</g>
<!-- FwModule&#45;&gt;AppModule -->
<g id="edge2" class="edge">
<title>FwModule&#45;&gt;AppModule</title>
<path fill="none" stroke="#000000" d="M615,-122.0225C615,-139.3734 615,-163 615,-163 615,-163 482.7524,-163 482.7524,-163"/>
<polygon fill="#000000" stroke="#000000" points="482.7525,-159.5001 472.7524,-163 482.7524,-166.5001 482.7525,-159.5001"/>
</g>
<!-- AppRoutingModule -->
<g id="node4" class="node">
<title>AppRoutingModule</title>
<polygon fill="#8dd3c7" stroke="#000000" points="558.2744,-122 555.2744,-126 534.2744,-126 531.2744,-122 429.7256,-122 429.7256,-86 558.2744,-86 558.2744,-122"/>
<text text-anchor="middle" x="494" y="-99.8" font-family="Times,serif" font-size="14.00" fill="#000000">AppRoutingModule</text>
</g>
<!-- AppRoutingModule&#45;&gt;AppModule -->
<g id="edge3" class="edge">
<title>AppRoutingModule&#45;&gt;AppModule</title>
<path fill="none" stroke="#000000" d="M451.2206,-122.1061C451.2206,-122.1061 451.2206,-140.991 451.2206,-140.991"/>
<polygon fill="#000000" stroke="#000000" points="447.7206,-140.9909 451.2206,-150.991 454.7206,-140.991 447.7206,-140.9909"/>
</g>
<!-- CoreModule -->
<g id="node5" class="node">
<title>CoreModule</title>
<polygon fill="#8dd3c7" stroke="#000000" points="411.2619,-122 408.2619,-126 387.2619,-126 384.2619,-122 324.7381,-122 324.7381,-86 411.2619,-86 411.2619,-122"/>
<text text-anchor="middle" x="368" y="-99.8" font-family="Times,serif" font-size="14.00" fill="#000000">CoreModule</text>
</g>
<!-- CoreModule&#45;&gt;AppModule -->
<g id="edge4" class="edge">
<title>CoreModule&#45;&gt;AppModule</title>
<path fill="none" stroke="#000000" d="M400.2763,-122.1061C400.2763,-122.1061 400.2763,-140.991 400.2763,-140.991"/>
<polygon fill="#000000" stroke="#000000" points="396.7764,-140.9909 400.2763,-150.991 403.7764,-140.991 396.7764,-140.9909"/>
</g>
<!-- WorkflowModule -->
<g id="node6" class="node">
<title>WorkflowModule</title>
<polygon fill="#8dd3c7" stroke="#000000" points="306.5828,-122 303.5828,-126 282.5828,-126 279.5828,-122 189.4172,-122 189.4172,-86 306.5828,-86 306.5828,-122"/>
<text text-anchor="middle" x="248" y="-99.8" font-family="Times,serif" font-size="14.00" fill="#000000">WorkflowModule</text>
</g>
<!-- WorkflowModule&#45;&gt;AppModule -->
<g id="edge5" class="edge">
<title>WorkflowModule&#45;&gt;AppModule</title>
<path fill="none" stroke="#000000" d="M248,-122.0225C248,-139.3734 248,-163 248,-163 248,-163 379.0161,-163 379.0161,-163"/>
<polygon fill="#000000" stroke="#000000" points="379.0161,-166.5001 389.0161,-163 379.0161,-159.5001 379.0161,-166.5001"/>
</g>
<!-- OccopusConfigModule -->
<g id="node7" class="node">
<title>OccopusConfigModule</title>
<polygon fill="#8dd3c7" stroke="#000000" points="171.9186,-122 168.9186,-126 147.9186,-126 144.9186,-122 24.0814,-122 24.0814,-86 171.9186,-86 171.9186,-122"/>
<text text-anchor="middle" x="98" y="-99.8" font-family="Times,serif" font-size="14.00" fill="#000000">OccopusConfigModule</text>
</g>
<!-- OccopusConfigModule&#45;&gt;AppModule -->
<g id="edge6" class="edge">
<title>OccopusConfigModule&#45;&gt;AppModule</title>
<path fill="none" stroke="#000000" d="M98,-122.2843C98,-143.3211 98,-175 98,-175 98,-175 379.1625,-175 379.1625,-175"/>
<polygon fill="#000000" stroke="#000000" points="379.1625,-178.5001 389.1625,-175 379.1625,-171.5001 379.1625,-178.5001"/>
</g>
</g>
</svg>
