<?xml version="1.0" encoding="UTF-8" standalone="no"?>
<!DOCTYPE svg PUBLIC "-//W3C//DTD SVG 1.1//EN"
 "http://www.w3.org/Graphics/SVG/1.1/DTD/svg11.dtd">
<!-- Generated by graphviz version 2.40.1 (20161225.0304)
 -->
<!-- Title: dependencies Pages: 1 -->
<svg width="2121pt" height="284pt"
 viewBox="0.00 0.00 2121.00 284.00" xmlns="http://www.w3.org/2000/svg" xmlns:xlink="http://www.w3.org/1999/xlink">
<g id="graph0" class="graph" transform="scale(1 1) rotate(0) translate(4 280)">
<title>dependencies</title>
<polygon fill="#ffffff" stroke="transparent" points="-4,4 -4,-280 2117,-280 2117,4 -4,4"/>
<text text-anchor="start" x="1035.5091" y="-42.4" font-family="sans-serif" font-weight="bold" font-size="14.00" fill="#000000">Legend</text>
<polygon fill="#ffffb3" stroke="transparent" points="822.5,-10 822.5,-30 842.5,-30 842.5,-10 822.5,-10"/>
<text text-anchor="start" x="846.129" y="-15.4" font-family="sans-serif" font-size="14.00" fill="#000000"> &#160;Declarations</text>
<polygon fill="#8dd3c7" stroke="transparent" points="935.5,-10 935.5,-30 955.5,-30 955.5,-10 935.5,-10"/>
<text text-anchor="start" x="959.2251" y="-15.4" font-family="sans-serif" font-size="14.00" fill="#000000"> &#160;Module</text>
<polygon fill="#80b1d3" stroke="transparent" points="1021.5,-10 1021.5,-30 1041.5,-30 1041.5,-10 1021.5,-10"/>
<text text-anchor="start" x="1045.2812" y="-15.4" font-family="sans-serif" font-size="14.00" fill="#000000"> &#160;Bootstrap</text>
<polygon fill="#fdb462" stroke="transparent" points="1118.5,-10 1118.5,-30 1138.5,-30 1138.5,-10 1118.5,-10"/>
<text text-anchor="start" x="1142.1732" y="-15.4" font-family="sans-serif" font-size="14.00" fill="#000000"> &#160;Providers</text>
<polygon fill="#fb8072" stroke="transparent" points="1214.5,-10 1214.5,-30 1234.5,-30 1234.5,-10 1214.5,-10"/>
<text text-anchor="start" x="1238.2258" y="-15.4" font-family="sans-serif" font-size="14.00" fill="#000000"> &#160;Exports</text>
<g id="clust1" class="cluster">
<title>cluster_AppModule</title>
<polygon fill="none" stroke="#000000" stroke-dasharray="1,5" points="8,-70 8,-268 2105,-268 2105,-70 8,-70"/>
</g>
<g id="clust2" class="cluster">
<title>cluster_AppModule_declarations</title>
<polygon fill="none" stroke="#000000" points="1226,-78 1226,-130 2097,-130 2097,-78 1226,-78"/>
</g>
<g id="clust8" class="cluster">
<title>cluster_AppModule_imports</title>
<polygon fill="none" stroke="#000000" points="760,-78 760,-130 1218,-130 1218,-78 760,-78"/>
</g>
<g id="clust10" class="cluster">
<title>cluster_AppModule_bootstrap</title>
<polygon fill="none" stroke="#000000" points="988,-208 988,-260 1112,-260 1112,-208 988,-208"/>
</g>
<g id="clust11" class="cluster">
<title>cluster_AppModule_providers</title>
<polygon fill="none" stroke="#000000" points="16,-78 16,-130 752,-130 752,-78 16,-78"/>
</g>
<!-- AppComponent -->
<g id="node1" class="node">
<title>AppComponent</title>
<polygon fill="#ffffb3" stroke="#000000" points="2088.9399,-122 1983.0601,-122 1983.0601,-86 2088.9399,-86 2088.9399,-122"/>
<text text-anchor="middle" x="2036" y="-99.8" font-family="Times,serif" font-size="14.00" fill="#000000">AppComponent</text>
</g>
<!-- AppModule -->
<g id="node6" class="node">
<title>AppModule</title>
<polygon fill="#8dd3c7" stroke="#000000" points="1091.6571,-187 1088.6571,-191 1067.6571,-191 1064.6571,-187 1008.3429,-187 1008.3429,-151 1091.6571,-151 1091.6571,-187"/>
<text text-anchor="middle" x="1050" y="-164.8" font-family="Times,serif" font-size="14.00" fill="#000000">AppModule</text>
</g>
<!-- AppComponent&#45;&gt;AppModule -->
<g id="edge1" class="edge">
<title>AppComponent&#45;&gt;AppModule</title>
<path fill="none" stroke="#000000" d="M2036,-122.0908C2036,-145.1328 2036,-182 2036,-182 2036,-182 1101.7374,-182 1101.7374,-182"/>
<polygon fill="#000000" stroke="#000000" points="1101.7374,-178.5001 1091.7374,-182 1101.7374,-185.5001 1101.7374,-178.5001"/>
</g>
<!-- AuthenticatedUserComponent -->
<g id="node2" class="node">
<title>AuthenticatedUserComponent</title>
<polygon fill="#ffffb3" stroke="#000000" points="1965.2864,-122 1778.7136,-122 1778.7136,-86 1965.2864,-86 1965.2864,-122"/>
<text text-anchor="middle" x="1872" y="-99.8" font-family="Times,serif" font-size="14.00" fill="#000000">AuthenticatedUserComponent</text>
</g>
<!-- AuthenticatedUserComponent&#45;&gt;AppModule -->
<g id="edge2" class="edge">
<title>AuthenticatedUserComponent&#45;&gt;AppModule</title>
<path fill="none" stroke="#000000" d="M1872,-122.0449C1872,-143.6623 1872,-177 1872,-177 1872,-177 1101.8932,-177 1101.8932,-177"/>
<polygon fill="#000000" stroke="#000000" points="1101.8932,-173.5001 1091.8932,-177 1101.8932,-180.5001 1101.8932,-173.5001"/>
</g>
<!-- WorkflowMaintComponent -->
<g id="node3" class="node">
<title>WorkflowMaintComponent</title>
<polygon fill="#ffffb3" stroke="#000000" points="1761.3061,-122 1588.6939,-122 1588.6939,-86 1761.3061,-86 1761.3061,-122"/>
<text text-anchor="middle" x="1675" y="-99.8" font-family="Times,serif" font-size="14.00" fill="#000000">WorkflowMaintComponent</text>
</g>
<!-- WorkflowMaintComponent&#45;&gt;AppModule -->
<g id="edge3" class="edge">
<title>WorkflowMaintComponent&#45;&gt;AppModule</title>
<path fill="none" stroke="#000000" d="M1675,-122.2228C1675,-142.3652 1675,-172 1675,-172 1675,-172 1101.9785,-172 1101.9785,-172"/>
<polygon fill="#000000" stroke="#000000" points="1101.9785,-168.5001 1091.9785,-172 1101.9785,-175.5001 1101.9785,-168.5001"/>
</g>
<!-- WorkflowDetailComponent -->
<g id="node4" class="node">
<title>WorkflowDetailComponent</title>
<polygon fill="#ffffb3" stroke="#000000" points="1570.573,-122 1397.427,-122 1397.427,-86 1570.573,-86 1570.573,-122"/>
<text text-anchor="middle" x="1484" y="-99.8" font-family="Times,serif" font-size="14.00" fill="#000000">WorkflowDetailComponent</text>
</g>
<!-- WorkflowDetailComponent&#45;&gt;AppModule -->
<g id="edge4" class="edge">
<title>WorkflowDetailComponent&#45;&gt;AppModule</title>
<path fill="none" stroke="#000000" d="M1484,-122.2222C1484,-140.8285 1484,-167 1484,-167 1484,-167 1102.0081,-167 1102.0081,-167"/>
<polygon fill="#000000" stroke="#000000" points="1102.0081,-163.5001 1092.0081,-167 1102.0081,-170.5001 1102.0081,-163.5001"/>
</g>
<!-- ConnectionComponent -->
<g id="node5" class="node">
<title>ConnectionComponent</title>
<polygon fill="#ffffb3" stroke="#000000" points="1379.8794,-122 1234.1206,-122 1234.1206,-86 1379.8794,-86 1379.8794,-122"/>
<text text-anchor="middle" x="1307" y="-99.8" font-family="Times,serif" font-size="14.00" fill="#000000">ConnectionComponent</text>
</g>
<!-- ConnectionComponent&#45;&gt;AppModule -->
<g id="edge5" class="edge">
<title>ConnectionComponent&#45;&gt;AppModule</title>
<path fill="none" stroke="#000000" d="M1307,-122.0336C1307,-139.0597 1307,-162 1307,-162 1307,-162 1101.8635,-162 1101.8635,-162"/>
<polygon fill="#000000" stroke="#000000" points="1101.8635,-158.5001 1091.8635,-162 1101.8634,-165.5001 1101.8635,-158.5001"/>
</g>
<!-- AppComponent  -->
<g id="node11" class="node">
<title>AppComponent </title>
<polygon fill="#80b1d3" stroke="#000000" points="1104.439,-252 995.561,-252 995.561,-216 1104.439,-216 1104.439,-252"/>
<text text-anchor="middle" x="1050" y="-229.8" font-family="Times,serif" font-size="14.00" fill="#000000">AppComponent </text>
</g>
<!-- AppModule&#45;&gt;AppComponent  -->
<g id="edge10" class="edge">
<title>AppModule&#45;&gt;AppComponent </title>
<path fill="none" stroke="#000000" stroke-dasharray="1,5" d="M1050,-187.1061C1050,-187.1061 1050,-205.991 1050,-205.991"/>
<polygon fill="#000000" stroke="#000000" points="1046.5001,-205.9909 1050,-215.991 1053.5001,-205.991 1046.5001,-205.9909"/>
</g>
<!-- FwModule -->
<g id="node7" class="node">
<title>FwModule</title>
<polygon fill="#8dd3c7" stroke="#000000" points="1209.9403,-122 1206.9403,-126 1185.9403,-126 1182.9403,-122 1132.0597,-122 1132.0597,-86 1209.9403,-86 1209.9403,-122"/>
<text text-anchor="middle" x="1171" y="-99.8" font-family="Times,serif" font-size="14.00" fill="#000000">FwModule</text>
</g>
<!-- FwModule&#45;&gt;AppModule -->
<g id="edge6" class="edge">
<title>FwModule&#45;&gt;AppModule</title>
<path fill="none" stroke="#000000" d="M1171,-122.2396C1171,-137.5706 1171,-157 1171,-157 1171,-157 1101.9803,-157 1101.9803,-157"/>
<polygon fill="#000000" stroke="#000000" points="1101.9804,-153.5001 1091.9803,-157 1101.9803,-160.5001 1101.9804,-153.5001"/>
</g>
<!-- AppRoutingModule -->
<g id="node8" class="node">
<title>AppRoutingModule</title>
<polygon fill="#8dd3c7" stroke="#000000" points="1114.2744,-122 1111.2744,-126 1090.2744,-126 1087.2744,-122 985.7256,-122 985.7256,-86 1114.2744,-86 1114.2744,-122"/>
<text text-anchor="middle" x="1050" y="-99.8" font-family="Times,serif" font-size="14.00" fill="#000000">AppRoutingModule</text>
</g>
<!-- AppRoutingModule&#45;&gt;AppModule -->
<g id="edge7" class="edge">
<title>AppRoutingModule&#45;&gt;AppModule</title>
<path fill="none" stroke="#000000" d="M1050,-122.1061C1050,-122.1061 1050,-140.991 1050,-140.991"/>
<polygon fill="#000000" stroke="#000000" points="1046.5001,-140.9909 1050,-150.991 1053.5001,-140.991 1046.5001,-140.9909"/>
</g>
<!-- EditorModule -->
<g id="node9" class="node">
<title>EditorModule</title>
<polygon fill="#8dd3c7" stroke="#000000" points="967.0453,-122 964.0453,-126 943.0453,-126 940.0453,-122 872.9547,-122 872.9547,-86 967.0453,-86 967.0453,-122"/>
<text text-anchor="middle" x="920" y="-99.8" font-family="Times,serif" font-size="14.00" fill="#000000">EditorModule</text>
</g>
<!-- EditorModule&#45;&gt;AppModule -->
<g id="edge8" class="edge">
<title>EditorModule&#45;&gt;AppModule</title>
<path fill="none" stroke="#000000" d="M920,-122.2396C920,-137.5706 920,-157 920,-157 920,-157 998.1516,-157 998.1516,-157"/>
<polygon fill="#000000" stroke="#000000" points="998.1516,-160.5001 1008.1516,-157 998.1516,-153.5001 998.1516,-160.5001"/>
</g>
<!-- CoreModule -->
<g id="node10" class="node">
<title>CoreModule</title>
<polygon fill="#8dd3c7" stroke="#000000" points="854.2619,-122 851.2619,-126 830.2619,-126 827.2619,-122 767.7381,-122 767.7381,-86 854.2619,-86 854.2619,-122"/>
<text text-anchor="middle" x="811" y="-99.8" font-family="Times,serif" font-size="14.00" fill="#000000">CoreModule</text>
</g>
<!-- CoreModule&#45;&gt;AppModule -->
<g id="edge9" class="edge">
<title>CoreModule&#45;&gt;AppModule</title>
<path fill="none" stroke="#000000" d="M811,-122.0336C811,-139.0597 811,-162 811,-162 811,-162 998.0959,-162 998.0959,-162"/>
<polygon fill="#000000" stroke="#000000" points="998.0959,-165.5001 1008.0959,-162 998.0959,-158.5001 998.0959,-165.5001"/>
</g>
<!-- WorkflowEntryService -->
<g id="node12" class="node">
<title>WorkflowEntryService</title>
<ellipse fill="#fdb462" stroke="#000000" cx="643" cy="-104" rx="101.264" ry="18"/>
<text text-anchor="middle" x="643" y="-99.8" font-family="Times,serif" font-size="14.00" fill="#000000">WorkflowEntryService</text>
</g>
<!-- WorkflowEntryService&#45;&gt;AppModule -->
<g id="edge11" class="edge">
<title>WorkflowEntryService&#45;&gt;AppModule</title>
<path fill="none" stroke="#000000" d="M643,-122.2222C643,-140.8285 643,-167 643,-167 643,-167 997.9768,-167 997.9768,-167"/>
<polygon fill="#000000" stroke="#000000" points="997.9768,-170.5001 1007.9768,-167 997.9768,-163.5001 997.9768,-170.5001"/>
</g>
<!-- OccoService -->
<g id="node13" class="node">
<title>OccoService</title>
<ellipse fill="#fdb462" stroke="#000000" cx="464" cy="-104" rx="60.2306" ry="18"/>
<text text-anchor="middle" x="464" y="-99.8" font-family="Times,serif" font-size="14.00" fill="#000000">OccoService</text>
</g>
<!-- OccoService&#45;&gt;AppModule -->
<g id="edge12" class="edge">
<title>OccoService&#45;&gt;AppModule</title>
<path fill="none" stroke="#000000" d="M464,-122.2228C464,-142.3652 464,-172 464,-172 464,-172 998.3261,-172 998.3261,-172"/>
<polygon fill="#000000" stroke="#000000" points="998.3261,-175.5001 1008.3261,-172 998.3261,-168.5001 998.3261,-175.5001"/>
</g>
<!-- DialogService -->
<g id="node14" class="node">
<title>DialogService</title>
<ellipse fill="#fdb462" stroke="#000000" cx="319" cy="-104" rx="66.0492" ry="18"/>
<text text-anchor="middle" x="319" y="-99.8" font-family="Times,serif" font-size="14.00" fill="#000000">DialogService</text>
</g>
<!-- DialogService&#45;&gt;AppModule -->
<g id="edge13" class="edge">
<title>DialogService&#45;&gt;AppModule</title>
<path fill="none" stroke="#000000" d="M319,-122.0449C319,-143.6623 319,-177 319,-177 319,-177 998.3386,-177 998.3386,-177"/>
<polygon fill="#000000" stroke="#000000" points="998.3387,-180.5001 1008.3386,-177 998.3386,-173.5001 998.3387,-180.5001"/>
</g>
<!-- CloudMessagingService -->
<g id="node15" class="node">
<title>CloudMessagingService</title>
<ellipse fill="#fdb462" stroke="#000000" cx="129" cy="-104" rx="105.3779" ry="18"/>
<text text-anchor="middle" x="129" y="-99.8" font-family="Times,serif" font-size="14.00" fill="#000000">CloudMessagingService</text>
</g>
<!-- CloudMessagingService&#45;&gt;AppModule -->
<g id="edge14" class="edge">
<title>CloudMessagingService&#45;&gt;AppModule</title>
<path fill="none" stroke="#000000" d="M129,-122.0908C129,-145.1328 129,-182 129,-182 129,-182 998.3358,-182 998.3358,-182"/>
<polygon fill="#000000" stroke="#000000" points="998.3358,-185.5001 1008.3358,-182 998.3358,-178.5001 998.3358,-185.5001"/>
</g>
</g>
</svg>
