<?xml version="1.0" encoding="UTF-8" standalone="no"?>
<!DOCTYPE svg PUBLIC "-//W3C//DTD SVG 1.1//EN"
 "http://www.w3.org/Graphics/SVG/1.1/DTD/svg11.dtd">
<!-- Generated by graphviz version 2.40.1 (20161225.0304)
 -->
<!-- Title: dependencies Pages: 1 -->
<svg width="1175pt" height="284pt"
 viewBox="0.00 0.00 1175.00 284.00" xmlns="http://www.w3.org/2000/svg" xmlns:xlink="http://www.w3.org/1999/xlink">
<g id="graph0" class="graph" transform="scale(1 1) rotate(0) translate(4 280)">
<title>dependencies</title>
<polygon fill="#ffffff" stroke="transparent" points="-4,4 -4,-280 1171,-280 1171,4 -4,4"/>
<text text-anchor="start" x="562.5091" y="-42.4" font-family="sans-serif" font-weight="bold" font-size="14.00" fill="#000000">Legend</text>
<polygon fill="#ffffb3" stroke="transparent" points="349.5,-10 349.5,-30 369.5,-30 369.5,-10 349.5,-10"/>
<text text-anchor="start" x="373.129" y="-15.4" font-family="sans-serif" font-size="14.00" fill="#000000"> &#160;Declarations</text>
<polygon fill="#8dd3c7" stroke="transparent" points="462.5,-10 462.5,-30 482.5,-30 482.5,-10 462.5,-10"/>
<text text-anchor="start" x="486.2251" y="-15.4" font-family="sans-serif" font-size="14.00" fill="#000000"> &#160;Module</text>
<polygon fill="#80b1d3" stroke="transparent" points="548.5,-10 548.5,-30 568.5,-30 568.5,-10 548.5,-10"/>
<text text-anchor="start" x="572.2812" y="-15.4" font-family="sans-serif" font-size="14.00" fill="#000000"> &#160;Bootstrap</text>
<polygon fill="#fdb462" stroke="transparent" points="645.5,-10 645.5,-30 665.5,-30 665.5,-10 645.5,-10"/>
<text text-anchor="start" x="669.1732" y="-15.4" font-family="sans-serif" font-size="14.00" fill="#000000"> &#160;Providers</text>
<polygon fill="#fb8072" stroke="transparent" points="741.5,-10 741.5,-30 761.5,-30 761.5,-10 741.5,-10"/>
<text text-anchor="start" x="765.2258" y="-15.4" font-family="sans-serif" font-size="14.00" fill="#000000"> &#160;Exports</text>
<g id="clust1" class="cluster">
<title>cluster_AppModule</title>
<polygon fill="none" stroke="#000000" stroke-dasharray="1,5" points="8,-70 8,-268 1159,-268 1159,-70 8,-70"/>
</g>
<g id="clust2" class="cluster">
<title>cluster_AppModule_declarations</title>
<polygon fill="none" stroke="#000000" points="661,-78 661,-130 1151,-130 1151,-78 661,-78"/>
</g>
<g id="clust6" class="cluster">
<title>cluster_AppModule_imports</title>
<polygon fill="none" stroke="#000000" points="172,-78 172,-130 653,-130 653,-78 172,-78"/>
</g>
<g id="clust8" class="cluster">
<title>cluster_AppModule_bootstrap</title>
<polygon fill="none" stroke="#000000" points="483,-208 483,-260 607,-260 607,-208 483,-208"/>
</g>
<g id="clust9" class="cluster">
<title>cluster_AppModule_providers</title>
<polygon fill="none" stroke="#000000" points="16,-78 16,-130 164,-130 164,-78 16,-78"/>
</g>
<!-- AppComponent -->
<g id="node1" class="node">
<title>AppComponent</title>
<polygon fill="#ffffb3" stroke="#000000" points="1142.9399,-122 1037.0601,-122 1037.0601,-86 1142.9399,-86 1142.9399,-122"/>
<text text-anchor="middle" x="1090" y="-99.8" font-family="Times,serif" font-size="14.00" fill="#000000">AppComponent</text>
</g>
<!-- AppModule -->
<g id="node4" class="node">
<title>AppModule</title>
<polygon fill="#8dd3c7" stroke="#000000" points="586.6571,-187 583.6571,-191 562.6571,-191 559.6571,-187 503.3429,-187 503.3429,-151 586.6571,-151 586.6571,-187"/>
<text text-anchor="middle" x="545" y="-164.8" font-family="Times,serif" font-size="14.00" fill="#000000">AppModule</text>
</g>
<!-- AppComponent&#45;&gt;AppModule -->
<g id="edge1" class="edge">
<title>AppComponent&#45;&gt;AppModule</title>
<path fill="none" stroke="#000000" d="M1090,-122.2921C1090,-144.2057 1090,-178 1090,-178 1090,-178 596.8603,-178 596.8603,-178"/>
<polygon fill="#000000" stroke="#000000" points="596.8603,-174.5001 586.8603,-178 596.8603,-181.5001 596.8603,-174.5001"/>
</g>
<!-- AuthenticatedUserComponent -->
<g id="node2" class="node">
<title>AuthenticatedUserComponent</title>
<polygon fill="#ffffb3" stroke="#000000" points="1019.2864,-122 832.7136,-122 832.7136,-86 1019.2864,-86 1019.2864,-122"/>
<text text-anchor="middle" x="926" y="-99.8" font-family="Times,serif" font-size="14.00" fill="#000000">AuthenticatedUserComponent</text>
</g>
<!-- AuthenticatedUserComponent&#45;&gt;AppModule -->
<g id="edge2" class="edge">
<title>AuthenticatedUserComponent&#45;&gt;AppModule</title>
<path fill="none" stroke="#000000" d="M926,-122.1061C926,-141.3391 926,-169 926,-169 926,-169 596.8635,-169 596.8635,-169"/>
<polygon fill="#000000" stroke="#000000" points="596.8636,-165.5001 586.8635,-169 596.8635,-172.5001 596.8636,-165.5001"/>
</g>
<!-- ConnectionComponent -->
<g id="node3" class="node">
<title>ConnectionComponent</title>
<polygon fill="#ffffb3" stroke="#000000" points="814.8794,-122 669.1206,-122 669.1206,-86 814.8794,-86 814.8794,-122"/>
<text text-anchor="middle" x="742" y="-99.8" font-family="Times,serif" font-size="14.00" fill="#000000">ConnectionComponent</text>
</g>
<!-- ConnectionComponent&#45;&gt;AppModule -->
<g id="edge3" class="edge">
<title>ConnectionComponent&#45;&gt;AppModule</title>
<path fill="none" stroke="#000000" d="M742,-122.027C742,-138.3976 742,-160 742,-160 742,-160 596.7786,-160 596.7786,-160"/>
<polygon fill="#000000" stroke="#000000" points="596.7787,-156.5001 586.7786,-160 596.7786,-163.5001 596.7787,-156.5001"/>
</g>
<!-- AppComponent  -->
<g id="node9" class="node">
<title>AppComponent </title>
<polygon fill="#80b1d3" stroke="#000000" points="599.439,-252 490.561,-252 490.561,-216 599.439,-216 599.439,-252"/>
<text text-anchor="middle" x="545" y="-229.8" font-family="Times,serif" font-size="14.00" fill="#000000">AppComponent </text>
</g>
<!-- AppModule&#45;&gt;AppComponent  -->
<g id="edge8" class="edge">
<title>AppModule&#45;&gt;AppComponent </title>
<path fill="none" stroke="#000000" stroke-dasharray="1,5" d="M545,-187.1061C545,-187.1061 545,-205.991 545,-205.991"/>
<polygon fill="#000000" stroke="#000000" points="541.5001,-205.9909 545,-215.991 548.5001,-205.991 541.5001,-205.9909"/>
</g>
<!-- FwModule -->
<g id="node5" class="node">
<title>FwModule</title>
<polygon fill="#8dd3c7" stroke="#000000" points="644.9403,-122 641.9403,-126 620.9403,-126 617.9403,-122 567.0597,-122 567.0597,-86 644.9403,-86 644.9403,-122"/>
<text text-anchor="middle" x="606" y="-99.8" font-family="Times,serif" font-size="14.00" fill="#000000">FwModule</text>
</g>
<!-- FwModule&#45;&gt;AppModule -->
<g id="edge4" class="edge">
<title>FwModule&#45;&gt;AppModule</title>
<path fill="none" stroke="#000000" d="M577.0544,-122.1061C577.0544,-122.1061 577.0544,-140.991 577.0544,-140.991"/>
<polygon fill="#000000" stroke="#000000" points="573.5544,-140.9909 577.0544,-150.991 580.5544,-140.991 573.5544,-140.9909"/>
</g>
<!-- AppRoutingModule -->
<g id="node6" class="node">
<title>AppRoutingModule</title>
<polygon fill="#8dd3c7" stroke="#000000" points="549.2744,-122 546.2744,-126 525.2744,-126 522.2744,-122 420.7256,-122 420.7256,-86 549.2744,-86 549.2744,-122"/>
<text text-anchor="middle" x="485" y="-99.8" font-family="Times,serif" font-size="14.00" fill="#000000">AppRoutingModule</text>
</g>
<!-- AppRoutingModule&#45;&gt;AppModule -->
<g id="edge5" class="edge">
<title>AppRoutingModule&#45;&gt;AppModule</title>
<path fill="none" stroke="#000000" d="M526.2795,-122.1061C526.2795,-122.1061 526.2795,-140.991 526.2795,-140.991"/>
<polygon fill="#000000" stroke="#000000" points="522.7795,-140.9909 526.2795,-150.991 529.7795,-140.991 522.7795,-140.9909"/>
</g>
<!-- CoreModule -->
<g id="node7" class="node">
<title>CoreModule</title>
<polygon fill="#8dd3c7" stroke="#000000" points="402.2619,-122 399.2619,-126 378.2619,-126 375.2619,-122 315.7381,-122 315.7381,-86 402.2619,-86 402.2619,-122"/>
<text text-anchor="middle" x="359" y="-99.8" font-family="Times,serif" font-size="14.00" fill="#000000">CoreModule</text>
</g>
<!-- CoreModule&#45;&gt;AppModule -->
<g id="edge6" class="edge">
<title>CoreModule&#45;&gt;AppModule</title>
<path fill="none" stroke="#000000" d="M359,-122.027C359,-138.3976 359,-160 359,-160 359,-160 493.258,-160 493.258,-160"/>
<polygon fill="#000000" stroke="#000000" points="493.258,-163.5001 503.258,-160 493.2579,-156.5001 493.258,-163.5001"/>
</g>
<!-- WorkflowModule -->
<g id="node8" class="node">
<title>WorkflowModule</title>
<polygon fill="#8dd3c7" stroke="#000000" points="297.5828,-122 294.5828,-126 273.5828,-126 270.5828,-122 180.4172,-122 180.4172,-86 297.5828,-86 297.5828,-122"/>
<text text-anchor="middle" x="239" y="-99.8" font-family="Times,serif" font-size="14.00" fill="#000000">WorkflowModule</text>
</g>
<!-- WorkflowModule&#45;&gt;AppModule -->
<g id="edge7" class="edge">
<title>WorkflowModule&#45;&gt;AppModule</title>
<path fill="none" stroke="#000000" d="M239,-122.1061C239,-141.3391 239,-169 239,-169 239,-169 493.0936,-169 493.0936,-169"/>
<polygon fill="#000000" stroke="#000000" points="493.0937,-172.5001 503.0936,-169 493.0936,-165.5001 493.0937,-172.5001"/>
</g>
<!-- DialogService -->
<g id="node10" class="node">
<title>DialogService</title>
<ellipse fill="#fdb462" stroke="#000000" cx="90" cy="-104" rx="66.0492" ry="18"/>
<text text-anchor="middle" x="90" y="-99.8" font-family="Times,serif" font-size="14.00" fill="#000000">DialogService</text>
</g>
<!-- DialogService&#45;&gt;AppModule -->
<g id="edge9" class="edge">
<title>DialogService&#45;&gt;AppModule</title>
<path fill="none" stroke="#000000" d="M90,-122.2921C90,-144.2057 90,-178 90,-178 90,-178 493.0103,-178 493.0103,-178"/>
<polygon fill="#000000" stroke="#000000" points="493.0103,-181.5001 503.0103,-178 493.0102,-174.5001 493.0103,-181.5001"/>
</g>
</g>
</svg>
