<?xml version="1.0" encoding="UTF-8" standalone="no"?>
<!DOCTYPE svg PUBLIC "-//W3C//DTD SVG 1.1//EN"
 "http://www.w3.org/Graphics/SVG/1.1/DTD/svg11.dtd">
<!-- Generated by graphviz version 2.40.1 (20161225.0304)
 -->
<!-- Title: dependencies Pages: 1 -->
<svg width="3765pt" height="284pt"
 viewBox="0.00 0.00 3765.00 284.00" xmlns="http://www.w3.org/2000/svg" xmlns:xlink="http://www.w3.org/1999/xlink">
<g id="graph0" class="graph" transform="scale(1 1) rotate(0) translate(4 280)">
<title>dependencies</title>
<polygon fill="#ffffff" stroke="transparent" points="-4,4 -4,-280 3761,-280 3761,4 -4,4"/>
<text text-anchor="start" x="1857.5091" y="-42.4" font-family="sans-serif" font-weight="bold" font-size="14.00" fill="#000000">Legend</text>
<polygon fill="#ffffb3" stroke="transparent" points="1644.5,-10 1644.5,-30 1664.5,-30 1664.5,-10 1644.5,-10"/>
<text text-anchor="start" x="1668.129" y="-15.4" font-family="sans-serif" font-size="14.00" fill="#000000"> &#160;Declarations</text>
<polygon fill="#8dd3c7" stroke="transparent" points="1757.5,-10 1757.5,-30 1777.5,-30 1777.5,-10 1757.5,-10"/>
<text text-anchor="start" x="1781.2251" y="-15.4" font-family="sans-serif" font-size="14.00" fill="#000000"> &#160;Module</text>
<polygon fill="#80b1d3" stroke="transparent" points="1843.5,-10 1843.5,-30 1863.5,-30 1863.5,-10 1843.5,-10"/>
<text text-anchor="start" x="1867.2812" y="-15.4" font-family="sans-serif" font-size="14.00" fill="#000000"> &#160;Bootstrap</text>
<polygon fill="#fdb462" stroke="transparent" points="1940.5,-10 1940.5,-30 1960.5,-30 1960.5,-10 1940.5,-10"/>
<text text-anchor="start" x="1964.1732" y="-15.4" font-family="sans-serif" font-size="14.00" fill="#000000"> &#160;Providers</text>
<polygon fill="#fb8072" stroke="transparent" points="2036.5,-10 2036.5,-30 2056.5,-30 2056.5,-10 2036.5,-10"/>
<text text-anchor="start" x="2060.2258" y="-15.4" font-family="sans-serif" font-size="14.00" fill="#000000"> &#160;Exports</text>
<g id="clust1" class="cluster">
<title>cluster_AppModule</title>
<polygon fill="none" stroke="#000000" stroke-dasharray="1,5" points="8,-70 8,-268 3749,-268 3749,-70 8,-70"/>
</g>
<g id="clust2" class="cluster">
<title>cluster_AppModule_declarations</title>
<polygon fill="none" stroke="#000000" points="1706,-78 1706,-130 3741,-130 3741,-78 1706,-78"/>
</g>
<g id="clust15" class="cluster">
<title>cluster_AppModule_imports</title>
<polygon fill="none" stroke="#000000" points="1492,-78 1492,-130 1698,-130 1698,-78 1492,-78"/>
</g>
<g id="clust17" class="cluster">
<title>cluster_AppModule_bootstrap</title>
<polygon fill="none" stroke="#000000" points="1834,-208 1834,-260 1958,-260 1958,-208 1834,-208"/>
</g>
<g id="clust18" class="cluster">
<title>cluster_AppModule_providers</title>
<polygon fill="none" stroke="#000000" points="16,-78 16,-130 1484,-130 1484,-78 16,-78"/>
</g>
<!-- AppComponent -->
<g id="node1" class="node">
<title>AppComponent</title>
<polygon fill="#ffffb3" stroke="#000000" points="3732.9399,-122 3627.0601,-122 3627.0601,-86 3732.9399,-86 3732.9399,-122"/>
<text text-anchor="middle" x="3680" y="-99.8" font-family="Times,serif" font-size="14.00" fill="#000000">AppComponent</text>
</g>
<!-- AppModule -->
<g id="node13" class="node">
<title>AppModule</title>
<polygon fill="#8dd3c7" stroke="#000000" points="1937.6571,-187 1934.6571,-191 1913.6571,-191 1910.6571,-187 1854.3429,-187 1854.3429,-151 1937.6571,-151 1937.6571,-187"/>
<text text-anchor="middle" x="1896" y="-164.8" font-family="Times,serif" font-size="14.00" fill="#000000">AppModule</text>
</g>
<!-- AppComponent&#45;&gt;AppModule -->
<g id="edge1" class="edge">
<title>AppComponent&#45;&gt;AppModule</title>
<path fill="none" stroke="#000000" d="M3680,-122.1532C3680,-145.7566 3680,-184 3680,-184 3680,-184 1947.9048,-184 1947.9048,-184"/>
<polygon fill="#000000" stroke="#000000" points="1947.9049,-180.5001 1937.9048,-184 1947.9048,-187.5001 1947.9049,-180.5001"/>
</g>
<!-- DashboardComponent -->
<g id="node2" class="node">
<title>DashboardComponent</title>
<polygon fill="#ffffb3" stroke="#000000" points="3608.9734,-122 3467.0266,-122 3467.0266,-86 3608.9734,-86 3608.9734,-122"/>
<text text-anchor="middle" x="3538" y="-99.8" font-family="Times,serif" font-size="14.00" fill="#000000">DashboardComponent</text>
</g>
<!-- DashboardComponent&#45;&gt;AppModule -->
<g id="edge2" class="edge">
<title>DashboardComponent&#45;&gt;AppModule</title>
<path fill="none" stroke="#000000" d="M3538,-122.2479C3538,-145.0179 3538,-181 3538,-181 3538,-181 1947.8237,-181 1947.8237,-181"/>
<polygon fill="#000000" stroke="#000000" points="1947.8237,-177.5001 1937.8237,-181 1947.8237,-184.5001 1947.8237,-177.5001"/>
</g>
<!-- CountryDetailComponent -->
<g id="node3" class="node">
<title>CountryDetailComponent</title>
<polygon fill="#ffffb3" stroke="#000000" points="3448.9284,-122 3287.0716,-122 3287.0716,-86 3448.9284,-86 3448.9284,-122"/>
<text text-anchor="middle" x="3368" y="-99.8" font-family="Times,serif" font-size="14.00" fill="#000000">CountryDetailComponent</text>
</g>
<!-- CountryDetailComponent&#45;&gt;AppModule -->
<g id="edge3" class="edge">
<title>CountryDetailComponent&#45;&gt;AppModule</title>
<path fill="none" stroke="#000000" d="M3368,-122.2921C3368,-144.2057 3368,-178 3368,-178 3368,-178 1947.683,-178 1947.683,-178"/>
<polygon fill="#000000" stroke="#000000" points="1947.683,-174.5001 1937.683,-178 1947.6829,-181.5001 1947.683,-174.5001"/>
</g>
<!-- CountryListComponent -->
<g id="node4" class="node">
<title>CountryListComponent</title>
<polygon fill="#ffffb3" stroke="#000000" points="3269.4986,-122 3120.5014,-122 3120.5014,-86 3269.4986,-86 3269.4986,-122"/>
<text text-anchor="middle" x="3195" y="-99.8" font-family="Times,serif" font-size="14.00" fill="#000000">CountryListComponent</text>
</g>
<!-- CountryListComponent&#45;&gt;AppModule -->
<g id="edge4" class="edge">
<title>CountryListComponent&#45;&gt;AppModule</title>
<path fill="none" stroke="#000000" d="M3195,-122.0267C3195,-142.7672 3195,-174 3195,-174 3195,-174 1947.7488,-174 1947.7488,-174"/>
<polygon fill="#000000" stroke="#000000" points="1947.7489,-170.5001 1937.7488,-174 1947.7488,-177.5001 1947.7489,-170.5001"/>
</g>
<!-- CountryMaintComponent -->
<g id="node5" class="node">
<title>CountryMaintComponent</title>
<polygon fill="#ffffb3" stroke="#000000" points="3102.161,-122 2941.839,-122 2941.839,-86 3102.161,-86 3102.161,-122"/>
<text text-anchor="middle" x="3022" y="-99.8" font-family="Times,serif" font-size="14.00" fill="#000000">CountryMaintComponent</text>
</g>
<!-- CountryMaintComponent&#45;&gt;AppModule -->
<g id="edge5" class="edge">
<title>CountryMaintComponent&#45;&gt;AppModule</title>
<path fill="none" stroke="#000000" d="M3022,-122.308C3022,-142.1455 3022,-171 3022,-171 3022,-171 1947.7473,-171 1947.7473,-171"/>
<polygon fill="#000000" stroke="#000000" points="1947.7473,-167.5001 1937.7473,-171 1947.7473,-174.5001 1947.7473,-167.5001"/>
</g>
<!-- AuthenticatedUserComponent -->
<g id="node6" class="node">
<title>AuthenticatedUserComponent</title>
<polygon fill="#ffffb3" stroke="#000000" points="2924.2864,-122 2737.7136,-122 2737.7136,-86 2924.2864,-86 2924.2864,-122"/>
<text text-anchor="middle" x="2831" y="-99.8" font-family="Times,serif" font-size="14.00" fill="#000000">AuthenticatedUserComponent</text>
</g>
<!-- AuthenticatedUserComponent&#45;&gt;AppModule -->
<g id="edge6" class="edge">
<title>AuthenticatedUserComponent&#45;&gt;AppModule</title>
<path fill="none" stroke="#000000" d="M2831,-122.1686C2831,-141.0898 2831,-168 2831,-168 2831,-168 1947.6863,-168 1947.6863,-168"/>
<polygon fill="#000000" stroke="#000000" points="1947.6864,-164.5001 1937.6863,-168 1947.6863,-171.5001 1947.6864,-164.5001"/>
</g>
<!-- CountryPanelComponent -->
<g id="node7" class="node">
<title>CountryPanelComponent</title>
<polygon fill="#ffffb3" stroke="#000000" points="2720.3229,-122 2561.6771,-122 2561.6771,-86 2720.3229,-86 2720.3229,-122"/>
<text text-anchor="middle" x="2641" y="-99.8" font-family="Times,serif" font-size="14.00" fill="#000000">CountryPanelComponent</text>
</g>
<!-- CountryPanelComponent&#45;&gt;AppModule -->
<g id="edge7" class="edge">
<title>CountryPanelComponent&#45;&gt;AppModule</title>
<path fill="none" stroke="#000000" d="M2641,-122.302C2641,-140.2699 2641,-165 2641,-165 2641,-165 1947.9195,-165 1947.9195,-165"/>
<polygon fill="#000000" stroke="#000000" points="1947.9196,-161.5001 1937.9195,-165 1947.9195,-168.5001 1947.9196,-161.5001"/>
</g>
<!-- ImagePanelComponent -->
<g id="node8" class="node">
<title>ImagePanelComponent</title>
<polygon fill="#ffffb3" stroke="#000000" points="2543.9158,-122 2396.0842,-122 2396.0842,-86 2543.9158,-86 2543.9158,-122"/>
<text text-anchor="middle" x="2470" y="-99.8" font-family="Times,serif" font-size="14.00" fill="#000000">ImagePanelComponent</text>
</g>
<!-- ImagePanelComponent&#45;&gt;AppModule -->
<g id="edge8" class="edge">
<title>ImagePanelComponent&#45;&gt;AppModule</title>
<path fill="none" stroke="#000000" d="M2470,-122.0352C2470,-138.7344 2470,-161 2470,-161 2470,-161 1947.743,-161 1947.743,-161"/>
<polygon fill="#000000" stroke="#000000" points="1947.7431,-157.5001 1937.743,-161 1947.743,-164.5001 1947.7431,-157.5001"/>
</g>
<!-- NodeDefComponent -->
<g id="node9" class="node">
<title>NodeDefComponent</title>
<polygon fill="#ffffb3" stroke="#000000" points="2378.1359,-122 2245.8641,-122 2245.8641,-86 2378.1359,-86 2378.1359,-122"/>
<text text-anchor="middle" x="2312" y="-99.8" font-family="Times,serif" font-size="14.00" fill="#000000">NodeDefComponent</text>
</g>
<!-- NodeDefComponent&#45;&gt;AppModule -->
<g id="edge9" class="edge">
<title>NodeDefComponent&#45;&gt;AppModule</title>
<path fill="none" stroke="#000000" d="M2312,-122.2819C2312,-137.9478 2312,-158 2312,-158 2312,-158 1947.7924,-158 1947.7924,-158"/>
<polygon fill="#000000" stroke="#000000" points="1947.7924,-154.5001 1937.7924,-158 1947.7923,-161.5001 1947.7924,-154.5001"/>
</g>
<!-- AuthFileComponent -->
<g id="node10" class="node">
<title>AuthFileComponent</title>
<polygon fill="#ffffb3" stroke="#000000" points="2227.608,-122 2096.392,-122 2096.392,-86 2227.608,-86 2227.608,-122"/>
<text text-anchor="middle" x="2162" y="-99.8" font-family="Times,serif" font-size="14.00" fill="#000000">AuthFileComponent</text>
</g>
<!-- AuthFileComponent&#45;&gt;AppModule -->
<g id="edge10" class="edge">
<title>AuthFileComponent&#45;&gt;AppModule</title>
<path fill="none" stroke="#000000" d="M2162,-122.1243C2162,-136.7832 2162,-155 2162,-155 2162,-155 1947.8551,-155 1947.8551,-155"/>
<polygon fill="#000000" stroke="#000000" points="1947.8552,-151.5001 1937.8551,-155 1947.8551,-158.5001 1947.8552,-151.5001"/>
</g>
<!-- WorkflowMaintComponent -->
<g id="node11" class="node">
<title>WorkflowMaintComponent</title>
<polygon fill="#ffffb3" stroke="#000000" points="2078.3061,-122 1905.6939,-122 1905.6939,-86 2078.3061,-86 2078.3061,-122"/>
<text text-anchor="middle" x="1992" y="-99.8" font-family="Times,serif" font-size="14.00" fill="#000000">WorkflowMaintComponent</text>
</g>
<!-- WorkflowMaintComponent&#45;&gt;AppModule -->
<g id="edge11" class="edge">
<title>WorkflowMaintComponent&#45;&gt;AppModule</title>
<path fill="none" stroke="#000000" d="M1921.8377,-122.1061C1921.8377,-122.1061 1921.8377,-140.991 1921.8377,-140.991"/>
<polygon fill="#000000" stroke="#000000" points="1918.3377,-140.9909 1921.8377,-150.991 1925.3377,-140.991 1918.3377,-140.9909"/>
</g>
<!-- WorkflowDetailComponent -->
<g id="node12" class="node">
<title>WorkflowDetailComponent</title>
<polygon fill="#ffffb3" stroke="#000000" points="1887.573,-122 1714.427,-122 1714.427,-86 1887.573,-86 1887.573,-122"/>
<text text-anchor="middle" x="1801" y="-99.8" font-family="Times,serif" font-size="14.00" fill="#000000">WorkflowDetailComponent</text>
</g>
<!-- WorkflowDetailComponent&#45;&gt;AppModule -->
<g id="edge12" class="edge">
<title>WorkflowDetailComponent&#45;&gt;AppModule</title>
<path fill="none" stroke="#000000" d="M1870.8542,-122.1061C1870.8542,-122.1061 1870.8542,-140.991 1870.8542,-140.991"/>
<polygon fill="#000000" stroke="#000000" points="1867.3542,-140.9909 1870.8542,-150.991 1874.3542,-140.991 1867.3542,-140.9909"/>
</g>
<!-- AppComponent  -->
<g id="node16" class="node">
<title>AppComponent </title>
<polygon fill="#80b1d3" stroke="#000000" points="1950.439,-252 1841.561,-252 1841.561,-216 1950.439,-216 1950.439,-252"/>
<text text-anchor="middle" x="1896" y="-229.8" font-family="Times,serif" font-size="14.00" fill="#000000">AppComponent </text>
</g>
<!-- AppModule&#45;&gt;AppComponent  -->
<g id="edge15" class="edge">
<title>AppModule&#45;&gt;AppComponent </title>
<path fill="none" stroke="#000000" stroke-dasharray="1,5" d="M1896,-187.1061C1896,-187.1061 1896,-205.991 1896,-205.991"/>
<polygon fill="#000000" stroke="#000000" points="1892.5001,-205.9909 1896,-215.991 1899.5001,-205.991 1892.5001,-205.9909"/>
</g>
<!-- FwModule -->
<g id="node14" class="node">
<title>FwModule</title>
<polygon fill="#8dd3c7" stroke="#000000" points="1689.9403,-122 1686.9403,-126 1665.9403,-126 1662.9403,-122 1612.0597,-122 1612.0597,-86 1689.9403,-86 1689.9403,-122"/>
<text text-anchor="middle" x="1651" y="-99.8" font-family="Times,serif" font-size="14.00" fill="#000000">FwModule</text>
</g>
<!-- FwModule&#45;&gt;AppModule -->
<g id="edge13" class="edge">
<title>FwModule&#45;&gt;AppModule</title>
<path fill="none" stroke="#000000" d="M1651,-122.1243C1651,-136.7832 1651,-155 1651,-155 1651,-155 1844.1614,-155 1844.1614,-155"/>
<polygon fill="#000000" stroke="#000000" points="1844.1614,-158.5001 1854.1614,-155 1844.1613,-151.5001 1844.1614,-158.5001"/>
</g>
<!-- EditorModule -->
<g id="node15" class="node">
<title>EditorModule</title>
<polygon fill="#8dd3c7" stroke="#000000" points="1594.0453,-122 1591.0453,-126 1570.0453,-126 1567.0453,-122 1499.9547,-122 1499.9547,-86 1594.0453,-86 1594.0453,-122"/>
<text text-anchor="middle" x="1547" y="-99.8" font-family="Times,serif" font-size="14.00" fill="#000000">EditorModule</text>
</g>
<!-- EditorModule&#45;&gt;AppModule -->
<g id="edge14" class="edge">
<title>EditorModule&#45;&gt;AppModule</title>
<path fill="none" stroke="#000000" d="M1547,-122.2819C1547,-137.9478 1547,-158 1547,-158 1547,-158 1844.2491,-158 1844.2491,-158"/>
<polygon fill="#000000" stroke="#000000" points="1844.2491,-161.5001 1854.2491,-158 1844.2491,-154.5001 1844.2491,-161.5001"/>
</g>
<!-- UserService -->
<g id="node17" class="node">
<title>UserService</title>
<ellipse fill="#fdb462" stroke="#000000" cx="1418" cy="-104" rx="58.4415" ry="18"/>
<text text-anchor="middle" x="1418" y="-99.8" font-family="Times,serif" font-size="14.00" fill="#000000">UserService</text>
</g>
<!-- UserService&#45;&gt;AppModule -->
<g id="edge16" class="edge">
<title>UserService&#45;&gt;AppModule</title>
<path fill="none" stroke="#000000" d="M1418,-122.0352C1418,-138.7344 1418,-161 1418,-161 1418,-161 1843.9996,-161 1843.9996,-161"/>
<polygon fill="#000000" stroke="#000000" points="1843.9997,-164.5001 1853.9996,-161 1843.9996,-157.5001 1843.9997,-164.5001"/>
</g>
<!-- AuthGuard -->
<g id="node18" class="node">
<title>AuthGuard</title>
<ellipse fill="#fdb462" stroke="#000000" cx="1287" cy="-104" rx="54.4566" ry="18"/>
<text text-anchor="middle" x="1287" y="-99.8" font-family="Times,serif" font-size="14.00" fill="#000000">AuthGuard</text>
</g>
<!-- AuthGuard&#45;&gt;AppModule -->
<g id="edge17" class="edge">
<title>AuthGuard&#45;&gt;AppModule</title>
<path fill="none" stroke="#000000" d="M1287,-122.302C1287,-140.2699 1287,-165 1287,-165 1287,-165 1844.141,-165 1844.141,-165"/>
<polygon fill="#000000" stroke="#000000" points="1844.141,-168.5001 1854.141,-165 1844.1409,-161.5001 1844.141,-168.5001"/>
</g>
<!-- AppDataService -->
<g id="node19" class="node">
<title>AppDataService</title>
<ellipse fill="#fdb462" stroke="#000000" cx="1140" cy="-104" rx="74.6976" ry="18"/>
<text text-anchor="middle" x="1140" y="-99.8" font-family="Times,serif" font-size="14.00" fill="#000000">AppDataService</text>
</g>
<!-- AppDataService&#45;&gt;AppModule -->
<g id="edge18" class="edge">
<title>AppDataService&#45;&gt;AppModule</title>
<path fill="none" stroke="#000000" d="M1140,-122.1686C1140,-141.0898 1140,-168 1140,-168 1140,-168 1844.2773,-168 1844.2773,-168"/>
<polygon fill="#000000" stroke="#000000" points="1844.2773,-171.5001 1854.2773,-168 1844.2773,-164.5001 1844.2773,-171.5001"/>
</g>
<!-- WorkflowEntryService -->
<g id="node20" class="node">
<title>WorkflowEntryService</title>
<ellipse fill="#fdb462" stroke="#000000" cx="946" cy="-104" rx="101.264" ry="18"/>
<text text-anchor="middle" x="946" y="-99.8" font-family="Times,serif" font-size="14.00" fill="#000000">WorkflowEntryService</text>
</g>
<!-- WorkflowEntryService&#45;&gt;AppModule -->
<g id="edge19" class="edge">
<title>WorkflowEntryService&#45;&gt;AppModule</title>
<path fill="none" stroke="#000000" d="M946,-122.308C946,-142.1455 946,-171 946,-171 946,-171 1844.2619,-171 1844.2619,-171"/>
<polygon fill="#000000" stroke="#000000" points="1844.2619,-174.5001 1854.2619,-171 1844.2618,-167.5001 1844.2619,-174.5001"/>
</g>
<!-- OccoService -->
<g id="node21" class="node">
<title>OccoService</title>
<ellipse fill="#fdb462" stroke="#000000" cx="767" cy="-104" rx="60.2306" ry="18"/>
<text text-anchor="middle" x="767" y="-99.8" font-family="Times,serif" font-size="14.00" fill="#000000">OccoService</text>
</g>
<!-- OccoService&#45;&gt;AppModule -->
<g id="edge20" class="edge">
<title>OccoService&#45;&gt;AppModule</title>
<path fill="none" stroke="#000000" d="M767,-122.0267C767,-142.7672 767,-174 767,-174 767,-174 1844.1415,-174 1844.1415,-174"/>
<polygon fill="#000000" stroke="#000000" points="1844.1415,-177.5001 1854.1415,-174 1844.1414,-170.5001 1844.1415,-177.5001"/>
</g>
<!-- WorkflowDetailResolver -->
<g id="node22" class="node">
<title>WorkflowDetailResolver</title>
<ellipse fill="#fdb462" stroke="#000000" cx="580" cy="-104" rx="108.7845" ry="18"/>
<text text-anchor="middle" x="580" y="-99.8" font-family="Times,serif" font-size="14.00" fill="#000000">WorkflowDetailResolver</text>
</g>
<!-- WorkflowDetailResolver&#45;&gt;AppModule -->
<g id="edge21" class="edge">
<title>WorkflowDetailResolver&#45;&gt;AppModule</title>
<path fill="none" stroke="#000000" d="M580,-122.2921C580,-144.2057 580,-178 580,-178 580,-178 1844.0737,-178 1844.0737,-178"/>
<polygon fill="#000000" stroke="#000000" points="1844.0738,-181.5001 1854.0737,-178 1844.0737,-174.5001 1844.0738,-181.5001"/>
</g>
<!-- WorkflowDetailDeactivateGuard -->
<g id="node23" class="node">
<title>WorkflowDetailDeactivateGuard</title>
<ellipse fill="#fdb462" stroke="#000000" cx="314" cy="-104" rx="139.9638" ry="18"/>
<text text-anchor="middle" x="314" y="-99.8" font-family="Times,serif" font-size="14.00" fill="#000000">WorkflowDetailDeactivateGuard</text>
</g>
<!-- WorkflowDetailDeactivateGuard&#45;&gt;AppModule -->
<g id="edge22" class="edge">
<title>WorkflowDetailDeactivateGuard&#45;&gt;AppModule</title>
<path fill="none" stroke="#000000" d="M314,-122.2479C314,-145.0179 314,-181 314,-181 314,-181 1844.0928,-181 1844.0928,-181"/>
<polygon fill="#000000" stroke="#000000" points="1844.0929,-184.5001 1854.0928,-181 1844.0928,-177.5001 1844.0929,-184.5001"/>
</g>
<!-- DialogService -->
<g id="node24" class="node">
<title>DialogService</title>
<ellipse fill="#fdb462" stroke="#000000" cx="90" cy="-104" rx="66.0492" ry="18"/>
<text text-anchor="middle" x="90" y="-99.8" font-family="Times,serif" font-size="14.00" fill="#000000">DialogService</text>
</g>
<!-- DialogService&#45;&gt;AppModule -->
<g id="edge23" class="edge">
<title>DialogService&#45;&gt;AppModule</title>
<path fill="none" stroke="#000000" d="M90,-122.1532C90,-145.7566 90,-184 90,-184 90,-184 1844.0164,-184 1844.0164,-184"/>
<polygon fill="#000000" stroke="#000000" points="1844.0164,-187.5001 1854.0164,-184 1844.0163,-180.5001 1844.0164,-187.5001"/>
</g>
</g>
</svg>
