<?xml version="1.0" encoding="UTF-8" standalone="no"?>
<!DOCTYPE svg PUBLIC "-//W3C//DTD SVG 1.1//EN"
 "http://www.w3.org/Graphics/SVG/1.1/DTD/svg11.dtd">
<!-- Generated by graphviz version 2.40.1 (20161225.0304)
 -->
<!-- Title: dependencies Pages: 1 -->
<svg width="1987pt" height="284pt"
 viewBox="0.00 0.00 1987.00 284.00" xmlns="http://www.w3.org/2000/svg" xmlns:xlink="http://www.w3.org/1999/xlink">
<g id="graph0" class="graph" transform="scale(1 1) rotate(0) translate(4 280)">
<title>dependencies</title>
<polygon fill="#ffffff" stroke="transparent" points="-4,4 -4,-280 1983,-280 1983,4 -4,4"/>
<text text-anchor="start" x="968.5091" y="-42.4" font-family="sans-serif" font-weight="bold" font-size="14.00" fill="#000000">Legend</text>
<polygon fill="#ffffb3" stroke="transparent" points="755.5,-10 755.5,-30 775.5,-30 775.5,-10 755.5,-10"/>
<text text-anchor="start" x="779.129" y="-15.4" font-family="sans-serif" font-size="14.00" fill="#000000"> &#160;Declarations</text>
<polygon fill="#8dd3c7" stroke="transparent" points="868.5,-10 868.5,-30 888.5,-30 888.5,-10 868.5,-10"/>
<text text-anchor="start" x="892.2251" y="-15.4" font-family="sans-serif" font-size="14.00" fill="#000000"> &#160;Module</text>
<polygon fill="#80b1d3" stroke="transparent" points="954.5,-10 954.5,-30 974.5,-30 974.5,-10 954.5,-10"/>
<text text-anchor="start" x="978.2812" y="-15.4" font-family="sans-serif" font-size="14.00" fill="#000000"> &#160;Bootstrap</text>
<polygon fill="#fdb462" stroke="transparent" points="1051.5,-10 1051.5,-30 1071.5,-30 1071.5,-10 1051.5,-10"/>
<text text-anchor="start" x="1075.1732" y="-15.4" font-family="sans-serif" font-size="14.00" fill="#000000"> &#160;Providers</text>
<polygon fill="#fb8072" stroke="transparent" points="1147.5,-10 1147.5,-30 1167.5,-30 1167.5,-10 1147.5,-10"/>
<text text-anchor="start" x="1171.2258" y="-15.4" font-family="sans-serif" font-size="14.00" fill="#000000"> &#160;Exports</text>
<g id="clust1" class="cluster">
<title>cluster_EditorModule</title>
<polygon fill="none" stroke="#000000" stroke-dasharray="1,5" points="8,-70 8,-268 1971,-268 1971,-70 8,-70"/>
</g>
<g id="clust2" class="cluster">
<title>cluster_EditorModule_declarations</title>
<polygon fill="none" stroke="#000000" points="338,-78 338,-130 1963,-130 1963,-78 338,-78"/>
</g>
<g id="clust14" class="cluster">
<title>cluster_EditorModule_exports</title>
<polygon fill="none" stroke="#000000" points="1284,-208 1284,-260 1420,-260 1420,-208 1284,-208"/>
</g>
<g id="clust16" class="cluster">
<title>cluster_EditorModule_providers</title>
<polygon fill="none" stroke="#000000" points="16,-78 16,-130 330,-130 330,-78 16,-78"/>
</g>
<!-- EditorComponent -->
<g id="node1" class="node">
<title>EditorComponent</title>
<polygon fill="#ffffb3" stroke="#000000" points="1955.3273,-122 1838.6727,-122 1838.6727,-86 1955.3273,-86 1955.3273,-122"/>
<text text-anchor="middle" x="1897" y="-99.8" font-family="Times,serif" font-size="14.00" fill="#000000">EditorComponent</text>
</g>
<!-- EditorModule -->
<g id="node11" class="node">
<title>EditorModule</title>
<polygon fill="#8dd3c7" stroke="#000000" points="1399.0453,-187 1396.0453,-191 1375.0453,-191 1372.0453,-187 1304.9547,-187 1304.9547,-151 1399.0453,-151 1399.0453,-187"/>
<text text-anchor="middle" x="1352" y="-164.8" font-family="Times,serif" font-size="14.00" fill="#000000">EditorModule</text>
</g>
<!-- EditorComponent&#45;&gt;EditorModule -->
<g id="edge1" class="edge">
<title>EditorComponent&#45;&gt;EditorModule</title>
<path fill="none" stroke="#000000" d="M1916.3878,-122.0908C1916.3878,-145.1328 1916.3878,-182 1916.3878,-182 1916.3878,-182 1409.1486,-182 1409.1486,-182"/>
<polygon fill="#000000" stroke="#000000" points="1409.1487,-178.5001 1399.1486,-182 1409.1486,-185.5001 1409.1487,-178.5001"/>
</g>
<!-- EditorComponent&#45;&gt;EditorModule -->
<g id="edge5" class="edge">
<title>EditorComponent&#45;&gt;EditorModule</title>
<path fill="none" stroke="#000000" d="M1877.6122,-122.0449C1877.6122,-143.6623 1877.6122,-177 1877.6122,-177 1877.6122,-177 1409.1071,-177 1409.1071,-177"/>
<polygon fill="#000000" stroke="#000000" points="1409.1072,-173.5001 1399.1071,-177 1409.1071,-180.5001 1409.1072,-173.5001"/>
</g>
<!-- ToolbarComponent -->
<g id="node2" class="node">
<title>ToolbarComponent</title>
<polygon fill="#ffffb3" stroke="#000000" points="1820.6513,-122 1695.3487,-122 1695.3487,-86 1820.6513,-86 1820.6513,-122"/>
<text text-anchor="middle" x="1758" y="-99.8" font-family="Times,serif" font-size="14.00" fill="#000000">ToolbarComponent</text>
</g>
<!-- ToolbarComponent&#45;&gt;EditorModule -->
<g id="edge2" class="edge">
<title>ToolbarComponent&#45;&gt;EditorModule</title>
<path fill="none" stroke="#000000" d="M1778.9418,-122.2228C1778.9418,-142.3652 1778.9418,-172 1778.9418,-172 1778.9418,-172 1409.3215,-172 1409.3215,-172"/>
<polygon fill="#000000" stroke="#000000" points="1409.3215,-168.5001 1399.3215,-172 1409.3215,-175.5001 1409.3215,-168.5001"/>
</g>
<!-- ToolbarComponent&#45;&gt;EditorModule -->
<g id="edge7" class="edge">
<title>ToolbarComponent&#45;&gt;EditorModule</title>
<path fill="none" stroke="#000000" d="M1737.0582,-122.2222C1737.0582,-140.8285 1737.0582,-167 1737.0582,-167 1737.0582,-167 1409.2157,-167 1409.2157,-167"/>
<polygon fill="#000000" stroke="#000000" points="1409.2157,-163.5001 1399.2157,-167 1409.2157,-170.5001 1409.2157,-163.5001"/>
</g>
<!-- WorkflowPropertiesComponent -->
<g id="node3" class="node">
<title>WorkflowPropertiesComponent</title>
<polygon fill="#ffffb3" stroke="#000000" points="1676.6246,-122 1481.3754,-122 1481.3754,-86 1676.6246,-86 1676.6246,-122"/>
<text text-anchor="middle" x="1579" y="-99.8" font-family="Times,serif" font-size="14.00" fill="#000000">WorkflowPropertiesComponent</text>
</g>
<!-- WorkflowPropertiesComponent&#45;&gt;EditorModule -->
<g id="edge3" class="edge">
<title>WorkflowPropertiesComponent&#45;&gt;EditorModule</title>
<path fill="none" stroke="#000000" d="M1546.396,-122.2396C1546.396,-137.5706 1546.396,-157 1546.396,-157 1546.396,-157 1409.0578,-157 1409.0578,-157"/>
<polygon fill="#000000" stroke="#000000" points="1409.0579,-153.5001 1399.0578,-157 1409.0578,-160.5001 1409.0579,-153.5001"/>
</g>
<!-- WorkflowPropertiesComponent&#45;&gt;EditorModule -->
<g id="edge8" class="edge">
<title>WorkflowPropertiesComponent&#45;&gt;EditorModule</title>
<path fill="none" stroke="#000000" d="M1611.604,-122.0336C1611.604,-139.0597 1611.604,-162 1611.604,-162 1611.604,-162 1409.3135,-162 1409.3135,-162"/>
<polygon fill="#000000" stroke="#000000" points="1409.3136,-158.5001 1399.3135,-162 1409.3135,-165.5001 1409.3136,-158.5001"/>
</g>
<!-- PaperComponent -->
<g id="node4" class="node">
<title>PaperComponent</title>
<polygon fill="#ffffb3" stroke="#000000" points="1463.705,-122 1350.295,-122 1350.295,-86 1463.705,-86 1463.705,-122"/>
<text text-anchor="middle" x="1407" y="-99.8" font-family="Times,serif" font-size="14.00" fill="#000000">PaperComponent</text>
</g>
<!-- PaperComponent&#45;&gt;EditorModule -->
<g id="edge4" class="edge">
<title>PaperComponent&#45;&gt;EditorModule</title>
<path fill="none" stroke="#000000" d="M1382.9806,-122.1061C1382.9806,-122.1061 1382.9806,-140.991 1382.9806,-140.991"/>
<polygon fill="#000000" stroke="#000000" points="1379.4807,-140.9909 1382.9806,-150.991 1386.4807,-140.991 1379.4807,-140.9909"/>
</g>
<!-- PaperComponent&#45;&gt;EditorModule -->
<g id="edge6" class="edge">
<title>PaperComponent&#45;&gt;EditorModule</title>
<path fill="none" stroke="#000000" d="M1366.6891,-122.1061C1366.6891,-122.1061 1366.6891,-140.991 1366.6891,-140.991"/>
<polygon fill="#000000" stroke="#000000" points="1363.1892,-140.9909 1366.6891,-150.991 1370.1892,-140.991 1363.1892,-140.9909"/>
</g>
<!-- KeysPipe -->
<g id="node5" class="node">
<title>KeysPipe</title>
<polygon fill="#ffffb3" stroke="#000000" points="1332.6545,-122 1263.3455,-122 1263.3455,-86 1332.6545,-86 1332.6545,-122"/>
<text text-anchor="middle" x="1298" y="-99.8" font-family="Times,serif" font-size="14.00" fill="#000000">KeysPipe</text>
</g>
<!-- KeysPipe&#45;&gt;EditorModule -->
<g id="edge9" class="edge">
<title>KeysPipe&#45;&gt;EditorModule</title>
<path fill="none" stroke="#000000" d="M1318.7774,-122.1061C1318.7774,-122.1061 1318.7774,-140.991 1318.7774,-140.991"/>
<polygon fill="#000000" stroke="#000000" points="1315.2774,-140.9909 1318.7774,-150.991 1322.2774,-140.991 1315.2774,-140.9909"/>
</g>
<!-- InputPropertiesComponent -->
<g id="node6" class="node">
<title>InputPropertiesComponent</title>
<polygon fill="#ffffb3" stroke="#000000" points="1244.6428,-122 1077.3572,-122 1077.3572,-86 1244.6428,-86 1244.6428,-122"/>
<text text-anchor="middle" x="1161" y="-99.8" font-family="Times,serif" font-size="14.00" fill="#000000">InputPropertiesComponent</text>
</g>
<!-- InputPropertiesComponent&#45;&gt;EditorModule -->
<g id="edge10" class="edge">
<title>InputPropertiesComponent&#45;&gt;EditorModule</title>
<path fill="none" stroke="#000000" d="M1161,-122.1871C1161,-137.1824 1161,-156 1161,-156 1161,-156 1294.7865,-156 1294.7865,-156"/>
<polygon fill="#000000" stroke="#000000" points="1294.7865,-159.5001 1304.7865,-156 1294.7865,-152.5001 1294.7865,-159.5001"/>
</g>
<!-- OutputPropertiesComponent -->
<g id="node7" class="node">
<title>OutputPropertiesComponent</title>
<polygon fill="#ffffb3" stroke="#000000" points="1059.479,-122 882.521,-122 882.521,-86 1059.479,-86 1059.479,-122"/>
<text text-anchor="middle" x="971" y="-99.8" font-family="Times,serif" font-size="14.00" fill="#000000">OutputPropertiesComponent</text>
</g>
<!-- OutputPropertiesComponent&#45;&gt;EditorModule -->
<g id="edge11" class="edge">
<title>OutputPropertiesComponent&#45;&gt;EditorModule</title>
<path fill="none" stroke="#000000" d="M971,-122.027C971,-138.3976 971,-160 971,-160 971,-160 1294.8998,-160 1294.8998,-160"/>
<polygon fill="#000000" stroke="#000000" points="1294.8998,-163.5001 1304.8998,-160 1294.8998,-156.5001 1294.8998,-163.5001"/>
</g>
<!-- NodePropertiesComponent -->
<g id="node8" class="node">
<title>NodePropertiesComponent</title>
<polygon fill="#ffffb3" stroke="#000000" points="864.4129,-122 695.5871,-122 695.5871,-86 864.4129,-86 864.4129,-122"/>
<text text-anchor="middle" x="780" y="-99.8" font-family="Times,serif" font-size="14.00" fill="#000000">NodePropertiesComponent</text>
</g>
<!-- NodePropertiesComponent&#45;&gt;EditorModule -->
<g id="edge12" class="edge">
<title>NodePropertiesComponent&#45;&gt;EditorModule</title>
<path fill="none" stroke="#000000" d="M780,-122.302C780,-140.2699 780,-165 780,-165 780,-165 1294.7042,-165 1294.7042,-165"/>
<polygon fill="#000000" stroke="#000000" points="1294.7042,-168.5001 1304.7042,-165 1294.7042,-161.5001 1294.7042,-168.5001"/>
</g>
<!-- LowerCaseTextDirective -->
<g id="node9" class="node">
<title>LowerCaseTextDirective</title>
<polygon fill="#ffffb3" stroke="#000000" points="677.9862,-122 520.0138,-122 520.0138,-86 677.9862,-86 677.9862,-122"/>
<text text-anchor="middle" x="599" y="-99.8" font-family="Times,serif" font-size="14.00" fill="#000000">LowerCaseTextDirective</text>
</g>
<!-- LowerCaseTextDirective&#45;&gt;EditorModule -->
<g id="edge13" class="edge">
<title>LowerCaseTextDirective&#45;&gt;EditorModule</title>
<path fill="none" stroke="#000000" d="M599,-122.1061C599,-141.3391 599,-169 599,-169 599,-169 1294.8965,-169 1294.8965,-169"/>
<polygon fill="#000000" stroke="#000000" points="1294.8965,-172.5001 1304.8965,-169 1294.8964,-165.5001 1294.8965,-172.5001"/>
</g>
<!-- UpperCaseTextDirective -->
<g id="node10" class="node">
<title>UpperCaseTextDirective</title>
<polygon fill="#ffffb3" stroke="#000000" points="501.9328,-122 346.0672,-122 346.0672,-86 501.9328,-86 501.9328,-122"/>
<text text-anchor="middle" x="424" y="-99.8" font-family="Times,serif" font-size="14.00" fill="#000000">UpperCaseTextDirective</text>
</g>
<!-- UpperCaseTextDirective&#45;&gt;EditorModule -->
<g id="edge14" class="edge">
<title>UpperCaseTextDirective&#45;&gt;EditorModule</title>
<path fill="none" stroke="#000000" d="M424,-122.0267C424,-142.7672 424,-174 424,-174 424,-174 1294.7045,-174 1294.7045,-174"/>
<polygon fill="#000000" stroke="#000000" points="1294.7046,-177.5001 1304.7045,-174 1294.7045,-170.5001 1294.7046,-177.5001"/>
</g>
<!-- EditorComponent  -->
<g id="node12" class="node">
<title>EditorComponent </title>
<polygon fill="#fb8072" stroke="#000000" points="1411.8269,-252 1292.1731,-252 1292.1731,-216 1411.8269,-216 1411.8269,-252"/>
<text text-anchor="middle" x="1352" y="-229.8" font-family="Times,serif" font-size="14.00" fill="#000000">EditorComponent </text>
</g>
<!-- EditorModule&#45;&gt;EditorComponent  -->
<g id="edge15" class="edge">
<title>EditorModule&#45;&gt;EditorComponent </title>
<path fill="none" stroke="#000000" stroke-dasharray="5,2" d="M1352,-187.1061C1352,-187.1061 1352,-205.991 1352,-205.991"/>
<polygon fill="#000000" stroke="#000000" points="1348.5001,-205.9909 1352,-215.991 1355.5001,-205.991 1348.5001,-205.9909"/>
</g>
<!-- JointService -->
<g id="node13" class="node">
<title>JointService</title>
<ellipse fill="#fdb462" stroke="#000000" cx="263" cy="-104" rx="58.5444" ry="18"/>
<text text-anchor="middle" x="263" y="-99.8" font-family="Times,serif" font-size="14.00" fill="#000000">JointService</text>
</g>
<!-- JointService&#45;&gt;EditorModule -->
<g id="edge16" class="edge">
<title>JointService&#45;&gt;EditorModule</title>
<path fill="none" stroke="#000000" d="M263,-122.2921C263,-144.2057 263,-178 263,-178 263,-178 1294.8575,-178 1294.8575,-178"/>
<polygon fill="#000000" stroke="#000000" points="1294.8575,-181.5001 1304.8575,-178 1294.8575,-174.5001 1294.8575,-181.5001"/>
</g>
<!-- DescriptorService -->
<g id="node14" class="node">
<title>DescriptorService</title>
<ellipse fill="#fdb462" stroke="#000000" cx="105" cy="-104" rx="80.993" ry="18"/>
<text text-anchor="middle" x="105" y="-99.8" font-family="Times,serif" font-size="14.00" fill="#000000">DescriptorService</text>
</g>
<!-- DescriptorService&#45;&gt;EditorModule -->
<g id="edge17" class="edge">
<title>DescriptorService&#45;&gt;EditorModule</title>
<path fill="none" stroke="#000000" d="M105,-122.3228C105,-145.6602 105,-183 105,-183 105,-183 1294.6388,-183 1294.6388,-183"/>
<polygon fill="#000000" stroke="#000000" points="1294.6389,-186.5001 1304.6388,-183 1294.6388,-179.5001 1294.6389,-186.5001"/>
</g>
</g>
</svg>
