<?xml version="1.0" encoding="UTF-8" standalone="no"?>
<!DOCTYPE svg PUBLIC "-//W3C//DTD SVG 1.1//EN"
 "http://www.w3.org/Graphics/SVG/1.1/DTD/svg11.dtd">
<!-- Generated by graphviz version 2.40.1 (20161225.0304)
 -->
<!-- Title: dependencies Pages: 1 -->
<svg width="1672pt" height="284pt"
 viewBox="0.00 0.00 1672.00 284.00" xmlns="http://www.w3.org/2000/svg" xmlns:xlink="http://www.w3.org/1999/xlink">
<g id="graph0" class="graph" transform="scale(1 1) rotate(0) translate(4 280)">
<title>dependencies</title>
<polygon fill="#ffffff" stroke="transparent" points="-4,4 -4,-280 1668,-280 1668,4 -4,4"/>
<text text-anchor="start" x="811.0091" y="-42.4" font-family="sans-serif" font-weight="bold" font-size="14.00" fill="#000000">Legend</text>
<polygon fill="#ffffb3" stroke="transparent" points="598,-10 598,-30 618,-30 618,-10 598,-10"/>
<text text-anchor="start" x="621.629" y="-15.4" font-family="sans-serif" font-size="14.00" fill="#000000"> &#160;Declarations</text>
<polygon fill="#8dd3c7" stroke="transparent" points="711,-10 711,-30 731,-30 731,-10 711,-10"/>
<text text-anchor="start" x="734.7251" y="-15.4" font-family="sans-serif" font-size="14.00" fill="#000000"> &#160;Module</text>
<polygon fill="#80b1d3" stroke="transparent" points="797,-10 797,-30 817,-30 817,-10 797,-10"/>
<text text-anchor="start" x="820.7812" y="-15.4" font-family="sans-serif" font-size="14.00" fill="#000000"> &#160;Bootstrap</text>
<polygon fill="#fdb462" stroke="transparent" points="894,-10 894,-30 914,-30 914,-10 894,-10"/>
<text text-anchor="start" x="917.6732" y="-15.4" font-family="sans-serif" font-size="14.00" fill="#000000"> &#160;Providers</text>
<polygon fill="#fb8072" stroke="transparent" points="990,-10 990,-30 1010,-30 1010,-10 990,-10"/>
<text text-anchor="start" x="1013.7258" y="-15.4" font-family="sans-serif" font-size="14.00" fill="#000000"> &#160;Exports</text>
<g id="clust1" class="cluster">
<title>cluster_EditorModule</title>
<polygon fill="none" stroke="#000000" stroke-dasharray="1,5" points="8,-70 8,-268 1656,-268 1656,-70 8,-70"/>
</g>
<g id="clust2" class="cluster">
<title>cluster_EditorModule_declarations</title>
<polygon fill="none" stroke="#000000" points="460,-78 460,-130 1648,-130 1648,-78 460,-78"/>
</g>
<g id="clust10" class="cluster">
<title>cluster_EditorModule_imports</title>
<polygon fill="none" stroke="#000000" points="338,-78 338,-130 452,-130 452,-78 338,-78"/>
</g>
<g id="clust11" class="cluster">
<title>cluster_EditorModule_exports</title>
<polygon fill="none" stroke="#000000" points="865,-208 865,-260 1001,-260 1001,-208 865,-208"/>
</g>
<g id="clust13" class="cluster">
<title>cluster_EditorModule_providers</title>
<polygon fill="none" stroke="#000000" points="16,-78 16,-130 330,-130 330,-78 16,-78"/>
</g>
<!-- WorkflowPropertiesComponent -->
<g id="node1" class="node">
<title>WorkflowPropertiesComponent</title>
<polygon fill="#ffffb3" stroke="#000000" points="1639.6246,-122 1444.3754,-122 1444.3754,-86 1639.6246,-86 1639.6246,-122"/>
<text text-anchor="middle" x="1542" y="-99.8" font-family="Times,serif" font-size="14.00" fill="#000000">WorkflowPropertiesComponent</text>
</g>
<!-- EditorModule -->
<g id="node8" class="node">
<title>EditorModule</title>
<polygon fill="#8dd3c7" stroke="#000000" points="980.0453,-187 977.0453,-191 956.0453,-191 953.0453,-187 885.9547,-187 885.9547,-151 980.0453,-151 980.0453,-187"/>
<text text-anchor="middle" x="933" y="-164.8" font-family="Times,serif" font-size="14.00" fill="#000000">EditorModule</text>
</g>
<!-- WorkflowPropertiesComponent&#45;&gt;EditorModule -->
<g id="edge1" class="edge">
<title>WorkflowPropertiesComponent&#45;&gt;EditorModule</title>
<path fill="none" stroke="#000000" d="M1574.604,-122.2479C1574.604,-145.0179 1574.604,-181 1574.604,-181 1574.604,-181 990.1787,-181 990.1787,-181"/>
<polygon fill="#000000" stroke="#000000" points="990.1787,-177.5001 980.1787,-181 990.1786,-184.5001 990.1787,-177.5001"/>
</g>
<!-- WorkflowPropertiesComponent&#45;&gt;EditorModule -->
<g id="edge5" class="edge">
<title>WorkflowPropertiesComponent&#45;&gt;EditorModule</title>
<path fill="none" stroke="#000000" d="M1509.396,-122.2843C1509.396,-143.3211 1509.396,-175 1509.396,-175 1509.396,-175 990.1689,-175 990.1689,-175"/>
<polygon fill="#000000" stroke="#000000" points="990.1689,-171.5001 980.1689,-175 990.1689,-178.5001 990.1689,-171.5001"/>
</g>
<!-- PaperComponent -->
<g id="node2" class="node">
<title>PaperComponent</title>
<polygon fill="#ffffb3" stroke="#000000" points="1426.705,-122 1313.295,-122 1313.295,-86 1426.705,-86 1426.705,-122"/>
<text text-anchor="middle" x="1370" y="-99.8" font-family="Times,serif" font-size="14.00" fill="#000000">PaperComponent</text>
</g>
<!-- PaperComponent&#45;&gt;EditorModule -->
<g id="edge2" class="edge">
<title>PaperComponent&#45;&gt;EditorModule</title>
<path fill="none" stroke="#000000" d="M1370,-122.1061C1370,-141.3391 1370,-169 1370,-169 1370,-169 990.1819,-169 990.1819,-169"/>
<polygon fill="#000000" stroke="#000000" points="990.1819,-165.5001 980.1819,-169 990.1818,-172.5001 990.1819,-165.5001"/>
</g>
<!-- EditorComponent -->
<g id="node3" class="node">
<title>EditorComponent</title>
<polygon fill="#ffffb3" stroke="#000000" points="1295.3273,-122 1178.6727,-122 1178.6727,-86 1295.3273,-86 1295.3273,-122"/>
<text text-anchor="middle" x="1237" y="-99.8" font-family="Times,serif" font-size="14.00" fill="#000000">EditorComponent</text>
</g>
<!-- EditorComponent&#45;&gt;EditorModule -->
<g id="edge3" class="edge">
<title>EditorComponent&#45;&gt;EditorModule</title>
<path fill="none" stroke="#000000" d="M1237,-122.0225C1237,-139.3734 1237,-163 1237,-163 1237,-163 990.1665,-163 990.1665,-163"/>
<polygon fill="#000000" stroke="#000000" points="990.1665,-159.5001 980.1665,-163 990.1664,-166.5001 990.1665,-159.5001"/>
</g>
<!-- ToolbarComponent -->
<g id="node4" class="node">
<title>ToolbarComponent</title>
<polygon fill="#ffffb3" stroke="#000000" points="1160.6513,-122 1035.3487,-122 1035.3487,-86 1160.6513,-86 1160.6513,-122"/>
<text text-anchor="middle" x="1098" y="-99.8" font-family="Times,serif" font-size="14.00" fill="#000000">ToolbarComponent</text>
</g>
<!-- ToolbarComponent&#45;&gt;EditorModule -->
<g id="edge4" class="edge">
<title>ToolbarComponent&#45;&gt;EditorModule</title>
<path fill="none" stroke="#000000" d="M1098,-122.2396C1098,-137.5706 1098,-157 1098,-157 1098,-157 990.2824,-157 990.2824,-157"/>
<polygon fill="#000000" stroke="#000000" points="990.2824,-153.5001 980.2824,-157 990.2823,-160.5001 990.2824,-153.5001"/>
</g>
<!-- InputPropertiesComponent -->
<g id="node5" class="node">
<title>InputPropertiesComponent</title>
<polygon fill="#ffffb3" stroke="#000000" points="1016.6428,-122 849.3572,-122 849.3572,-86 1016.6428,-86 1016.6428,-122"/>
<text text-anchor="middle" x="933" y="-99.8" font-family="Times,serif" font-size="14.00" fill="#000000">InputPropertiesComponent</text>
</g>
<!-- InputPropertiesComponent&#45;&gt;EditorModule -->
<g id="edge6" class="edge">
<title>InputPropertiesComponent&#45;&gt;EditorModule</title>
<path fill="none" stroke="#000000" d="M933,-122.1061C933,-122.1061 933,-140.991 933,-140.991"/>
<polygon fill="#000000" stroke="#000000" points="929.5001,-140.9909 933,-150.991 936.5001,-140.991 929.5001,-140.9909"/>
</g>
<!-- OutputPropertiesComponent -->
<g id="node6" class="node">
<title>OutputPropertiesComponent</title>
<polygon fill="#ffffb3" stroke="#000000" points="831.479,-122 654.521,-122 654.521,-86 831.479,-86 831.479,-122"/>
<text text-anchor="middle" x="743" y="-99.8" font-family="Times,serif" font-size="14.00" fill="#000000">OutputPropertiesComponent</text>
</g>
<!-- OutputPropertiesComponent&#45;&gt;EditorModule -->
<g id="edge7" class="edge">
<title>OutputPropertiesComponent&#45;&gt;EditorModule</title>
<path fill="none" stroke="#000000" d="M743,-122.2396C743,-137.5706 743,-157 743,-157 743,-157 875.5451,-157 875.5451,-157"/>
<polygon fill="#000000" stroke="#000000" points="875.5451,-160.5001 885.5451,-157 875.5451,-153.5001 875.5451,-160.5001"/>
</g>
<!-- NodePropertiesComponent -->
<g id="node7" class="node">
<title>NodePropertiesComponent</title>
<polygon fill="#ffffb3" stroke="#000000" points="636.4129,-122 467.5871,-122 467.5871,-86 636.4129,-86 636.4129,-122"/>
<text text-anchor="middle" x="552" y="-99.8" font-family="Times,serif" font-size="14.00" fill="#000000">NodePropertiesComponent</text>
</g>
<!-- NodePropertiesComponent&#45;&gt;EditorModule -->
<g id="edge8" class="edge">
<title>NodePropertiesComponent&#45;&gt;EditorModule</title>
<path fill="none" stroke="#000000" d="M552,-122.0225C552,-139.3734 552,-163 552,-163 552,-163 875.8998,-163 875.8998,-163"/>
<polygon fill="#000000" stroke="#000000" points="875.8998,-166.5001 885.8998,-163 875.8998,-159.5001 875.8998,-166.5001"/>
</g>
<!-- EditorComponent  -->
<g id="node10" class="node">
<title>EditorComponent </title>
<polygon fill="#fb8072" stroke="#000000" points="992.8269,-252 873.1731,-252 873.1731,-216 992.8269,-216 992.8269,-252"/>
<text text-anchor="middle" x="933" y="-229.8" font-family="Times,serif" font-size="14.00" fill="#000000">EditorComponent </text>
</g>
<!-- EditorModule&#45;&gt;EditorComponent  -->
<g id="edge10" class="edge">
<title>EditorModule&#45;&gt;EditorComponent </title>
<path fill="none" stroke="#000000" stroke-dasharray="5,2" d="M933,-187.1061C933,-187.1061 933,-205.991 933,-205.991"/>
<polygon fill="#000000" stroke="#000000" points="929.5001,-205.9909 933,-215.991 936.5001,-205.991 929.5001,-205.9909"/>
</g>
<!-- SharedModule -->
<g id="node9" class="node">
<title>SharedModule</title>
<polygon fill="#8dd3c7" stroke="#000000" points="444.4231,-122 441.4231,-126 420.4231,-126 417.4231,-122 345.5769,-122 345.5769,-86 444.4231,-86 444.4231,-122"/>
<text text-anchor="middle" x="395" y="-99.8" font-family="Times,serif" font-size="14.00" fill="#000000">SharedModule</text>
</g>
<!-- SharedModule&#45;&gt;EditorModule -->
<g id="edge9" class="edge">
<title>SharedModule&#45;&gt;EditorModule</title>
<path fill="none" stroke="#000000" d="M395,-122.1061C395,-141.3391 395,-169 395,-169 395,-169 875.7276,-169 875.7276,-169"/>
<polygon fill="#000000" stroke="#000000" points="875.7276,-172.5001 885.7276,-169 875.7276,-165.5001 875.7276,-172.5001"/>
</g>
<!-- JointService -->
<g id="node11" class="node">
<title>JointService</title>
<ellipse fill="#fdb462" stroke="#000000" cx="263" cy="-104" rx="58.5444" ry="18"/>
<text text-anchor="middle" x="263" y="-99.8" font-family="Times,serif" font-size="14.00" fill="#000000">JointService</text>
</g>
<!-- JointService&#45;&gt;EditorModule -->
<g id="edge11" class="edge">
<title>JointService&#45;&gt;EditorModule</title>
<path fill="none" stroke="#000000" d="M263,-122.2843C263,-143.3211 263,-175 263,-175 263,-175 875.8869,-175 875.8869,-175"/>
<polygon fill="#000000" stroke="#000000" points="875.8869,-178.5001 885.8869,-175 875.8869,-171.5001 875.8869,-178.5001"/>
</g>
<!-- DescriptorService -->
<g id="node12" class="node">
<title>DescriptorService</title>
<ellipse fill="#fdb462" stroke="#000000" cx="105" cy="-104" rx="80.993" ry="18"/>
<text text-anchor="middle" x="105" y="-99.8" font-family="Times,serif" font-size="14.00" fill="#000000">DescriptorService</text>
</g>
<!-- DescriptorService&#45;&gt;EditorModule -->
<g id="edge12" class="edge">
<title>DescriptorService&#45;&gt;EditorModule</title>
<path fill="none" stroke="#000000" d="M105,-122.2479C105,-145.0179 105,-181 105,-181 105,-181 875.8104,-181 875.8104,-181"/>
<polygon fill="#000000" stroke="#000000" points="875.8104,-184.5001 885.8104,-181 875.8104,-177.5001 875.8104,-184.5001"/>
</g>
</g>
</svg>
