<?xml version="1.0" encoding="UTF-8" standalone="no"?>
<!DOCTYPE svg PUBLIC "-//W3C//DTD SVG 1.1//EN"
 "http://www.w3.org/Graphics/SVG/1.1/DTD/svg11.dtd">
<!-- Generated by graphviz version 2.40.1 (20161225.0304)
 -->
<!-- Title: dependencies Pages: 1 -->
<svg width="504pt" height="284pt"
 viewBox="0.00 0.00 504.00 284.00" xmlns="http://www.w3.org/2000/svg" xmlns:xlink="http://www.w3.org/1999/xlink">
<g id="graph0" class="graph" transform="scale(1 1) rotate(0) translate(4 280)">
<title>dependencies</title>
<polygon fill="#ffffff" stroke="transparent" points="-4,4 -4,-280 500,-280 500,4 -4,4"/>
<text text-anchor="start" x="227.0091" y="-42.4" font-family="sans-serif" font-weight="bold" font-size="14.00" fill="#000000">Legend</text>
<polygon fill="#ffffb3" stroke="transparent" points="14,-10 14,-30 34,-30 34,-10 14,-10"/>
<text text-anchor="start" x="37.629" y="-15.4" font-family="sans-serif" font-size="14.00" fill="#000000"> &#160;Declarations</text>
<polygon fill="#8dd3c7" stroke="transparent" points="127,-10 127,-30 147,-30 147,-10 127,-10"/>
<text text-anchor="start" x="150.7251" y="-15.4" font-family="sans-serif" font-size="14.00" fill="#000000"> &#160;Module</text>
<polygon fill="#80b1d3" stroke="transparent" points="213,-10 213,-30 233,-30 233,-10 213,-10"/>
<text text-anchor="start" x="236.7812" y="-15.4" font-family="sans-serif" font-size="14.00" fill="#000000"> &#160;Bootstrap</text>
<polygon fill="#fdb462" stroke="transparent" points="310,-10 310,-30 330,-30 330,-10 310,-10"/>
<text text-anchor="start" x="333.6732" y="-15.4" font-family="sans-serif" font-size="14.00" fill="#000000"> &#160;Providers</text>
<polygon fill="#fb8072" stroke="transparent" points="406,-10 406,-30 426,-30 426,-10 406,-10"/>
<text text-anchor="start" x="429.7258" y="-15.4" font-family="sans-serif" font-size="14.00" fill="#000000"> &#160;Exports</text>
<g id="clust1" class="cluster">
<title>cluster_EditorModule</title>
<polygon fill="none" stroke="#000000" stroke-dasharray="1,5" points="26,-70 26,-268 470,-268 470,-70 26,-70"/>
</g>
<g id="clust2" class="cluster">
<title>cluster_EditorModule_declarations</title>
<polygon fill="none" stroke="#000000" points="330,-78 330,-130 462,-130 462,-78 330,-78"/>
</g>
<g id="clust4" class="cluster">
<title>cluster_EditorModule_imports</title>
<polygon fill="none" stroke="#000000" points="34,-78 34,-130 322,-130 322,-78 34,-78"/>
</g>
<g id="clust5" class="cluster">
<title>cluster_EditorModule_exports</title>
<polygon fill="none" stroke="#000000" points="197,-208 197,-260 333,-260 333,-208 197,-208"/>
</g>
<!-- EditorComponent -->
<g id="node1" class="node">
<title>EditorComponent</title>
<polygon fill="#ffffb3" stroke="#000000" points="454.3273,-122 337.6727,-122 337.6727,-86 454.3273,-86 454.3273,-122"/>
<text text-anchor="middle" x="396" y="-99.8" font-family="Times,serif" font-size="14.00" fill="#000000">EditorComponent</text>
</g>
<!-- EditorModule -->
<g id="node2" class="node">
<title>EditorModule</title>
<polygon fill="#8dd3c7" stroke="#000000" points="312.0453,-187 309.0453,-191 288.0453,-191 285.0453,-187 217.9547,-187 217.9547,-151 312.0453,-151 312.0453,-187"/>
<text text-anchor="middle" x="265" y="-164.8" font-family="Times,serif" font-size="14.00" fill="#000000">EditorModule</text>
</g>
<!-- EditorComponent&#45;&gt;EditorModule -->
<g id="edge1" class="edge">
<title>EditorComponent&#45;&gt;EditorModule</title>
<path fill="none" stroke="#000000" d="M396,-122.1061C396,-141.3391 396,-169 396,-169 396,-169 322.294,-169 322.294,-169"/>
<polygon fill="#000000" stroke="#000000" points="322.294,-165.5001 312.294,-169 322.294,-172.5001 322.294,-165.5001"/>
</g>
<!-- EditorComponent  -->
<g id="node5" class="node">
<title>EditorComponent </title>
<polygon fill="#fb8072" stroke="#000000" points="324.8269,-252 205.1731,-252 205.1731,-216 324.8269,-216 324.8269,-252"/>
<text text-anchor="middle" x="265" y="-229.8" font-family="Times,serif" font-size="14.00" fill="#000000">EditorComponent </text>
</g>
<!-- EditorModule&#45;&gt;EditorComponent  -->
<g id="edge4" class="edge">
<title>EditorModule&#45;&gt;EditorComponent </title>
<path fill="none" stroke="#000000" stroke-dasharray="5,2" d="M265,-187.1061C265,-187.1061 265,-205.991 265,-205.991"/>
<polygon fill="#000000" stroke="#000000" points="261.5001,-205.9909 265,-215.991 268.5001,-205.991 261.5001,-205.9909"/>
</g>
<!-- SharedModule -->
<g id="node3" class="node">
<title>SharedModule</title>
<polygon fill="#8dd3c7" stroke="#000000" points="314.4231,-122 311.4231,-126 290.4231,-126 287.4231,-122 215.5769,-122 215.5769,-86 314.4231,-86 314.4231,-122"/>
<text text-anchor="middle" x="265" y="-99.8" font-family="Times,serif" font-size="14.00" fill="#000000">SharedModule</text>
</g>
<!-- SharedModule&#45;&gt;EditorModule -->
<g id="edge2" class="edge">
<title>SharedModule&#45;&gt;EditorModule</title>
<path fill="none" stroke="#000000" d="M265,-122.1061C265,-122.1061 265,-140.991 265,-140.991"/>
<polygon fill="#000000" stroke="#000000" points="261.5001,-140.9909 265,-150.991 268.5001,-140.991 261.5001,-140.9909"/>
</g>
<!-- GraphInteractionModule -->
<g id="node4" class="node">
<title>GraphInteractionModule</title>
<polygon fill="#8dd3c7" stroke="#000000" points="197.6685,-122 194.6685,-126 173.6685,-126 170.6685,-122 42.3315,-122 42.3315,-86 197.6685,-86 197.6685,-122"/>
<text text-anchor="middle" x="120" y="-99.8" font-family="Times,serif" font-size="14.00" fill="#000000">GraphInteractionModule</text>
</g>
<!-- GraphInteractionModule&#45;&gt;EditorModule -->
<g id="edge3" class="edge">
<title>GraphInteractionModule&#45;&gt;EditorModule</title>
<path fill="none" stroke="#000000" d="M120,-122.1061C120,-141.3391 120,-169 120,-169 120,-169 207.9227,-169 207.9227,-169"/>
<polygon fill="#000000" stroke="#000000" points="207.9227,-172.5001 217.9227,-169 207.9226,-165.5001 207.9227,-172.5001"/>
</g>
</g>
</svg>
