<?xml version="1.0" encoding="UTF-8" standalone="no"?>
<!DOCTYPE svg PUBLIC "-//W3C//DTD SVG 1.1//EN"
 "http://www.w3.org/Graphics/SVG/1.1/DTD/svg11.dtd">
<!-- Generated by graphviz version 2.40.1 (20161225.0304)
 -->
<!-- Title: dependencies Pages: 1 -->
<svg width="1083pt" height="284pt"
 viewBox="0.00 0.00 1083.00 284.00" xmlns="http://www.w3.org/2000/svg" xmlns:xlink="http://www.w3.org/1999/xlink">
<g id="graph0" class="graph" transform="scale(1 1) rotate(0) translate(4 280)">
<title>dependencies</title>
<polygon fill="#ffffff" stroke="transparent" points="-4,4 -4,-280 1079,-280 1079,4 -4,4"/>
<text text-anchor="start" x="516.5091" y="-42.4" font-family="sans-serif" font-weight="bold" font-size="14.00" fill="#000000">Legend</text>
<polygon fill="#ffffb3" stroke="transparent" points="303.5,-10 303.5,-30 323.5,-30 323.5,-10 303.5,-10"/>
<text text-anchor="start" x="327.129" y="-15.4" font-family="sans-serif" font-size="14.00" fill="#000000"> &#160;Declarations</text>
<polygon fill="#8dd3c7" stroke="transparent" points="416.5,-10 416.5,-30 436.5,-30 436.5,-10 416.5,-10"/>
<text text-anchor="start" x="440.2251" y="-15.4" font-family="sans-serif" font-size="14.00" fill="#000000"> &#160;Module</text>
<polygon fill="#80b1d3" stroke="transparent" points="502.5,-10 502.5,-30 522.5,-30 522.5,-10 502.5,-10"/>
<text text-anchor="start" x="526.2812" y="-15.4" font-family="sans-serif" font-size="14.00" fill="#000000"> &#160;Bootstrap</text>
<polygon fill="#fdb462" stroke="transparent" points="599.5,-10 599.5,-30 619.5,-30 619.5,-10 599.5,-10"/>
<text text-anchor="start" x="623.1732" y="-15.4" font-family="sans-serif" font-size="14.00" fill="#000000"> &#160;Providers</text>
<polygon fill="#fb8072" stroke="transparent" points="695.5,-10 695.5,-30 715.5,-30 715.5,-10 695.5,-10"/>
<text text-anchor="start" x="719.2258" y="-15.4" font-family="sans-serif" font-size="14.00" fill="#000000"> &#160;Exports</text>
<g id="clust1" class="cluster">
<title>cluster_FlowbsterFormsModule</title>
<polygon fill="none" stroke="#000000" stroke-dasharray="1,5" points="8,-70 8,-268 1067,-268 1067,-70 8,-70"/>
</g>
<g id="clust2" class="cluster">
<title>cluster_FlowbsterFormsModule_declarations</title>
<polygon fill="none" stroke="#000000" points="280,-78 280,-130 1059,-130 1059,-78 280,-78"/>
</g>
<g id="clust7" class="cluster">
<title>cluster_FlowbsterFormsModule_imports</title>
<polygon fill="none" stroke="#000000" points="158,-78 158,-130 272,-130 272,-78 158,-78"/>
</g>
<g id="clust8" class="cluster">
<title>cluster_FlowbsterFormsModule_exports</title>
<polygon fill="none" stroke="#000000" points="96,-208 96,-260 889,-260 889,-208 96,-208"/>
</g>
<g id="clust10" class="cluster">
<title>cluster_FlowbsterFormsModule_providers</title>
<polygon fill="none" stroke="#000000" points="16,-78 16,-130 150,-130 150,-78 16,-78"/>
</g>
<!-- WorkflowPropertiesComponent -->
<g id="node1" class="node">
<title>WorkflowPropertiesComponent</title>
<polygon fill="#ffffb3" stroke="#000000" points="1050.6246,-122 855.3754,-122 855.3754,-86 1050.6246,-86 1050.6246,-122"/>
<text text-anchor="middle" x="953" y="-99.8" font-family="Times,serif" font-size="14.00" fill="#000000">WorkflowPropertiesComponent</text>
</g>
<!-- FlowbsterFormsModule -->
<g id="node5" class="node">
<title>FlowbsterFormsModule</title>
<polygon fill="#8dd3c7" stroke="#000000" points="538.8187,-187 535.8187,-191 514.8187,-191 511.8187,-187 387.1813,-187 387.1813,-151 538.8187,-151 538.8187,-187"/>
<text text-anchor="middle" x="463" y="-164.8" font-family="Times,serif" font-size="14.00" fill="#000000">FlowbsterFormsModule</text>
</g>
<!-- WorkflowPropertiesComponent&#45;&gt;FlowbsterFormsModule -->
<g id="edge1" class="edge">
<title>WorkflowPropertiesComponent&#45;&gt;FlowbsterFormsModule</title>
<path fill="none" stroke="#000000" d="M867.875,-122.1061C867.875,-141.3391 867.875,-169 867.875,-169 867.875,-169 548.6789,-169 548.6789,-169"/>
<polygon fill="#000000" stroke="#000000" points="548.679,-165.5001 538.6789,-169 548.6789,-172.5001 548.679,-165.5001"/>
</g>
<!-- InputPropertiesComponent -->
<g id="node2" class="node">
<title>InputPropertiesComponent</title>
<polygon fill="#ffffb3" stroke="#000000" points="836.6428,-122 669.3572,-122 669.3572,-86 836.6428,-86 836.6428,-122"/>
<text text-anchor="middle" x="753" y="-99.8" font-family="Times,serif" font-size="14.00" fill="#000000">InputPropertiesComponent</text>
</g>
<!-- InputPropertiesComponent&#45;&gt;FlowbsterFormsModule -->
<g id="edge2" class="edge">
<title>InputPropertiesComponent&#45;&gt;FlowbsterFormsModule</title>
<path fill="none" stroke="#000000" d="M675.3084,-122.027C675.3084,-138.3976 675.3084,-160 675.3084,-160 675.3084,-160 548.749,-160 548.749,-160"/>
<polygon fill="#000000" stroke="#000000" points="548.7491,-156.5001 538.749,-160 548.749,-163.5001 548.7491,-156.5001"/>
</g>
<!-- OutputPropertiesComponent -->
<g id="node3" class="node">
<title>OutputPropertiesComponent</title>
<polygon fill="#ffffb3" stroke="#000000" points="651.479,-122 474.521,-122 474.521,-86 651.479,-86 651.479,-122"/>
<text text-anchor="middle" x="563" y="-99.8" font-family="Times,serif" font-size="14.00" fill="#000000">OutputPropertiesComponent</text>
</g>
<!-- OutputPropertiesComponent&#45;&gt;FlowbsterFormsModule -->
<g id="edge3" class="edge">
<title>OutputPropertiesComponent&#45;&gt;FlowbsterFormsModule</title>
<path fill="none" stroke="#000000" d="M506.5849,-122.1061C506.5849,-122.1061 506.5849,-140.991 506.5849,-140.991"/>
<polygon fill="#000000" stroke="#000000" points="503.0849,-140.9909 506.5849,-150.991 510.0849,-140.991 503.0849,-140.9909"/>
</g>
<!-- NodePropertiesComponent -->
<g id="node4" class="node">
<title>NodePropertiesComponent</title>
<polygon fill="#ffffb3" stroke="#000000" points="456.4129,-122 287.5871,-122 287.5871,-86 456.4129,-86 456.4129,-122"/>
<text text-anchor="middle" x="372" y="-99.8" font-family="Times,serif" font-size="14.00" fill="#000000">NodePropertiesComponent</text>
</g>
<!-- NodePropertiesComponent&#45;&gt;FlowbsterFormsModule -->
<g id="edge4" class="edge">
<title>NodePropertiesComponent&#45;&gt;FlowbsterFormsModule</title>
<path fill="none" stroke="#000000" d="M421.7735,-122.1061C421.7735,-122.1061 421.7735,-140.991 421.7735,-140.991"/>
<polygon fill="#000000" stroke="#000000" points="418.2736,-140.9909 421.7735,-150.991 425.2736,-140.991 418.2736,-140.9909"/>
</g>
<!-- WorkflowPropertiesComponent  -->
<g id="node7" class="node">
<title>WorkflowPropertiesComponent </title>
<polygon fill="#fb8072" stroke="#000000" points="880.6242,-252 681.3758,-252 681.3758,-216 880.6242,-216 880.6242,-252"/>
<text text-anchor="middle" x="781" y="-229.8" font-family="Times,serif" font-size="14.00" fill="#000000">WorkflowPropertiesComponent </text>
</g>
<!-- FlowbsterFormsModule&#45;&gt;WorkflowPropertiesComponent  -->
<g id="edge6" class="edge">
<title>FlowbsterFormsModule&#45;&gt;WorkflowPropertiesComponent </title>
<path fill="none" stroke="#000000" stroke-dasharray="5,2" d="M538.8762,-178C626.6152,-178 759.1296,-178 759.1296,-178 759.1296,-178 759.1296,-205.973 759.1296,-205.973"/>
<polygon fill="#000000" stroke="#000000" points="755.6296,-205.973 759.1296,-215.973 762.6296,-205.973 755.6296,-205.973"/>
</g>
<!-- InputPropertiesComponent  -->
<g id="node8" class="node">
<title>InputPropertiesComponent </title>
<polygon fill="#fb8072" stroke="#000000" points="663.6425,-252 492.3575,-252 492.3575,-216 663.6425,-216 663.6425,-252"/>
<text text-anchor="middle" x="578" y="-229.8" font-family="Times,serif" font-size="14.00" fill="#000000">InputPropertiesComponent </text>
</g>
<!-- FlowbsterFormsModule&#45;&gt;InputPropertiesComponent  -->
<g id="edge7" class="edge">
<title>FlowbsterFormsModule&#45;&gt;InputPropertiesComponent </title>
<path fill="none" stroke="#000000" stroke-dasharray="5,2" d="M515.544,-187.1061C515.544,-187.1061 515.544,-205.991 515.544,-205.991"/>
<polygon fill="#000000" stroke="#000000" points="512.0441,-205.9909 515.544,-215.991 519.0441,-205.991 512.0441,-205.9909"/>
</g>
<!-- OutputPropertiesComponent  -->
<g id="node9" class="node">
<title>OutputPropertiesComponent </title>
<polygon fill="#fb8072" stroke="#000000" points="474.4796,-252 293.5204,-252 293.5204,-216 474.4796,-216 474.4796,-252"/>
<text text-anchor="middle" x="384" y="-229.8" font-family="Times,serif" font-size="14.00" fill="#000000">OutputPropertiesComponent </text>
</g>
<!-- FlowbsterFormsModule&#45;&gt;OutputPropertiesComponent  -->
<g id="edge8" class="edge">
<title>FlowbsterFormsModule&#45;&gt;OutputPropertiesComponent </title>
<path fill="none" stroke="#000000" stroke-dasharray="5,2" d="M430.7902,-187.1061C430.7902,-187.1061 430.7902,-205.991 430.7902,-205.991"/>
<polygon fill="#000000" stroke="#000000" points="427.2902,-205.9909 430.7902,-215.991 434.2902,-205.991 427.2902,-205.9909"/>
</g>
<!-- NodePropertiesComponent  -->
<g id="node10" class="node">
<title>NodePropertiesComponent </title>
<polygon fill="#fb8072" stroke="#000000" points="275.9124,-252 104.0876,-252 104.0876,-216 275.9124,-216 275.9124,-252"/>
<text text-anchor="middle" x="190" y="-229.8" font-family="Times,serif" font-size="14.00" fill="#000000">NodePropertiesComponent </text>
</g>
<!-- FlowbsterFormsModule&#45;&gt;NodePropertiesComponent  -->
<g id="edge9" class="edge">
<title>FlowbsterFormsModule&#45;&gt;NodePropertiesComponent </title>
<path fill="none" stroke="#000000" stroke-dasharray="5,2" d="M387.308,-178C333.2614,-178 270.0837,-178 270.0837,-178 270.0837,-178 270.0837,-205.973 270.0837,-205.973"/>
<polygon fill="#000000" stroke="#000000" points="266.5837,-205.973 270.0837,-215.973 273.5837,-205.973 266.5837,-205.973"/>
</g>
<!-- SharedModule -->
<g id="node6" class="node">
<title>SharedModule</title>
<polygon fill="#8dd3c7" stroke="#000000" points="264.4231,-122 261.4231,-126 240.4231,-126 237.4231,-122 165.5769,-122 165.5769,-86 264.4231,-86 264.4231,-122"/>
<text text-anchor="middle" x="215" y="-99.8" font-family="Times,serif" font-size="14.00" fill="#000000">SharedModule</text>
</g>
<!-- SharedModule&#45;&gt;FlowbsterFormsModule -->
<g id="edge5" class="edge">
<title>SharedModule&#45;&gt;FlowbsterFormsModule</title>
<path fill="none" stroke="#000000" d="M215,-122.027C215,-138.3976 215,-160 215,-160 215,-160 377.2443,-160 377.2443,-160"/>
<polygon fill="#000000" stroke="#000000" points="377.2443,-163.5001 387.2443,-160 377.2442,-156.5001 377.2443,-163.5001"/>
</g>
<!-- JointService -->
<g id="node11" class="node">
<title>JointService</title>
<ellipse fill="#fdb462" stroke="#000000" cx="83" cy="-104" rx="58.5444" ry="18"/>
<text text-anchor="middle" x="83" y="-99.8" font-family="Times,serif" font-size="14.00" fill="#000000">JointService</text>
</g>
<!-- JointService&#45;&gt;FlowbsterFormsModule -->
<g id="edge10" class="edge">
<title>JointService&#45;&gt;FlowbsterFormsModule</title>
<path fill="none" stroke="#000000" d="M122.9078,-117.468C122.9078,-136.5069 122.9078,-169 122.9078,-169 122.9078,-169 377.1,-169 377.1,-169"/>
<polygon fill="#000000" stroke="#000000" points="377.1,-172.5001 387.1,-169 377.0999,-165.5001 377.1,-172.5001"/>
</g>
</g>
</svg>
