<?xml version="1.0" encoding="UTF-8" standalone="no"?>
<!DOCTYPE svg PUBLIC "-//W3C//DTD SVG 1.1//EN"
 "http://www.w3.org/Graphics/SVG/1.1/DTD/svg11.dtd">
<!-- Generated by graphviz version 2.40.1 (20161225.0304)
 -->
<!-- Title: dependencies Pages: 1 -->
<svg width="6592pt" height="360pt"
 viewBox="0.00 0.00 6592.00 360.00" xmlns="http://www.w3.org/2000/svg" xmlns:xlink="http://www.w3.org/1999/xlink">
<g id="graph0" class="graph" transform="scale(1 1) rotate(0) translate(4 356)">
<title>dependencies</title>
<polygon fill="#ffffff" stroke="transparent" points="-4,4 -4,-356 6588,-356 6588,4 -4,4"/>
<text text-anchor="start" x="3271.0091" y="-42.4" font-family="sans-serif" font-weight="bold" font-size="14.00" fill="#000000">Legend</text>
<polygon fill="#ffffb3" stroke="transparent" points="3058,-10 3058,-30 3078,-30 3078,-10 3058,-10"/>
<text text-anchor="start" x="3081.629" y="-15.4" font-family="sans-serif" font-size="14.00" fill="#000000"> &#160;Declarations</text>
<polygon fill="#8dd3c7" stroke="transparent" points="3171,-10 3171,-30 3191,-30 3191,-10 3171,-10"/>
<text text-anchor="start" x="3194.7251" y="-15.4" font-family="sans-serif" font-size="14.00" fill="#000000"> &#160;Module</text>
<polygon fill="#80b1d3" stroke="transparent" points="3257,-10 3257,-30 3277,-30 3277,-10 3257,-10"/>
<text text-anchor="start" x="3280.7812" y="-15.4" font-family="sans-serif" font-size="14.00" fill="#000000"> &#160;Bootstrap</text>
<polygon fill="#fdb462" stroke="transparent" points="3354,-10 3354,-30 3374,-30 3374,-10 3354,-10"/>
<text text-anchor="start" x="3377.6732" y="-15.4" font-family="sans-serif" font-size="14.00" fill="#000000"> &#160;Providers</text>
<polygon fill="#fb8072" stroke="transparent" points="3450,-10 3450,-30 3470,-30 3470,-10 3450,-10"/>
<text text-anchor="start" x="3473.7258" y="-15.4" font-family="sans-serif" font-size="14.00" fill="#000000"> &#160;Exports</text>
<g id="clust1" class="cluster">
<title>cluster_AppModule</title>
<polygon fill="none" stroke="#000000" stroke-dasharray="1,5" points="2634,-146 2634,-344 4731,-344 4731,-146 2634,-146"/>
</g>
<g id="clust2" class="cluster">
<title>cluster_AppModule_declarations</title>
<polygon fill="none" stroke="#000000" points="3852,-154 3852,-206 4723,-206 4723,-154 3852,-154"/>
</g>
<g id="clust8" class="cluster">
<title>cluster_AppModule_imports</title>
<polygon fill="none" stroke="#000000" points="3386,-154 3386,-206 3844,-206 3844,-154 3386,-154"/>
</g>
<g id="clust10" class="cluster">
<title>cluster_AppModule_bootstrap</title>
<polygon fill="none" stroke="#000000" points="3605,-284 3605,-336 3729,-336 3729,-284 3605,-284"/>
</g>
<g id="clust11" class="cluster">
<title>cluster_AppModule_providers</title>
<polygon fill="none" stroke="#000000" points="2642,-154 2642,-206 3378,-206 3378,-154 2642,-154"/>
</g>
<g id="clust12" class="cluster">
<title>cluster_AppRoutingModule</title>
<polygon fill="none" stroke="#000000" stroke-dasharray="1,5" points="5745,-70 5745,-138 6418,-138 6418,-70 5745,-70"/>
</g>
<g id="clust17" class="cluster">
<title>cluster_AppRoutingModule_providers</title>
<polygon fill="none" stroke="#000000" points="5753,-78 5753,-130 6410,-130 6410,-78 5753,-78"/>
</g>
<g id="clust18" class="cluster">
<title>cluster_CoreModule</title>
<polygon fill="none" stroke="#000000" stroke-dasharray="1,5" points="6426,-70 6426,-138 6576,-138 6576,-70 6426,-70"/>
</g>
<g id="clust23" class="cluster">
<title>cluster_CoreModule_providers</title>
<polygon fill="none" stroke="#000000" points="6434,-78 6434,-130 6568,-130 6568,-78 6434,-78"/>
</g>
<g id="clust24" class="cluster">
<title>cluster_EditorModule</title>
<polygon fill="none" stroke="#000000" stroke-dasharray="1,5" points="3630,-70 3630,-138 5737,-138 5737,-70 3630,-70"/>
</g>
<g id="clust25" class="cluster">
<title>cluster_EditorModule_declarations</title>
<polygon fill="none" stroke="#000000" points="4104,-78 4104,-130 5729,-130 5729,-78 4104,-78"/>
</g>
<g id="clust37" class="cluster">
<title>cluster_EditorModule_exports</title>
<polygon fill="none" stroke="#000000" points="3960,-78 3960,-130 4096,-130 4096,-78 3960,-78"/>
</g>
<g id="clust39" class="cluster">
<title>cluster_EditorModule_providers</title>
<polygon fill="none" stroke="#000000" points="3638,-78 3638,-130 3952,-130 3952,-78 3638,-78"/>
</g>
<g id="clust40" class="cluster">
<title>cluster_FwModule</title>
<polygon fill="none" stroke="#000000" stroke-dasharray="1,5" points="8,-70 8,-138 3622,-138 3622,-70 8,-70"/>
</g>
<g id="clust41" class="cluster">
<title>cluster_FwModule_declarations</title>
<polygon fill="none" stroke="#000000" points="1332,-78 1332,-130 3614,-130 3614,-78 1332,-78"/>
</g>
<g id="clust58" class="cluster">
<title>cluster_FwModule_exports</title>
<polygon fill="none" stroke="#000000" points="557,-78 557,-130 1324,-130 1324,-78 557,-78"/>
</g>
<g id="clust60" class="cluster">
<title>cluster_FwModule_providers</title>
<polygon fill="none" stroke="#000000" points="16,-78 16,-130 549,-130 549,-78 16,-78"/>
</g>
<!-- AppComponent -->
<g id="node1" class="node">
<title>AppComponent</title>
<polygon fill="#ffffb3" stroke="#000000" points="4714.9399,-198 4609.0601,-198 4609.0601,-162 4714.9399,-162 4714.9399,-198"/>
<text text-anchor="middle" x="4662" y="-175.8" font-family="Times,serif" font-size="14.00" fill="#000000">AppComponent</text>
</g>
<!-- AppModule -->
<g id="node6" class="node">
<title>AppModule</title>
<polygon fill="#8dd3c7" stroke="#000000" points="3708.6571,-263 3705.6571,-267 3684.6571,-267 3681.6571,-263 3625.3429,-263 3625.3429,-227 3708.6571,-227 3708.6571,-263"/>
<text text-anchor="middle" x="3667" y="-240.8" font-family="Times,serif" font-size="14.00" fill="#000000">AppModule</text>
</g>
<!-- AppComponent&#45;&gt;AppModule -->
<g id="edge1" class="edge">
<title>AppComponent&#45;&gt;AppModule</title>
<path fill="none" stroke="#000000" d="M4662,-198.0908C4662,-221.1328 4662,-258 4662,-258 4662,-258 3718.8022,-258 3718.8022,-258"/>
<polygon fill="#000000" stroke="#000000" points="3718.8023,-254.5001 3708.8022,-258 3718.8022,-261.5001 3718.8023,-254.5001"/>
</g>
<!-- AuthenticatedUserComponent -->
<g id="node2" class="node">
<title>AuthenticatedUserComponent</title>
<polygon fill="#ffffb3" stroke="#000000" points="4591.2864,-198 4404.7136,-198 4404.7136,-162 4591.2864,-162 4591.2864,-198"/>
<text text-anchor="middle" x="4498" y="-175.8" font-family="Times,serif" font-size="14.00" fill="#000000">AuthenticatedUserComponent</text>
</g>
<!-- AuthenticatedUserComponent&#45;&gt;AppModule -->
<g id="edge2" class="edge">
<title>AuthenticatedUserComponent&#45;&gt;AppModule</title>
<path fill="none" stroke="#000000" d="M4498,-198.0449C4498,-219.6623 4498,-253 4498,-253 4498,-253 3718.7789,-253 3718.7789,-253"/>
<polygon fill="#000000" stroke="#000000" points="3718.7789,-249.5001 3708.7789,-253 3718.7789,-256.5001 3718.7789,-249.5001"/>
</g>
<!-- WorkflowMaintComponent -->
<g id="node3" class="node">
<title>WorkflowMaintComponent</title>
<polygon fill="#ffffb3" stroke="#000000" points="4387.3061,-198 4214.6939,-198 4214.6939,-162 4387.3061,-162 4387.3061,-198"/>
<text text-anchor="middle" x="4301" y="-175.8" font-family="Times,serif" font-size="14.00" fill="#000000">WorkflowMaintComponent</text>
</g>
<!-- WorkflowMaintComponent&#45;&gt;AppModule -->
<g id="edge3" class="edge">
<title>WorkflowMaintComponent&#45;&gt;AppModule</title>
<path fill="none" stroke="#000000" d="M4301,-198.2228C4301,-218.3652 4301,-248 4301,-248 4301,-248 3719.0895,-248 3719.0895,-248"/>
<polygon fill="#000000" stroke="#000000" points="3719.0895,-244.5001 3709.0895,-248 3719.0895,-251.5001 3719.0895,-244.5001"/>
</g>
<!-- WorkflowDetailComponent -->
<g id="node4" class="node">
<title>WorkflowDetailComponent</title>
<polygon fill="#ffffb3" stroke="#000000" points="4196.573,-198 4023.427,-198 4023.427,-162 4196.573,-162 4196.573,-198"/>
<text text-anchor="middle" x="4110" y="-175.8" font-family="Times,serif" font-size="14.00" fill="#000000">WorkflowDetailComponent</text>
</g>
<!-- WorkflowDetailComponent&#45;&gt;AppModule -->
<g id="edge4" class="edge">
<title>WorkflowDetailComponent&#45;&gt;AppModule</title>
<path fill="none" stroke="#000000" d="M4110,-198.2222C4110,-216.8285 4110,-243 4110,-243 4110,-243 3718.6764,-243 3718.6764,-243"/>
<polygon fill="#000000" stroke="#000000" points="3718.6764,-239.5001 3708.6764,-243 3718.6763,-246.5001 3718.6764,-239.5001"/>
</g>
<!-- ConnectionComponent -->
<g id="node5" class="node">
<title>ConnectionComponent</title>
<polygon fill="#ffffb3" stroke="#000000" points="4005.8794,-198 3860.1206,-198 3860.1206,-162 4005.8794,-162 4005.8794,-198"/>
<text text-anchor="middle" x="3933" y="-175.8" font-family="Times,serif" font-size="14.00" fill="#000000">ConnectionComponent</text>
</g>
<!-- ConnectionComponent&#45;&gt;AppModule -->
<g id="edge5" class="edge">
<title>ConnectionComponent&#45;&gt;AppModule</title>
<path fill="none" stroke="#000000" d="M3933,-198.0336C3933,-215.0597 3933,-238 3933,-238 3933,-238 3718.8551,-238 3718.8551,-238"/>
<polygon fill="#000000" stroke="#000000" points="3718.8552,-234.5001 3708.8551,-238 3718.8551,-241.5001 3718.8552,-234.5001"/>
</g>
<!-- AppComponent  -->
<g id="node11" class="node">
<title>AppComponent </title>
<polygon fill="#80b1d3" stroke="#000000" points="3721.439,-328 3612.561,-328 3612.561,-292 3721.439,-292 3721.439,-328"/>
<text text-anchor="middle" x="3667" y="-305.8" font-family="Times,serif" font-size="14.00" fill="#000000">AppComponent </text>
</g>
<!-- AppModule&#45;&gt;AppComponent  -->
<g id="edge10" class="edge">
<title>AppModule&#45;&gt;AppComponent </title>
<path fill="none" stroke="#000000" stroke-dasharray="1,5" d="M3667,-263.1061C3667,-263.1061 3667,-281.991 3667,-281.991"/>
<polygon fill="#000000" stroke="#000000" points="3663.5001,-281.9909 3667,-291.991 3670.5001,-281.991 3663.5001,-281.9909"/>
</g>
<!-- FwModule -->
<g id="node7" class="node">
<title>FwModule</title>
<polygon fill="#8dd3c7" stroke="#000000" points="3471.9403,-198 3468.9403,-202 3447.9403,-202 3444.9403,-198 3394.0597,-198 3394.0597,-162 3471.9403,-162 3471.9403,-198"/>
<text text-anchor="middle" x="3433" y="-175.8" font-family="Times,serif" font-size="14.00" fill="#000000">FwModule</text>
</g>
<!-- FwModule&#45;&gt;AppModule -->
<g id="edge6" class="edge">
<title>FwModule&#45;&gt;AppModule</title>
<path fill="none" stroke="#000000" d="M3433,-198.0336C3433,-215.0597 3433,-238 3433,-238 3433,-238 3615.1655,-238 3615.1655,-238"/>
<polygon fill="#000000" stroke="#000000" points="3615.1655,-241.5001 3625.1655,-238 3615.1655,-234.5001 3615.1655,-241.5001"/>
</g>
<!-- FrameworkBodyComponent  -->
<g id="node48" class="node">
<title>FrameworkBodyComponent </title>
<polygon fill="#fb8072" stroke="#000000" points="1315.6995,-122 1136.3005,-122 1136.3005,-86 1315.6995,-86 1315.6995,-122"/>
<text text-anchor="middle" x="1226" y="-99.8" font-family="Times,serif" font-size="14.00" fill="#000000">FrameworkBodyComponent </text>
</g>
<!-- FwModule&#45;&gt;FrameworkBodyComponent  -->
<g id="edge51" class="edge">
<title>FwModule&#45;&gt;FrameworkBodyComponent </title>
<path fill="none" stroke="#000000" stroke-dasharray="5,2" d="M3415.8475,-161.9561C3415.8475,-149.4367 3415.8475,-135 3415.8475,-135 3415.8475,-135 1226,-135 1226,-135 1226,-135 1226,-132.0328 1226,-132.0328"/>
<polygon fill="#000000" stroke="#000000" points="1229.5001,-132.0328 1226,-122.0328 1222.5001,-132.0329 1229.5001,-132.0328"/>
</g>
<!-- DynamicFormComponent  -->
<g id="node49" class="node">
<title>DynamicFormComponent </title>
<polygon fill="#fb8072" stroke="#000000" points="1118.4839,-122 951.5161,-122 951.5161,-86 1118.4839,-86 1118.4839,-122"/>
<text text-anchor="middle" x="1035" y="-99.8" font-family="Times,serif" font-size="14.00" fill="#000000">DynamicFormComponent </text>
</g>
<!-- FwModule&#45;&gt;DynamicFormComponent  -->
<g id="edge52" class="edge">
<title>FwModule&#45;&gt;DynamicFormComponent </title>
<path fill="none" stroke="#000000" stroke-dasharray="5,2" d="M3413.84,-161.8495C3413.84,-149.7292 3413.84,-136 3413.84,-136 3413.84,-136 1035,-136 1035,-136 1035,-136 1035,-132.2434 1035,-132.2434"/>
<polygon fill="#000000" stroke="#000000" points="1038.5001,-132.2434 1035,-122.2434 1031.5001,-132.2434 1038.5001,-132.2434"/>
</g>
<!-- PanelComponent  -->
<g id="node50" class="node">
<title>PanelComponent </title>
<polygon fill="#fb8072" stroke="#000000" points="933.9348,-122 818.0652,-122 818.0652,-86 933.9348,-86 933.9348,-122"/>
<text text-anchor="middle" x="876" y="-99.8" font-family="Times,serif" font-size="14.00" fill="#000000">PanelComponent </text>
</g>
<!-- FwModule&#45;&gt;PanelComponent  -->
<g id="edge53" class="edge">
<title>FwModule&#45;&gt;PanelComponent </title>
<path fill="none" stroke="#000000" stroke-dasharray="5,2" d="M3461.2647,-161.9648C3461.2647,-145.2656 3461.2647,-123 3461.2647,-123 3461.2647,-123 876,-123 876,-123 876,-123 876,-122.9184 876,-122.9184"/>
<polygon fill="#000000" stroke="#000000" points="879.5014,-132.1831 876,-122.1836 872.5014,-132.1841 879.5014,-132.1831"/>
</g>
<!-- ScreenLarge  -->
<g id="node51" class="node">
<title>ScreenLarge </title>
<polygon fill="#fb8072" stroke="#000000" points="800.2297,-122 709.7703,-122 709.7703,-86 800.2297,-86 800.2297,-122"/>
<text text-anchor="middle" x="755" y="-99.8" font-family="Times,serif" font-size="14.00" fill="#000000">ScreenLarge </text>
</g>
<!-- FwModule&#45;&gt;ScreenLarge  -->
<g id="edge54" class="edge">
<title>FwModule&#45;&gt;ScreenLarge </title>
<path fill="none" stroke="#000000" stroke-dasharray="5,2" d="M3456.0373,-161.973C3456.0373,-145.6024 3456.0373,-124 3456.0373,-124 3456.0373,-124 755,-124 755,-124 755,-124 755,-123.8154 755,-123.8154"/>
<polygon fill="#000000" stroke="#000000" points="758.5006,-132.1541 755,-122.1543 751.5006,-132.1545 758.5006,-132.1541"/>
</g>
<!-- ScreenBelowLarge  -->
<g id="node52" class="node">
<title>ScreenBelowLarge </title>
<polygon fill="#fb8072" stroke="#000000" points="691.278,-122 564.722,-122 564.722,-86 691.278,-86 691.278,-122"/>
<text text-anchor="middle" x="628" y="-99.8" font-family="Times,serif" font-size="14.00" fill="#000000">ScreenBelowLarge </text>
</g>
<!-- FwModule&#45;&gt;ScreenBelowLarge  -->
<g id="edge55" class="edge">
<title>FwModule&#45;&gt;ScreenBelowLarge </title>
<path fill="none" stroke="#000000" stroke-dasharray="5,2" d="M3450.81,-161.9909C3450.81,-145.9506 3450.81,-125 3450.81,-125 3450.81,-125 628,-125 628,-125 628,-125 628,-124.708 628,-124.708"/>
<polygon fill="#000000" stroke="#000000" points="631.5004,-132.0799 628,-122.08 624.5004,-132.0802 631.5004,-132.0799"/>
</g>
<!-- AppRoutingModule -->
<g id="node8" class="node">
<title>AppRoutingModule</title>
<polygon fill="#8dd3c7" stroke="#000000" points="3731.2744,-198 3728.2744,-202 3707.2744,-202 3704.2744,-198 3602.7256,-198 3602.7256,-162 3731.2744,-162 3731.2744,-198"/>
<text text-anchor="middle" x="3667" y="-175.8" font-family="Times,serif" font-size="14.00" fill="#000000">AppRoutingModule</text>
</g>
<!-- AppRoutingModule&#45;&gt;AppModule -->
<g id="edge7" class="edge">
<title>AppRoutingModule&#45;&gt;AppModule</title>
<path fill="none" stroke="#000000" d="M3667,-198.1061C3667,-198.1061 3667,-216.991 3667,-216.991"/>
<polygon fill="#000000" stroke="#000000" points="3663.5001,-216.9909 3667,-226.991 3670.5001,-216.991 3663.5001,-216.9909"/>
</g>
<!-- EditorModule -->
<g id="node9" class="node">
<title>EditorModule</title>
<polygon fill="#8dd3c7" stroke="#000000" points="3584.0453,-198 3581.0453,-202 3560.0453,-202 3557.0453,-198 3489.9547,-198 3489.9547,-162 3584.0453,-162 3584.0453,-198"/>
<text text-anchor="middle" x="3537" y="-175.8" font-family="Times,serif" font-size="14.00" fill="#000000">EditorModule</text>
</g>
<!-- EditorModule&#45;&gt;AppModule -->
<g id="edge8" class="edge">
<title>EditorModule&#45;&gt;AppModule</title>
<path fill="none" stroke="#000000" d="M3537,-198.2396C3537,-213.5706 3537,-233 3537,-233 3537,-233 3615.1516,-233 3615.1516,-233"/>
<polygon fill="#000000" stroke="#000000" points="3615.1516,-236.5001 3625.1516,-233 3615.1516,-229.5001 3615.1516,-236.5001"/>
</g>
<!-- EditorComponent  -->
<g id="node30" class="node">
<title>EditorComponent </title>
<polygon fill="#fb8072" stroke="#000000" points="4087.8269,-122 3968.1731,-122 3968.1731,-86 4087.8269,-86 4087.8269,-122"/>
<text text-anchor="middle" x="4028" y="-99.8" font-family="Times,serif" font-size="14.00" fill="#000000">EditorComponent </text>
</g>
<!-- EditorModule&#45;&gt;EditorComponent  -->
<g id="edge33" class="edge">
<title>EditorModule&#45;&gt;EditorComponent </title>
<path fill="none" stroke="#000000" stroke-dasharray="5,2" d="M3494.9804,-161.68C3494.9804,-153.2117 3494.9804,-145 3494.9804,-145 3494.9804,-145 3987.0132,-145 3987.0132,-145 3987.0132,-145 3987.0132,-132.1025 3987.0132,-132.1025"/>
<polygon fill="#000000" stroke="#000000" points="3990.5132,-132.1025 3987.0132,-122.1025 3983.5132,-132.1026 3990.5132,-132.1025"/>
</g>
<!-- CoreModule -->
<g id="node10" class="node">
<title>CoreModule</title>
<polygon fill="#8dd3c7" stroke="#000000" points="3836.2619,-198 3833.2619,-202 3812.2619,-202 3809.2619,-198 3749.7381,-198 3749.7381,-162 3836.2619,-162 3836.2619,-198"/>
<text text-anchor="middle" x="3793" y="-175.8" font-family="Times,serif" font-size="14.00" fill="#000000">CoreModule</text>
</g>
<!-- CoreModule&#45;&gt;AppModule -->
<g id="edge9" class="edge">
<title>CoreModule&#45;&gt;AppModule</title>
<path fill="none" stroke="#000000" d="M3793,-198.2396C3793,-213.5706 3793,-233 3793,-233 3793,-233 3718.9562,-233 3718.9562,-233"/>
<polygon fill="#000000" stroke="#000000" points="3718.9562,-229.5001 3708.9562,-233 3718.9561,-236.5001 3718.9562,-229.5001"/>
</g>
<!-- WorkflowEntryService -->
<g id="node12" class="node">
<title>WorkflowEntryService</title>
<ellipse fill="#fdb462" stroke="#000000" cx="3269" cy="-180" rx="101.264" ry="18"/>
<text text-anchor="middle" x="3269" y="-175.8" font-family="Times,serif" font-size="14.00" fill="#000000">WorkflowEntryService</text>
</g>
<!-- WorkflowEntryService&#45;&gt;AppModule -->
<g id="edge11" class="edge">
<title>WorkflowEntryService&#45;&gt;AppModule</title>
<path fill="none" stroke="#000000" d="M3269,-198.2222C3269,-216.8285 3269,-243 3269,-243 3269,-243 3615.1593,-243 3615.1593,-243"/>
<polygon fill="#000000" stroke="#000000" points="3615.1593,-246.5001 3625.1593,-243 3615.1592,-239.5001 3615.1593,-246.5001"/>
</g>
<!-- OccoService -->
<g id="node13" class="node">
<title>OccoService</title>
<ellipse fill="#fdb462" stroke="#000000" cx="3090" cy="-180" rx="60.2306" ry="18"/>
<text text-anchor="middle" x="3090" y="-175.8" font-family="Times,serif" font-size="14.00" fill="#000000">OccoService</text>
</g>
<!-- OccoService&#45;&gt;AppModule -->
<g id="edge12" class="edge">
<title>OccoService&#45;&gt;AppModule</title>
<path fill="none" stroke="#000000" d="M3090,-198.2228C3090,-218.3652 3090,-248 3090,-248 3090,-248 3615.0388,-248 3615.0388,-248"/>
<polygon fill="#000000" stroke="#000000" points="3615.0388,-251.5001 3625.0388,-248 3615.0388,-244.5001 3615.0388,-251.5001"/>
</g>
<!-- DialogService -->
<g id="node14" class="node">
<title>DialogService</title>
<ellipse fill="#fdb462" stroke="#000000" cx="2945" cy="-180" rx="66.0492" ry="18"/>
<text text-anchor="middle" x="2945" y="-175.8" font-family="Times,serif" font-size="14.00" fill="#000000">DialogService</text>
</g>
<!-- DialogService&#45;&gt;AppModule -->
<g id="edge13" class="edge">
<title>DialogService&#45;&gt;AppModule</title>
<path fill="none" stroke="#000000" d="M2945,-198.0449C2945,-219.6623 2945,-253 2945,-253 2945,-253 3615.3256,-253 3615.3256,-253"/>
<polygon fill="#000000" stroke="#000000" points="3615.3256,-256.5001 3625.3256,-253 3615.3255,-249.5001 3615.3256,-256.5001"/>
</g>
<!-- CloudMessagingService -->
<g id="node15" class="node">
<title>CloudMessagingService</title>
<ellipse fill="#fdb462" stroke="#000000" cx="2755" cy="-180" rx="105.3779" ry="18"/>
<text text-anchor="middle" x="2755" y="-175.8" font-family="Times,serif" font-size="14.00" fill="#000000">CloudMessagingService</text>
</g>
<!-- CloudMessagingService&#45;&gt;AppModule -->
<g id="edge14" class="edge">
<title>CloudMessagingService&#45;&gt;AppModule</title>
<path fill="none" stroke="#000000" d="M2755,-198.0908C2755,-221.1328 2755,-258 2755,-258 2755,-258 3615.1429,-258 3615.1429,-258"/>
<polygon fill="#000000" stroke="#000000" points="3615.1429,-261.5001 3625.1429,-258 3615.1429,-254.5001 3615.1429,-261.5001"/>
</g>
<!-- AuthGuard -->
<g id="node16" class="node">
<title>AuthGuard</title>
<ellipse fill="#fdb462" stroke="#000000" cx="6348" cy="-104" rx="54.4566" ry="18"/>
<text text-anchor="middle" x="6348" y="-99.8" font-family="Times,serif" font-size="14.00" fill="#000000">AuthGuard</text>
</g>
<!-- AuthGuard&#45;&gt;AppRoutingModule -->
<g id="edge15" class="edge">
<title>AuthGuard&#45;&gt;AppRoutingModule</title>
<path fill="none" stroke="#000000" d="M6348,-122.4904C6348,-153.5885 6348,-213 6348,-213 6348,-213 3726.4283,-213 3726.4283,-213 3726.4283,-213 3726.4283,-208.0449 3726.4283,-208.0449"/>
<polygon fill="#000000" stroke="#000000" points="3729.9284,-208.0448 3726.4283,-198.0449 3722.9284,-208.0449 3729.9284,-208.0448"/>
</g>
<!-- WorkflowDetailResolver -->
<g id="node17" class="node">
<title>WorkflowDetailResolver</title>
<ellipse fill="#fdb462" stroke="#000000" cx="6167" cy="-104" rx="108.7845" ry="18"/>
<text text-anchor="middle" x="6167" y="-99.8" font-family="Times,serif" font-size="14.00" fill="#000000">WorkflowDetailResolver</text>
</g>
<!-- WorkflowDetailResolver&#45;&gt;AppRoutingModule -->
<g id="edge16" class="edge">
<title>WorkflowDetailResolver&#45;&gt;AppRoutingModule</title>
<path fill="none" stroke="#000000" d="M6167,-122.0352C6167,-138.7344 6167,-161 6167,-161 6167,-161 3710.1038,-161 3710.1038,-161 3710.1038,-161 3710.1038,-161.0816 3710.1038,-161.0816"/>
<polygon fill="#000000" stroke="#000000" points="3706.6052,-151.8159 3710.1038,-161.8164 3713.6052,-151.8169 3706.6052,-151.8159"/>
</g>
<!-- WorkflowDetailDeactivateGuard -->
<g id="node18" class="node">
<title>WorkflowDetailDeactivateGuard</title>
<ellipse fill="#fdb462" stroke="#000000" cx="5901" cy="-104" rx="139.9638" ry="18"/>
<text text-anchor="middle" x="5901" y="-99.8" font-family="Times,serif" font-size="14.00" fill="#000000">WorkflowDetailDeactivateGuard</text>
</g>
<!-- WorkflowDetailDeactivateGuard&#45;&gt;AppRoutingModule -->
<g id="edge17" class="edge">
<title>WorkflowDetailDeactivateGuard&#45;&gt;AppRoutingModule</title>
<path fill="none" stroke="#000000" d="M5901,-122.027C5901,-138.3976 5901,-160 5901,-160 5901,-160 3688.8205,-160 3688.8205,-160 3688.8205,-160 3688.8205,-160.1846 3688.8205,-160.1846"/>
<polygon fill="#000000" stroke="#000000" points="3685.3211,-151.8455 3688.8205,-161.8457 3692.3211,-151.8459 3685.3211,-151.8455"/>
</g>
<!-- AuthService -->
<g id="node19" class="node">
<title>AuthService</title>
<ellipse fill="#fdb462" stroke="#000000" cx="6501" cy="-104" rx="59.1083" ry="18"/>
<text text-anchor="middle" x="6501" y="-99.8" font-family="Times,serif" font-size="14.00" fill="#000000">AuthService</text>
</g>
<!-- AuthService&#45;&gt;CoreModule -->
<g id="edge18" class="edge">
<title>AuthService&#45;&gt;CoreModule</title>
<path fill="none" stroke="#000000" d="M6501,-122.0336C6501,-139.0597 6501,-162 6501,-162 6501,-162 3846.4855,-162 3846.4855,-162"/>
<polygon fill="#000000" stroke="#000000" points="3846.4855,-158.5001 3836.4855,-162 3846.4855,-165.5001 3846.4855,-158.5001"/>
</g>
<!-- EditorComponent -->
<g id="node20" class="node">
<title>EditorComponent</title>
<polygon fill="#ffffb3" stroke="#000000" points="5721.3273,-122 5604.6727,-122 5604.6727,-86 5721.3273,-86 5721.3273,-122"/>
<text text-anchor="middle" x="5663" y="-99.8" font-family="Times,serif" font-size="14.00" fill="#000000">EditorComponent</text>
</g>
<!-- EditorComponent&#45;&gt;EditorModule -->
<g id="edge19" class="edge">
<title>EditorComponent&#45;&gt;EditorModule</title>
<path fill="none" stroke="#000000" d="M5682.3878,-122.0091C5682.3878,-138.0494 5682.3878,-159 5682.3878,-159 5682.3878,-159 3579.0196,-159 3579.0196,-159 3579.0196,-159 3579.0196,-159.292 3579.0196,-159.292"/>
<polygon fill="#000000" stroke="#000000" points="3575.52,-151.9198 3579.0196,-161.92 3582.52,-151.9201 3575.52,-151.9198"/>
</g>
<!-- EditorComponent&#45;&gt;EditorModule -->
<g id="edge23" class="edge">
<title>EditorComponent&#45;&gt;EditorModule</title>
<path fill="none" stroke="#000000" d="M5643.6122,-122.2819C5643.6122,-137.9478 5643.6122,-158 5643.6122,-158 5643.6122,-158 3573.7672,-158 3573.7672,-158 3573.7672,-158 3573.7672,-158.3832 3573.7672,-158.3832"/>
<polygon fill="#000000" stroke="#000000" points="3570.2675,-151.832 3573.7672,-161.8321 3577.2675,-151.8322 3570.2675,-151.832"/>
</g>
<!-- ToolbarComponent -->
<g id="node21" class="node">
<title>ToolbarComponent</title>
<polygon fill="#ffffb3" stroke="#000000" points="5586.6513,-122 5461.3487,-122 5461.3487,-86 5586.6513,-86 5586.6513,-122"/>
<text text-anchor="middle" x="5524" y="-99.8" font-family="Times,serif" font-size="14.00" fill="#000000">ToolbarComponent</text>
</g>
<!-- ToolbarComponent&#45;&gt;EditorModule -->
<g id="edge20" class="edge">
<title>ToolbarComponent&#45;&gt;EditorModule</title>
<path fill="none" stroke="#000000" d="M5503.0582,-122.1871C5503.0582,-137.1824 5503.0582,-156 5503.0582,-156 5503.0582,-156 3563.2623,-156 3563.2623,-156 3563.2623,-156 3563.2623,-156.581 3563.2623,-156.581"/>
<polygon fill="#000000" stroke="#000000" points="3559.7625,-151.8097 3563.2623,-161.8097 3566.7625,-151.8098 3559.7625,-151.8097"/>
</g>
<!-- ToolbarComponent&#45;&gt;EditorModule -->
<g id="edge25" class="edge">
<title>ToolbarComponent&#45;&gt;EditorModule</title>
<path fill="none" stroke="#000000" d="M5544.9418,-122.2396C5544.9418,-137.5706 5544.9418,-157 5544.9418,-157 5544.9418,-157 3568.5147,-157 3568.5147,-157 3568.5147,-157 3568.5147,-157.4878 3568.5147,-157.4878"/>
<polygon fill="#000000" stroke="#000000" points="3565.015,-151.8776 3568.5147,-161.8777 3572.015,-151.8778 3565.015,-151.8776"/>
</g>
<!-- WorkflowPropertiesComponent -->
<g id="node22" class="node">
<title>WorkflowPropertiesComponent</title>
<polygon fill="#ffffb3" stroke="#000000" points="5442.6246,-122 5247.3754,-122 5247.3754,-86 5442.6246,-86 5442.6246,-122"/>
<text text-anchor="middle" x="5345" y="-99.8" font-family="Times,serif" font-size="14.00" fill="#000000">WorkflowPropertiesComponent</text>
</g>
<!-- WorkflowPropertiesComponent&#45;&gt;EditorModule -->
<g id="edge21" class="edge">
<title>WorkflowPropertiesComponent&#45;&gt;EditorModule</title>
<path fill="none" stroke="#000000" d="M5312.396,-122.0511C5312.396,-136.373 5312.396,-154 5312.396,-154 5312.396,-154 3552.7574,-154 3552.7574,-154 3552.7574,-154 3552.7574,-154.7942 3552.7574,-154.7942"/>
<polygon fill="#000000" stroke="#000000" points="3549.2575,-151.9421 3552.7574,-161.9421 3556.2575,-151.9422 3549.2575,-151.9421"/>
</g>
<!-- WorkflowPropertiesComponent&#45;&gt;EditorModule -->
<g id="edge26" class="edge">
<title>WorkflowPropertiesComponent&#45;&gt;EditorModule</title>
<path fill="none" stroke="#000000" d="M5377.604,-122.1243C5377.604,-136.7832 5377.604,-155 5377.604,-155 5377.604,-155 3558.0098,-155 3558.0098,-155 3558.0098,-155 3558.0098,-155.6831 3558.0098,-155.6831"/>
<polygon fill="#000000" stroke="#000000" points="3554.51,-151.8313 3558.0098,-161.8314 3561.51,-151.8314 3554.51,-151.8313"/>
</g>
<!-- PaperComponent -->
<g id="node23" class="node">
<title>PaperComponent</title>
<polygon fill="#ffffb3" stroke="#000000" points="5229.705,-122 5116.295,-122 5116.295,-86 5229.705,-86 5229.705,-122"/>
<text text-anchor="middle" x="5173" y="-99.8" font-family="Times,serif" font-size="14.00" fill="#000000">PaperComponent</text>
</g>
<!-- PaperComponent&#45;&gt;EditorModule -->
<g id="edge22" class="edge">
<title>PaperComponent&#45;&gt;EditorModule</title>
<path fill="none" stroke="#000000" d="M5191.8675,-122.2458C5191.8675,-136.1772 5191.8675,-153 5191.8675,-153 5191.8675,-153 3547.5049,-153 3547.5049,-153 3547.5049,-153 3547.5049,-153.8841 3547.5049,-153.8841"/>
<polygon fill="#000000" stroke="#000000" points="3544.005,-151.8408 3547.5049,-161.8408 3551.005,-151.8409 3544.005,-151.8408"/>
</g>
<!-- PaperComponent&#45;&gt;EditorModule -->
<g id="edge24" class="edge">
<title>PaperComponent&#45;&gt;EditorModule</title>
<path fill="none" stroke="#000000" d="M5154.1325,-122.1467C5154.1325,-135.7395 5154.1325,-152 5154.1325,-152 5154.1325,-152 3542.2525,-152 3542.2525,-152 3542.2525,-152 3542.2525,-152.9793 3542.2525,-152.9793"/>
<polygon fill="#000000" stroke="#000000" points="3538.7526,-151.793 3542.2525,-161.793 3545.7526,-151.7931 3538.7526,-151.793"/>
</g>
<!-- KeysPipe -->
<g id="node24" class="node">
<title>KeysPipe</title>
<polygon fill="#ffffb3" stroke="#000000" points="5098.6545,-122 5029.3455,-122 5029.3455,-86 5098.6545,-86 5098.6545,-122"/>
<text text-anchor="middle" x="5064" y="-99.8" font-family="Times,serif" font-size="14.00" fill="#000000">KeysPipe</text>
</g>
<!-- KeysPipe&#45;&gt;EditorModule -->
<g id="edge27" class="edge">
<title>KeysPipe&#45;&gt;EditorModule</title>
<path fill="none" stroke="#000000" d="M5064,-122.037C5064,-135.2913 5064,-151 5064,-151 5064,-151 3537,-151 3537,-151 3537,-151 3537,-152.0799 3537,-152.0799"/>
<polygon fill="#000000" stroke="#000000" points="3533.5001,-151.7985 3537,-161.7985 3540.5001,-151.7986 3533.5001,-151.7985"/>
</g>
<!-- InputPropertiesComponent -->
<g id="node25" class="node">
<title>InputPropertiesComponent</title>
<polygon fill="#ffffb3" stroke="#000000" points="5010.6428,-122 4843.3572,-122 4843.3572,-86 5010.6428,-86 5010.6428,-122"/>
<text text-anchor="middle" x="4927" y="-99.8" font-family="Times,serif" font-size="14.00" fill="#000000">InputPropertiesComponent</text>
</g>
<!-- InputPropertiesComponent&#45;&gt;EditorModule -->
<g id="edge28" class="edge">
<title>InputPropertiesComponent&#45;&gt;EditorModule</title>
<path fill="none" stroke="#000000" d="M4927,-122.1804C4927,-135.0382 4927,-150 4927,-150 4927,-150 3531.7475,-150 3531.7475,-150 3531.7475,-150 3531.7475,-151.8568 3531.7475,-151.8568"/>
<polygon fill="#000000" stroke="#000000" points="3528.2476,-151.8568 3531.7475,-161.8568 3535.2476,-151.8568 3528.2476,-151.8568"/>
</g>
<!-- OutputPropertiesComponent -->
<g id="node26" class="node">
<title>OutputPropertiesComponent</title>
<polygon fill="#ffffb3" stroke="#000000" points="4825.479,-122 4648.521,-122 4648.521,-86 4825.479,-86 4825.479,-122"/>
<text text-anchor="middle" x="4737" y="-99.8" font-family="Times,serif" font-size="14.00" fill="#000000">OutputPropertiesComponent</text>
</g>
<!-- OutputPropertiesComponent&#45;&gt;EditorModule -->
<g id="edge29" class="edge">
<title>OutputPropertiesComponent&#45;&gt;EditorModule</title>
<path fill="none" stroke="#000000" d="M4681.615,-122.0439C4681.615,-134.5633 4681.615,-149 4681.615,-149 4681.615,-149 3526.4951,-149 3526.4951,-149 3526.4951,-149 3526.4951,-151.9672 3526.4951,-151.9672"/>
<polygon fill="#000000" stroke="#000000" points="3522.9952,-151.9671 3526.4951,-161.9672 3529.9952,-151.9672 3522.9952,-151.9671"/>
</g>
<!-- NodePropertiesComponent -->
<g id="node27" class="node">
<title>NodePropertiesComponent</title>
<polygon fill="#ffffb3" stroke="#000000" points="4630.4129,-122 4461.5871,-122 4461.5871,-86 4630.4129,-86 4630.4129,-122"/>
<text text-anchor="middle" x="4546" y="-99.8" font-family="Times,serif" font-size="14.00" fill="#000000">NodePropertiesComponent</text>
</g>
<!-- NodePropertiesComponent&#45;&gt;EditorModule -->
<g id="edge30" class="edge">
<title>NodePropertiesComponent&#45;&gt;EditorModule</title>
<path fill="none" stroke="#000000" d="M4526.4685,-122.1505C4526.4685,-134.2708 4526.4685,-148 4526.4685,-148 4526.4685,-148 3521.2426,-148 3521.2426,-148 3521.2426,-148 3521.2426,-151.7566 3521.2426,-151.7566"/>
<polygon fill="#000000" stroke="#000000" points="3517.7427,-151.7566 3521.2426,-161.7566 3524.7427,-151.7566 3517.7427,-151.7566"/>
</g>
<!-- LowerCaseTextDirective -->
<g id="node28" class="node">
<title>LowerCaseTextDirective</title>
<polygon fill="#ffffb3" stroke="#000000" points="4443.9862,-122 4286.0138,-122 4286.0138,-86 4443.9862,-86 4443.9862,-122"/>
<text text-anchor="middle" x="4365" y="-99.8" font-family="Times,serif" font-size="14.00" fill="#000000">LowerCaseTextDirective</text>
</g>
<!-- LowerCaseTextDirective&#45;&gt;EditorModule -->
<g id="edge31" class="edge">
<title>LowerCaseTextDirective&#45;&gt;EditorModule</title>
<path fill="none" stroke="#000000" d="M4336.7051,-122.4854C4336.7051,-134.1399 4336.7051,-147 4336.7051,-147 4336.7051,-147 3515.9902,-147 3515.9902,-147 3515.9902,-147 3515.9902,-151.9551 3515.9902,-151.9551"/>
<polygon fill="#000000" stroke="#000000" points="3512.4903,-151.9551 3515.9902,-161.9551 3519.4903,-151.9552 3512.4903,-151.9551"/>
</g>
<!-- UpperCaseTextDirective -->
<g id="node29" class="node">
<title>UpperCaseTextDirective</title>
<polygon fill="#ffffb3" stroke="#000000" points="4267.9328,-122 4112.0672,-122 4112.0672,-86 4267.9328,-86 4267.9328,-122"/>
<text text-anchor="middle" x="4190" y="-99.8" font-family="Times,serif" font-size="14.00" fill="#000000">UpperCaseTextDirective</text>
</g>
<!-- UpperCaseTextDirective&#45;&gt;EditorModule -->
<g id="edge32" class="edge">
<title>UpperCaseTextDirective&#45;&gt;EditorModule</title>
<path fill="none" stroke="#000000" d="M4154.2851,-122.0555C4154.2851,-133.439 4154.2851,-146 4154.2851,-146 4154.2851,-146 3510.7377,-146 3510.7377,-146 3510.7377,-146 3510.7377,-151.8056 3510.7377,-151.8056"/>
<polygon fill="#000000" stroke="#000000" points="3507.2378,-151.8055 3510.7377,-161.8056 3514.2378,-151.8056 3507.2378,-151.8055"/>
</g>
<!-- JointService -->
<g id="node31" class="node">
<title>JointService</title>
<ellipse fill="#fdb462" stroke="#000000" cx="3885" cy="-104" rx="58.5444" ry="18"/>
<text text-anchor="middle" x="3885" y="-99.8" font-family="Times,serif" font-size="14.00" fill="#000000">JointService</text>
</g>
<!-- JointService&#45;&gt;EditorModule -->
<g id="edge34" class="edge">
<title>JointService&#45;&gt;EditorModule</title>
<path fill="none" stroke="#000000" d="M3831.3045,-111.3366C3831.3045,-122.8843 3831.3045,-144 3831.3045,-144 3831.3045,-144 3505.4853,-144 3505.4853,-144 3505.4853,-144 3505.4853,-151.5782 3505.4853,-151.5782"/>
<polygon fill="#000000" stroke="#000000" points="3501.9854,-151.5781 3505.4853,-161.5782 3508.9854,-151.5782 3501.9854,-151.5781"/>
</g>
<!-- DescriptorService -->
<g id="node32" class="node">
<title>DescriptorService</title>
<ellipse fill="#fdb462" stroke="#000000" cx="3727" cy="-104" rx="80.993" ry="18"/>
<text text-anchor="middle" x="3727" y="-99.8" font-family="Times,serif" font-size="14.00" fill="#000000">DescriptorService</text>
</g>
<!-- DescriptorService&#45;&gt;EditorModule -->
<g id="edge35" class="edge">
<title>DescriptorService&#45;&gt;EditorModule</title>
<path fill="none" stroke="#000000" d="M3667.5372,-116.3398C3667.5372,-127.7656 3667.5372,-143 3667.5372,-143 3667.5372,-143 3500.2328,-143 3500.2328,-143 3500.2328,-143 3500.2328,-151.9336 3500.2328,-151.9336"/>
<polygon fill="#000000" stroke="#000000" points="3496.7329,-151.9335 3500.2328,-161.9336 3503.7329,-151.9336 3496.7329,-151.9335"/>
</g>
<!-- FrameworkBodyComponent -->
<g id="node33" class="node">
<title>FrameworkBodyComponent</title>
<polygon fill="#ffffb3" stroke="#000000" points="3606.1993,-122 3429.8007,-122 3429.8007,-86 3606.1993,-86 3606.1993,-122"/>
<text text-anchor="middle" x="3518" y="-99.8" font-family="Times,serif" font-size="14.00" fill="#000000">FrameworkBodyComponent</text>
</g>
<!-- FrameworkBodyComponent&#45;&gt;FwModule -->
<g id="edge36" class="edge">
<title>FrameworkBodyComponent&#45;&gt;FwModule</title>
<path fill="none" stroke="#000000" d="M3466.4921,-122.0109C3466.4921,-122.0109 3466.4921,-151.855 3466.4921,-151.855"/>
<polygon fill="#000000" stroke="#000000" points="3462.9922,-151.8549 3466.4921,-161.855 3469.9922,-151.855 3462.9922,-151.8549"/>
</g>
<!-- ContentComponent -->
<g id="node34" class="node">
<title>ContentComponent</title>
<polygon fill="#ffffb3" stroke="#000000" points="3411.6652,-122 3286.3348,-122 3286.3348,-86 3411.6652,-86 3411.6652,-122"/>
<text text-anchor="middle" x="3349" y="-99.8" font-family="Times,serif" font-size="14.00" fill="#000000">ContentComponent</text>
</g>
<!-- ContentComponent&#45;&gt;FwModule -->
<g id="edge37" class="edge">
<title>ContentComponent&#45;&gt;FwModule</title>
<path fill="none" stroke="#000000" d="M3409.8822,-122.0109C3409.8822,-122.0109 3409.8822,-151.855 3409.8822,-151.855"/>
<polygon fill="#000000" stroke="#000000" points="3406.3823,-151.8549 3409.8822,-161.855 3413.3823,-151.855 3406.3823,-151.8549"/>
</g>
<!-- TitleBarComponent -->
<g id="node35" class="node">
<title>TitleBarComponent</title>
<polygon fill="#ffffb3" stroke="#000000" points="3267.9832,-122 3140.0168,-122 3140.0168,-86 3267.9832,-86 3267.9832,-122"/>
<text text-anchor="middle" x="3204" y="-99.8" font-family="Times,serif" font-size="14.00" fill="#000000">TitleBarComponent</text>
</g>
<!-- TitleBarComponent&#45;&gt;FwModule -->
<g id="edge38" class="edge">
<title>TitleBarComponent&#45;&gt;FwModule</title>
<path fill="none" stroke="#000000" d="M3217.9298,-122.0449C3217.9298,-129.749 3217.9298,-137 3217.9298,-137 3217.9298,-137 3407.932,-137 3407.932,-137 3407.932,-137 3407.932,-151.5146 3407.932,-151.5146"/>
<polygon fill="#000000" stroke="#000000" points="3404.4321,-151.5145 3407.932,-161.5146 3411.4321,-151.5146 3404.4321,-151.5145"/>
</g>
<!-- TopBarComponent -->
<g id="node36" class="node">
<title>TopBarComponent</title>
<polygon fill="#ffffb3" stroke="#000000" points="3122.0968,-122 2997.9032,-122 2997.9032,-86 3122.0968,-86 3122.0968,-122"/>
<text text-anchor="middle" x="3060" y="-99.8" font-family="Times,serif" font-size="14.00" fill="#000000">TopBarComponent</text>
</g>
<!-- TopBarComponent&#45;&gt;FwModule -->
<g id="edge39" class="edge">
<title>TopBarComponent&#45;&gt;FwModule</title>
<path fill="none" stroke="#000000" d="M3075.8416,-122.1944C3075.8416,-130.2782 3075.8416,-138 3075.8416,-138 3075.8416,-138 3405.9818,-138 3405.9818,-138 3405.9818,-138 3405.9818,-151.9445 3405.9818,-151.9445"/>
<polygon fill="#000000" stroke="#000000" points="3402.4819,-151.9444 3405.9818,-161.9445 3409.4819,-151.9445 3402.4819,-151.9444"/>
</g>
<!-- StatusBarComponent -->
<g id="node37" class="node">
<title>StatusBarComponent</title>
<polygon fill="#ffffb3" stroke="#000000" points="2979.7674,-122 2844.2326,-122 2844.2326,-86 2979.7674,-86 2979.7674,-122"/>
<text text-anchor="middle" x="2912" y="-99.8" font-family="Times,serif" font-size="14.00" fill="#000000">StatusBarComponent</text>
</g>
<!-- StatusBarComponent&#45;&gt;FwModule -->
<g id="edge40" class="edge">
<title>StatusBarComponent&#45;&gt;FwModule</title>
<path fill="none" stroke="#000000" d="M2929.3047,-122.32C2929.3047,-130.7883 2929.3047,-139 2929.3047,-139 2929.3047,-139 3404.0316,-139 3404.0316,-139 3404.0316,-139 3404.0316,-151.8975 3404.0316,-151.8975"/>
<polygon fill="#000000" stroke="#000000" points="3400.5317,-151.8974 3404.0316,-161.8975 3407.5317,-151.8975 3400.5317,-151.8974"/>
</g>
<!-- ScreenLarge -->
<g id="node38" class="node">
<title>ScreenLarge</title>
<polygon fill="#ffffb3" stroke="#000000" points="2826.2298,-122 2739.7702,-122 2739.7702,-86 2826.2298,-86 2826.2298,-122"/>
<text text-anchor="middle" x="2783" y="-99.8" font-family="Times,serif" font-size="14.00" fill="#000000">ScreenLarge</text>
</g>
<!-- ScreenLarge&#45;&gt;FwModule -->
<g id="edge41" class="edge">
<title>ScreenLarge&#45;&gt;FwModule</title>
<path fill="none" stroke="#000000" d="M2783,-122.4218C2783,-131.2791 2783,-140 2783,-140 2783,-140 3402.0813,-140 3402.0813,-140 3402.0813,-140 3402.0813,-151.8726 3402.0813,-151.8726"/>
<polygon fill="#000000" stroke="#000000" points="3398.5814,-151.8725 3402.0813,-161.8726 3405.5814,-151.8726 3398.5814,-151.8725"/>
</g>
<!-- ScreenBelowLarge -->
<g id="node39" class="node">
<title>ScreenBelowLarge</title>
<polygon fill="#ffffb3" stroke="#000000" points="2721.7781,-122 2598.2219,-122 2598.2219,-86 2721.7781,-86 2721.7781,-122"/>
<text text-anchor="middle" x="2660" y="-99.8" font-family="Times,serif" font-size="14.00" fill="#000000">ScreenBelowLarge</text>
</g>
<!-- ScreenBelowLarge&#45;&gt;FwModule -->
<g id="edge42" class="edge">
<title>ScreenBelowLarge&#45;&gt;FwModule</title>
<path fill="none" stroke="#000000" d="M2685.6,-122.0664C2685.6,-131.4587 2685.6,-141 2685.6,-141 2685.6,-141 3400.1311,-141 3400.1311,-141 3400.1311,-141 3400.1311,-151.8701 3400.1311,-151.8701"/>
<polygon fill="#000000" stroke="#000000" points="3396.6312,-151.8701 3400.1311,-161.8701 3403.6312,-151.8701 3396.6312,-151.8701"/>
</g>
<!-- MenuComponent -->
<g id="node40" class="node">
<title>MenuComponent</title>
<polygon fill="#ffffb3" stroke="#000000" points="2579.9916,-122 2466.0084,-122 2466.0084,-86 2579.9916,-86 2579.9916,-122"/>
<text text-anchor="middle" x="2523" y="-99.8" font-family="Times,serif" font-size="14.00" fill="#000000">MenuComponent</text>
</g>
<!-- MenuComponent&#45;&gt;FwModule -->
<g id="edge43" class="edge">
<title>MenuComponent&#45;&gt;FwModule</title>
<path fill="none" stroke="#000000" d="M2523,-122.1097C2523,-131.897 2523,-142 2523,-142 2523,-142 3398.1809,-142 3398.1809,-142 3398.1809,-142 3398.1809,-151.8903 3398.1809,-151.8903"/>
<polygon fill="#000000" stroke="#000000" points="3394.681,-151.8903 3398.1809,-161.8903 3401.681,-151.8904 3394.681,-151.8903"/>
</g>
<!-- MenuItemComponent -->
<g id="node41" class="node">
<title>MenuItemComponent</title>
<polygon fill="#ffffb3" stroke="#000000" points="2447.6484,-122 2308.3516,-122 2308.3516,-86 2447.6484,-86 2447.6484,-122"/>
<text text-anchor="middle" x="2378" y="-99.8" font-family="Times,serif" font-size="14.00" fill="#000000">MenuItemComponent</text>
</g>
<!-- MenuItemComponent&#45;&gt;FwModule -->
<g id="edge44" class="edge">
<title>MenuItemComponent&#45;&gt;FwModule</title>
<path fill="none" stroke="#000000" d="M2378,-122.1097C2378,-131.897 2378,-142 2378,-142 2378,-142 3396.2307,-142 3396.2307,-142 3396.2307,-142 3396.2307,-151.8903 3396.2307,-151.8903"/>
<polygon fill="#000000" stroke="#000000" points="3392.7308,-151.8903 3396.2307,-161.8903 3399.7308,-151.8904 3392.7308,-151.8903"/>
</g>
<!-- PopupMenuComponent -->
<g id="node42" class="node">
<title>PopupMenuComponent</title>
<polygon fill="#ffffb3" stroke="#000000" points="2289.7744,-122 2140.2256,-122 2140.2256,-86 2289.7744,-86 2289.7744,-122"/>
<text text-anchor="middle" x="2215" y="-99.8" font-family="Times,serif" font-size="14.00" fill="#000000">PopupMenuComponent</text>
</g>
<!-- PopupMenuComponent&#45;&gt;FwModule -->
<g id="edge45" class="edge">
<title>PopupMenuComponent&#45;&gt;FwModule</title>
<path fill="none" stroke="#000000" d="M2215,-122.1686C2215,-126.0459 2215,-129 2215,-129 2215,-129 3427.8928,-129 3427.8928,-129 3427.8928,-129 3427.8928,-151.8757 3427.8928,-151.8757"/>
<polygon fill="#000000" stroke="#000000" points="3424.3929,-151.8757 3427.8928,-161.8757 3431.3929,-151.8757 3424.3929,-151.8757"/>
</g>
<!-- SignInComponent -->
<g id="node43" class="node">
<title>SignInComponent</title>
<polygon fill="#ffffb3" stroke="#000000" points="2122.1667,-122 2003.8333,-122 2003.8333,-86 2122.1667,-86 2122.1667,-122"/>
<text text-anchor="middle" x="2063" y="-99.8" font-family="Times,serif" font-size="14.00" fill="#000000">SignInComponent</text>
</g>
<!-- SignInComponent&#45;&gt;FwModule -->
<g id="edge46" class="edge">
<title>SignInComponent&#45;&gt;FwModule</title>
<path fill="none" stroke="#000000" d="M2063,-122.0579C2063,-126.4945 2063,-130 2063,-130 2063,-130 3425.8853,-130 3425.8853,-130 3425.8853,-130 3425.8853,-151.9489 3425.8853,-151.9489"/>
<polygon fill="#000000" stroke="#000000" points="3422.3854,-151.9488 3425.8853,-161.9489 3429.3854,-151.9489 3422.3854,-151.9488"/>
</g>
<!-- RegisterUserComponent -->
<g id="node44" class="node">
<title>RegisterUserComponent</title>
<polygon fill="#ffffb3" stroke="#000000" points="1985.4115,-122 1830.5885,-122 1830.5885,-86 1985.4115,-86 1985.4115,-122"/>
<text text-anchor="middle" x="1908" y="-99.8" font-family="Times,serif" font-size="14.00" fill="#000000">RegisterUserComponent</text>
</g>
<!-- RegisterUserComponent&#45;&gt;FwModule -->
<g id="edge47" class="edge">
<title>RegisterUserComponent&#45;&gt;FwModule</title>
<path fill="none" stroke="#000000" d="M1908,-122.1592C1908,-127.0433 1908,-131 1908,-131 1908,-131 3423.8777,-131 3423.8777,-131 3423.8777,-131 3423.8777,-151.7542 3423.8777,-151.7542"/>
<polygon fill="#000000" stroke="#000000" points="3420.3778,-151.7542 3423.8777,-161.7542 3427.3778,-151.7542 3420.3778,-151.7542"/>
</g>
<!-- DynamicFormComponent -->
<g id="node45" class="node">
<title>DynamicFormComponent</title>
<polygon fill="#ffffb3" stroke="#000000" points="1812.4832,-122 1649.5168,-122 1649.5168,-86 1812.4832,-86 1812.4832,-122"/>
<text text-anchor="middle" x="1731" y="-99.8" font-family="Times,serif" font-size="14.00" fill="#000000">DynamicFormComponent</text>
</g>
<!-- DynamicFormComponent&#45;&gt;FwModule -->
<g id="edge48" class="edge">
<title>DynamicFormComponent&#45;&gt;FwModule</title>
<path fill="none" stroke="#000000" d="M1731,-122.207C1731,-127.5549 1731,-132 1731,-132 1731,-132 3421.8702,-132 3421.8702,-132 3421.8702,-132 3421.8702,-151.8533 3421.8702,-151.8533"/>
<polygon fill="#000000" stroke="#000000" points="3418.3703,-151.8532 3421.8702,-161.8533 3425.3703,-151.8533 3418.3703,-151.8532"/>
</g>
<!-- DynamicFieldComponent -->
<g id="node46" class="node">
<title>DynamicFieldComponent</title>
<polygon fill="#ffffb3" stroke="#000000" points="1631.9284,-122 1470.0716,-122 1470.0716,-86 1631.9284,-86 1631.9284,-122"/>
<text text-anchor="middle" x="1551" y="-99.8" font-family="Times,serif" font-size="14.00" fill="#000000">DynamicFieldComponent</text>
</g>
<!-- DynamicFieldComponent&#45;&gt;FwModule -->
<g id="edge49" class="edge">
<title>DynamicFieldComponent&#45;&gt;FwModule</title>
<path fill="none" stroke="#000000" d="M1551,-122.2015C1551,-128.028 1551,-133 1551,-133 1551,-133 3419.8626,-133 3419.8626,-133 3419.8626,-133 3419.8626,-151.963 3419.8626,-151.963"/>
<polygon fill="#000000" stroke="#000000" points="3416.3627,-151.963 3419.8626,-161.963 3423.3627,-151.963 3416.3627,-151.963"/>
</g>
<!-- PanelComponent -->
<g id="node47" class="node">
<title>PanelComponent</title>
<polygon fill="#ffffb3" stroke="#000000" points="1452.4356,-122 1339.5644,-122 1339.5644,-86 1452.4356,-86 1452.4356,-122"/>
<text text-anchor="middle" x="1396" y="-99.8" font-family="Times,serif" font-size="14.00" fill="#000000">PanelComponent</text>
</g>
<!-- PanelComponent&#45;&gt;FwModule -->
<g id="edge50" class="edge">
<title>PanelComponent&#45;&gt;FwModule</title>
<path fill="none" stroke="#000000" d="M1396,-122.1432C1396,-128.4611 1396,-134 1396,-134 1396,-134 3417.8551,-134 3417.8551,-134 3417.8551,-134 3417.8551,-151.8196 3417.8551,-151.8196"/>
<polygon fill="#000000" stroke="#000000" points="3414.3552,-151.8195 3417.8551,-161.8196 3421.3552,-151.8196 3414.3552,-151.8195"/>
</g>
<!-- FrameworkConfigService -->
<g id="node53" class="node">
<title>FrameworkConfigService</title>
<ellipse fill="#fdb462" stroke="#000000" cx="430" cy="-104" rx="111.1557" ry="18"/>
<text text-anchor="middle" x="430" y="-99.8" font-family="Times,serif" font-size="14.00" fill="#000000">FrameworkConfigService</text>
</g>
<!-- FrameworkConfigService&#45;&gt;FwModule -->
<g id="edge56" class="edge">
<title>FrameworkConfigService&#45;&gt;FwModule</title>
<path fill="none" stroke="#000000" d="M430,-122.1679C430,-124.4478 430,-126 430,-126 430,-126 3445.5826,-126 3445.5826,-126 3445.5826,-126 3445.5826,-151.7181 3445.5826,-151.7181"/>
<polygon fill="#000000" stroke="#000000" points="3442.0827,-151.718 3445.5826,-161.7181 3449.0827,-151.7181 3442.0827,-151.718"/>
</g>
<!-- ScreenService -->
<g id="node54" class="node">
<title>ScreenService</title>
<ellipse fill="#fdb462" stroke="#000000" cx="234" cy="-104" rx="66.0281" ry="18"/>
<text text-anchor="middle" x="234" y="-99.8" font-family="Times,serif" font-size="14.00" fill="#000000">ScreenService</text>
</g>
<!-- ScreenService&#45;&gt;FwModule -->
<g id="edge57" class="edge">
<title>ScreenService&#45;&gt;FwModule</title>
<path fill="none" stroke="#000000" d="M234,-122.1223C234,-124.9729 234,-127 234,-127 234,-127 3440.3552,-127 3440.3552,-127 3440.3552,-127 3440.3552,-151.7604 3440.3552,-151.7604"/>
<polygon fill="#000000" stroke="#000000" points="3436.8553,-151.7604 3440.3552,-161.7604 3443.8553,-151.7604 3436.8553,-151.7604"/>
</g>
<!-- MenuService -->
<g id="node55" class="node">
<title>MenuService</title>
<ellipse fill="#fdb462" stroke="#000000" cx="87" cy="-104" rx="62.5392" ry="18"/>
<text text-anchor="middle" x="87" y="-99.8" font-family="Times,serif" font-size="14.00" fill="#000000">MenuService</text>
</g>
<!-- MenuService&#45;&gt;FwModule -->
<g id="edge58" class="edge">
<title>MenuService&#45;&gt;FwModule</title>
<path fill="none" stroke="#000000" d="M87,-122.1903C87,-125.5376 87,-128 87,-128 87,-128 3435.1278,-128 3435.1278,-128 3435.1278,-128 3435.1278,-151.8129 3435.1278,-151.8129"/>
<polygon fill="#000000" stroke="#000000" points="3431.6279,-151.8129 3435.1278,-161.8129 3438.6279,-151.813 3431.6279,-151.8129"/>
</g>
</g>
</svg>
